<?xml version="1.0" standalone="no"?>
<!DOCTYPE svg PUBLIC "-//W3C//DTD SVG 1.1//EN" "http://www.w3.org/Graphics/SVG/1.1/DTD/svg11.dtd" >
<svg xmlns="http://www.w3.org/2000/svg">
<metadata></metadata>
<defs>
<font id="eulexiaitalic" horiz-adv-x="1598" >
<font-face units-per-em="2048" ascent="1638" descent="-410" />
<missing-glyph horiz-adv-x="713" />
<glyph horiz-adv-x="2048" />
<glyph horiz-adv-x="2048" />
<glyph unicode="&#xd;" horiz-adv-x="569" />
<glyph unicode=" "  horiz-adv-x="713" />
<glyph unicode="&#x09;" horiz-adv-x="713" />
<glyph unicode="&#xa0;" horiz-adv-x="713" />
<glyph unicode="!" horiz-adv-x="416" d="M54 37l9 -8q1 46 6 95q2 21 2.5 43.5t2.5 43.5h31q72 0 144 -12l-1 -7q-2 -44 -4.5 -88.5t-3.5 -88.5q-41 12 -83.5 17t-88.5 5h-14zM88 419l10 116q19 217 39 431t33 429q38 -12 77 -17t81 -6q-3 -58 -6.5 -123.5t-7.5 -133t-8 -133.5t-8 -123q-7 -115 -14 -229 t-13 -229l-1 -12q-17 2 -31 7t-28 10.5t-29 9.5t-32 4h-31t-31 -1z" />
<glyph unicode="&#x22;" horiz-adv-x="890" d="M155 961q11 72 16.5 143.5t5.5 142.5q0 44 -2.5 86.5t-7.5 85.5q55 -5 105 -6.5t105 -1.5q-8 -103 -21 -208.5t-27 -208.5l-4 -29q-46 -1 -85.5 -1.5t-84.5 -2.5zM518 1091q0 63 2.5 125.5t6.5 124.5l2 35v34q54 1 109 2.5t107 3.5q-7 -27 -12 -49t-10 -49 q-17 -78 -26 -155.5t-9 -153.5q0 -17 0.5 -33t1.5 -33q-26 13 -62.5 17t-74.5 4h-31q-2 32 -3 63.5t-1 63.5z" />
<glyph unicode="#" horiz-adv-x="1280" d="M74 401q5 35 8.5 63t5.5 62q36 1 66 1.5t66 0.5q18 0 40 0.5t40 0.5q24 80 49 169.5t47 170.5q-57 0 -116 2t-116 4q3 35 4 64.5t3 62.5q65 -5 128.5 -6.5t128.5 -3.5q26 96 51 197t49 198q38 -2 71 -2.5t71 -0.5q-14 -50 -26 -93t-26 -93t-28.5 -104.5t-28.5 -103.5 q37 -1 79 -1h80h78.5t79.5 1l37 122q21 68 43 138t45 137h116q6 2 12.5 3t13.5 3q-32 -88 -58.5 -170.5t-55.5 -168.5l-21 -61q46 2 99 3t101 3l-15 -124q-10 0 -22.5 -0.5t-21.5 -1.5q-83 -3 -168 -3l-11 -9q-18 -60 -34.5 -119t-33.5 -119l-25 -92q58 0 120 -1t121 -3 l-7 -127q-68 3 -133.5 4.5t-133.5 3.5q-26 -96 -51 -197t-48 -198q-30 2 -55.5 1.5t-54.5 0.5q-6 0 -14.5 0.5t-15.5 0.5q26 99 52 197t53 197q-31 0 -67 0.5t-67 0.5q-44 0 -91 -0.5t-92 -1.5q-28 -99 -57.5 -198.5t-61.5 -197.5h-101q-10 -2 -20.5 -3t-19.5 -3 q35 100 66.5 199t61.5 200h-74q-28 -2 -57 -2.5t-58 -2.5zM433 531h157q37 0 78.5 0.5t78.5 0.5l95 336q-73 -1 -151 -1h-151l-12 -9q-22 -79 -46.5 -163.5t-48.5 -163.5z" />
<glyph unicode="$" horiz-adv-x="1240" d="M69 389l193 46q8 -50 26.5 -98t55.5 -78q34 -29 83.5 -43.5t100.5 -17.5q5 65 10.5 137t10.5 137l13 185l-40 11q-47 13 -92.5 27.5t-86.5 36.5q-28 17 -53.5 38t-45.5 45q-35 39 -48.5 89.5t-13.5 106.5v16t1 16q1 17 3 33t5 33q11 49 36.5 95.5t70.5 78.5 q34 24 71.5 39.5t77 25t80 13.5t80.5 5l6 129q11 0 24.5 -0.5t21.5 -0.5q27 -1 54.5 -1.5t54.5 -0.5q-1 -21 -3 -38.5t-4 -38.5l-4 -52q76 -4 147 -21t124 -57q55 -42 83 -105t39 -132l-19 -4q-46 -10 -88 -19t-88 -18q-6 36 -23.5 71t-44 62.5t-62 45.5t-78.5 20l-32 -408 q60 -14 118 -31t111 -40q29 -17 58 -36t51 -44q37 -43 53.5 -99.5t16.5 -118.5v-16.5t-1 -16.5q-1 -17 -2.5 -34t-5.5 -34q-11 -53 -42 -105t-76 -90q-72 -52 -160 -73.5t-171 -23.5l-6 -158q-42 2 -77.5 2h-75.5q1 24 2.5 45.5t3.5 46.5l5 66h-20q-84 0 -160 24 t-134.5 69.5t-94.5 110.5t-39 147zM368 1014q0 -41 18 -72t47 -53.5t66 -37.5t76 -22l8 117q5 66 9.5 133t7.5 131q-38 -2 -73.5 -7.5t-66.5 -20.5q-40 -23 -60 -54t-27 -62q0 -1 -0.5 -1.5t-0.5 -1.5q-3 -17 -3 -29q-1 -5 -1 -10v-10zM674 198q47 1 95 13t87 41 q31 23 49.5 54t25.5 63q2 9 3 17.5t1 16.5q0 5 0.5 9t0.5 9q0 44 -19 82q-10 20 -25.5 36.5t-35.5 28.5q-26 16 -55 26t-59 18l-39 10l-8 -107q-6 -78 -11.5 -158.5t-9.5 -158.5z" />
<glyph unicode="%" horiz-adv-x="1835" d="M136 899q0 20 1 38.5t2 37.5q2 51 6 101.5t15 101.5q3 16 8 32t10 33q13 44 38.5 76.5t58 54t69.5 32t72 10.5q15 0 36 -3h10q78 0 135 -32t95 -85t56.5 -121t18.5 -140q0 -18 -1.5 -36.5t-3.5 -36.5q-2 -33 -6.5 -67t-12.5 -67q-11 -51 -30 -100t-51 -95 q-21 -29 -49 -50.5t-59.5 -35.5t-65 -20.5t-64.5 -6.5h-7q-5 0 -9.5 -0.5t-9.5 -0.5q-75 0 -125.5 34t-81 88t-43 122t-12.5 136zM298 901q0 -66 12 -132q5 -25 14.5 -47.5t23.5 -39t33.5 -26t43.5 -9.5h8q22 0 42 9.5t36 24.5t28.5 34.5t19.5 39.5q6 19 10.5 37t8.5 36 q8 38 12 71.5t6 65.5l1 15q1 17 1.5 33.5t0.5 33.5q0 42 -6 83t-23 78q-13 32 -41.5 54.5t-67.5 24.5h-4q-16 0 -34 -5.5t-34 -16t-29 -24.5t-20 -30q-8 -16 -13 -34t-9 -35q-7 -34 -9.5 -67.5t-4.5 -65.5l-3 -42q-3 -33 -3 -66zM317 12q73 90 142 180t135 180.5t131.5 182 t133.5 185.5q118 165 237 328.5t246 323.5h66q31 2 61.5 2.5t61.5 2.5q-142 -174 -272.5 -352t-260.5 -358l-37 -52q-113 -158 -226.5 -314t-233.5 -310l10 5q-48 -1 -97 -1.5t-97 -2.5zM1076 372q0 19 1.5 37.5t3.5 36.5q2 35 6 71t12 71q6 28 14.5 55t20.5 56 q19 47 50 82.5t68 59.5t77.5 36t79.5 12q4 0 8 -0.5t8 -0.5h17q39 0 74 -9.5t64.5 -27.5t51.5 -44.5t34 -60.5q25 -69 32.5 -134t7.5 -131q0 -12 -0.5 -23.5t-0.5 -23.5q-2 -46 -6 -93t-14 -93q-8 -39 -22 -77t-34 -73q-16 -28 -39.5 -47.5t-51 -32t-57.5 -18.5t-58 -6 h-13.5t-13.5 1h-9q-79 0 -137.5 32t-97 84.5t-57.5 120.5t-19 140zM1245 423q0 -43 4 -91.5t18 -92t42 -75.5t76 -42h6q21 0 40.5 9.5t35.5 25t28 34.5t17 38q3 8 5 19t4 19q11 48 14.5 90.5t4.5 84.5v90q0 41 -3 80.5t-15 74.5q-11 31 -37 53.5t-63 22.5h-8q-35 0 -68 -21 t-50 -55q-12 -24 -20 -48t-13 -48q-7 -32 -9 -63t-6 -62l-3 -25v-18z" />
<glyph unicode="&#x26;" horiz-adv-x="1435" d="M103 303q0 37 6 73q1 14 3 27t4 25q13 60 45.5 116.5t79 105.5t104.5 87t121 62q-16 38 -25 73.5t-17 67.5q-6 36 -11 75t-5 79q0 19 2.5 38t6.5 37q9 44 30.5 85t59.5 73q62 44 126 58t122 14h16q70 0 134.5 -18t113.5 -60q37 -30 56.5 -75t19.5 -97v-17.5t-2 -17.5 q0 -17 -5 -37q-14 -65 -56.5 -118t-100.5 -95.5t-124.5 -74.5t-127.5 -55q45 -95 99.5 -185t122.5 -175q39 43 69 89.5t53.5 94t42 95.5t33.5 96q24 -8 45.5 -14.5t46.5 -14.5l56 -18q-38 -118 -92.5 -234.5t-132.5 -225.5q35 -38 79.5 -65.5t99.5 -27.5h16q54 0 110 15 q1 -44 2 -81t4 -80q-29 -9 -56.5 -11.5t-57.5 -2.5h-16.5t-16.5 1q-85 5 -161 37t-132 94q-40 -33 -82 -53t-83 -35q-53 -20 -105.5 -27t-104.5 -8h-18q-44 0 -87.5 4t-84.5 14.5t-77.5 28.5t-66.5 45q-42 39 -61.5 94.5t-19.5 118.5zM294 361q0 -36 16.5 -66t39.5 -53 q33 -35 81.5 -48t99.5 -13h21q32 0 65 3l39 3q30 2 58.5 16.5t51.5 35.5l3 14q-72 93 -133 193.5t-112 212.5q-41 -15 -78 -39.5t-66.5 -56t-50 -68t-28.5 -75.5q-2 -10 -3.5 -21t-2.5 -20q-1 -5 -1 -9v-9zM580 1065q0 -51 10.5 -101t32.5 -98l24 10q41 17 86.5 37.5t85 49 t67.5 65.5t34 87q1 5 1 9v9q0 30 -12.5 53.5t-33 40.5t-47 26t-55.5 9h-13q-32 0 -65.5 -9t-61.5 -34q-22 -24 -32.5 -47.5t-15.5 -46.5t-5 -41v-19z" />
<glyph unicode="'" horiz-adv-x="530" d="M149 945q7 102 11 201t4 198v47t-1 47q36 -5 71.5 -7t73.5 -2q29 0 58 1t59 3q-23 -129 -39.5 -256.5t-21.5 -252.5l13 12q-39 5 -79 7.5t-82 2.5h-33.5t-33.5 -1z" />
<glyph unicode="(" horiz-adv-x="791" d="M94 371q0 42 1.5 83t5.5 83v5q5 48 12.5 96.5t18.5 97.5q17 79 42.5 157t62.5 156q56 115 135.5 216t176.5 188q32 -2 62 -3.5t62 -1.5h42t42 1q-98 -98 -184 -205.5t-145 -228.5q-37 -78 -63.5 -158t-43.5 -162q-9 -42 -15 -83t-10 -82q-3 -38 -5 -75t-2 -75 q0 -176 39 -339q16 -66 40.5 -128t54.5 -121t63.5 -115.5t68.5 -111.5q-47 11 -96 19t-100 13q-37 48 -72 98.5t-65 104.5t-53.5 111.5t-38.5 119.5q-19 79 -27.5 165t-8.5 175z" />
<glyph unicode=")" horiz-adv-x="789" d="M33 -391q98 95 184 203.5t143 228.5q36 75 62.5 156.5t43.5 159.5q9 43 15.5 85t10.5 84q4 39 5.5 77.5t1.5 76.5q0 88 -9 172t-29 165q-15 61 -38 120t-51 115.5t-58.5 111t-60.5 106.5l-15 25q46 -13 95 -21t99 -13q36 -47 70 -98.5t63 -107t52.5 -113.5t38.5 -117 q20 -80 29.5 -171t9.5 -184q0 -77 -6 -149q0 -4 1 -6q0 -2 1 -4l-2 6q-11 -95 -30 -187q-17 -81 -43 -161.5t-64 -160.5q-55 -114 -134 -214t-175 -188q-32 3 -65.5 3.5t-67.5 0.5h-38.5t-38.5 -1z" />
<glyph unicode="*" horiz-adv-x="855" d="M71 1079l13 34q11 29 22 58.5t21 59.5q53 -26 108.5 -49.5t111.5 -46.5l21 -9q2 36 2.5 76.5t0.5 81.5q0 23 -0.5 46t-0.5 43q0 8 -0.5 15.5t-0.5 15.5q19 -1 35.5 -1h33.5h98l-2 -9l-35 -266q61 23 127 48.5t127 50.5q5 -26 10 -45.5t11 -45.5l13 -58 q-66 -18 -133.5 -35t-133.5 -34q38 -60 80 -124.5t82 -122.5q-35 -20 -67 -39.5t-67 -39.5q-35 57 -68 120t-62 124q-39 -58 -82 -119.5t-84 -118.5q-14 8 -23 14t-23 14q-21 14 -42 26t-42 26q46 53 87 102.5t87 103.5l29 34l-27 6q-58 13 -114 29.5t-113 34.5z" />
<glyph unicode="+" horiz-adv-x="1023" d="M25 598q5 43 8.5 83t5.5 82q66 -2 131.5 -2.5t131.5 -0.5h132q7 100 12.5 206t9.5 206q23 -1 44.5 -1h43.5h88l-10 -128q-5 -69 -11.5 -141.5t-11.5 -141.5q99 1 199 1.5t200 2.5q-5 -43 -8.5 -83.5t-5.5 -82.5q-35 1 -68.5 1h-66.5q-63 0 -127 -2t-136 -7 q-8 -100 -13 -200.5t-7 -200.5q-24 1 -45.5 1h-42.5h-87q7 103 15 205.5t16 205.5h-65t-71 -0.5t-71.5 -1t-66.5 -0.5q-30 0 -61.5 -0.5t-61.5 -0.5z" />
<glyph unicode="," horiz-adv-x="470" d="M97 -264q37 49 70 103.5t45 111.5q2 8 2.5 18t2.5 21h-83q5 59 8.5 120t4.5 118q61 -9 126 -9q27 0 52.5 2.5t45.5 12.5l-6 -52q-4 -32 -8 -66.5t-6 -66.5q-2 -29 -6 -59.5t-10 -59.5q-3 -14 -7 -29t-9 -30q-11 -34 -27.5 -69t-36.5 -67q-20 2 -39 2.5t-41 0.5 q-18 0 -39 -0.5t-39 -1.5z" />
<glyph unicode="-" horiz-adv-x="847" d="M156 455l8 -12q6 14 10.5 29.5t8.5 31.5q4 17 5.5 34t1.5 34q0 34 -7 61q72 -2 135.5 -2.5t136.5 -0.5q64 0 124.5 0.5t123.5 2.5q-5 -13 -8.5 -25.5t-6.5 -26.5q-3 -16 -5 -31.5t-2 -31.5q0 -31 8 -63q-72 2 -135.5 2.5t-136.5 0.5q-131 0 -261 -3z" />
<glyph unicode="." horiz-adv-x="576" d="M141 4q11 69 18.5 133.5t7.5 130.5v25t-1 25q36 -3 75 -4t77 -1q57 0 117 3q-11 -65 -17.5 -126.5t-6.5 -122.5q0 -7 0.5 -13.5t1.5 -13.5v-19q0 -7 -3 -7h-4q-11 0 -32 0.5t-43 0.5t-40 0.5t-23 0.5q-34 0 -66 -2t-61 -10z" />
<glyph unicode="/" horiz-adv-x="754" d="M20 -42q92 246 176 490.5t169 492.5q45 131 88.5 261t89.5 261q49 1 97 6.5t96 19.5q-93 -250 -175.5 -493.5t-167.5 -492.5l-171 -504h-34q-18 0 -33 -0.5t-30.5 -3t-33.5 -6.5t-40 -10z" />
<glyph unicode="0" horiz-adv-x="1185" d="M137 563q0 36 0.5 71.5t4.5 70.5l6 57q6 54 14 109.5t19 109.5q13 60 36 124t55 120q31 46 73 78t88.5 51.5t95 28.5t93.5 9h19q51 0 100.5 -10t93.5 -30t80.5 -49.5t60.5 -68.5q42 -82 56.5 -173t14.5 -185q0 -44 -2.5 -86.5t-4.5 -85.5q-5 -62 -12.5 -124.5 t-21.5 -125.5q-14 -67 -39 -134.5t-60 -130.5q-30 -45 -70.5 -78t-85 -54.5t-91.5 -31.5t-91 -10q-5 0 -11 0.5t-11 0.5q-51 0 -100 10.5t-93 31t-80.5 50t-61.5 68.5q-22 42 -36.5 89t-23 96.5t-12 100t-3.5 101.5zM298 715q0 -73 12 -143q8 -47 29 -84.5t52.5 -64.5 t71.5 -41.5t87 -14.5h15q4 0 7.5 -0.5t8.5 -0.5q40 0 81.5 14.5t77.5 40.5t63 61.5t40 76.5q12 30 20.5 60.5t14.5 60.5q8 40 13.5 78.5t9.5 76.5q2 29 3.5 58.5t1.5 58.5q0 63 -8.5 123t-34.5 112q-14 29 -37.5 50t-52.5 34.5t-62.5 20t-68.5 6.5h-20q-30 0 -62.5 -5.5 t-63 -18.5t-58 -33.5t-47.5 -50.5q-25 -42 -40.5 -84t-25.5 -86q-10 -48 -14 -94.5t-8 -92.5q-2 -29 -3.5 -59t-1.5 -59z" />
<glyph unicode="1" horiz-adv-x="1057" d="M89 22l9 -9q10 66 18.5 130.5t16.5 130.5q88 5 174 7t173 3l4 54q17 221 34 451t27 448q-29 -20 -66.5 -46t-67.5 -45q-44 -29 -88 -58.5t-88 -59.5q0 18 1 28t2 28l2 46t1 46l315 199h64q11 -1 21.5 -1.5t21.5 -0.5t23 -0.5t24 -0.5q-8 -121 -17 -240t-17 -240 q-11 -151 -22 -304t-20 -304q78 -2 163 -5t162 -8v-8v-6v-6v-6v-6v-6v-6v-6v-6v-6v-6v-5v-3v-3v-3v-3v-3v-3q-1 -11 -1.5 -20.5t-0.5 -18.5q0 -31 0.5 -61t1.5 -62v-6q-118 14 -237.5 19.5t-241.5 5.5q-195 0 -391 -15z" />
<glyph unicode="2" horiz-adv-x="1213" d="M104 23l9 -9q12 72 21 149l12 94l9 11q33 36 65.5 72.5t66.5 71.5q30 32 66.5 62t72.5 56q41 29 83.5 59t83.5 59q38 27 76 57t70 59q30 27 57.5 57.5t50.5 60.5q18 23 29 49.5t17 52.5q2 10 3.5 20.5t2.5 20.5q3 19 3 38q0 45 -18 83t-49 65t-72.5 42t-87.5 15h-22 q-43 0 -89 -11.5t-86 -41.5q-47 -35 -71.5 -80t-32.5 -90q-32 3 -55.5 7.5t-53.5 9.5l-42 7q1 8 2 12t3 13q13 60 44 118.5t86 98.5q65 48 138.5 64.5t144.5 16.5h24q71 -2 138.5 -14t125.5 -44q68 -38 99.5 -104t31.5 -142q0 -14 -1 -27t-3 -27q-1 -8 -2 -16.5t-3 -16.5 q-12 -57 -44 -112q-21 -36 -49 -72.5t-59 -73.5q-48 -58 -100.5 -117t-104.5 -115l-47 -37q-28 -22 -56 -44.5t-56 -48.5q-27 -25 -65 -49t-80 -48q17 0 40 0.5t46.5 1t46.5 0.5h40q117 0 230.5 -3t228.5 -10v-9q0 -30 -0.5 -58t-0.5 -56q0 -66 3 -138q-125 14 -252 19.5 t-258 5.5q-103 0 -205 -3.5t-205 -10.5z" />
<glyph unicode="3" horiz-adv-x="1166" d="M106 343v16l190 38q9 -41 34 -68.5t59.5 -44.5t75 -24.5t81.5 -7.5h9q24 0 50 1.5t51.5 5.5t51 13t49.5 24q33 19 54.5 51.5t23.5 67.5q1 6 1 11.5v10.5q0 53 -25 91.5t-64.5 64t-89.5 37.5t-100 12q-5 0 -10.5 -0.5t-10.5 -0.5h-87l4 66q1 17 1.5 31.5t2.5 31.5h82 q57 0 117.5 14t111.5 56q36 29 59.5 68.5t32.5 80.5q2 10 3 19l2 18q2 10 3 19.5t1 18.5q0 46 -20.5 84t-54 65t-77.5 41.5t-91 14.5h-7q-44 -1 -94 -11.5t-92 -41.5q-50 -37 -73 -85t-30 -94q-31 13 -69 20t-77 13q1 6 2.5 15.5t3.5 15.5q6 29 16.5 58.5t26.5 57.5t37 52.5 t48 43.5q66 47 142 63t148 16h18q88 -2 170.5 -21t144.5 -70q44 -36 64 -90.5t20 -115.5q0 -25 -3 -49q-2 -27 -6 -51q-11 -50 -38.5 -96t-67 -83.5t-89.5 -62.5t-104 -32l-4 -23q61 -3 114.5 -24.5t93.5 -58.5t63 -86.5t23 -109.5v-14.5t-1 -15.5q-1 -23 -3 -46.5t-7 -46.5 q-12 -56 -42.5 -110.5t-81.5 -92.5q-42 -26 -84 -41t-83.5 -23t-81.5 -10.5t-79 -2.5q-8 -1 -15 -1h-15q-78 0 -151.5 21t-130.5 62.5t-91.5 103t-34.5 141.5z" />
<glyph unicode="4" horiz-adv-x="1098" d="M19 331l5 46q2 20 4.5 40t4.5 40q52 71 104 143t103 143q115 158 229.5 315.5t233.5 313.5h70h52t54 2q-29 -446 -39 -887h144q-2 -45 -3 -80.5t-1 -76.5q-17 1 -28 1.5t-28 2.5t-34 3l-34 2l-13 -12q2 -78 7.5 -154.5t14.5 -153.5q-85 9 -163.5 12t-165.5 5 q11 77 23.5 153.5t25.5 153.5h-92q-120 0 -236.5 -2.5t-237.5 -9.5zM168 485q88 2 179 3t179 1h86q24 169 49 342t50 342l6 45l-18 1q-5 -11 -10 -17.5t-10 -14.5l-2 -3l-21 -34q-6 -11 -13.5 -22t-16.5 -24q-109 -146 -217 -292t-216 -294l-4 -5l-16 -10z" />
<glyph unicode="5" horiz-adv-x="1137" d="M112 314q39 13 72.5 22.5t72.5 21.5l56 18q10 -38 36.5 -61.5t61 -37.5t73.5 -20.5t75 -10.5q51 6 102.5 15t99.5 33q25 16 41 36.5t26 43t15.5 46t9.5 45.5q6 30 6 58q0 45 -14 85t-42 71q-36 41 -90 60.5t-114 19.5h-11q-65 0 -131.5 -25t-120.5 -73h-150 q26 186 45 370.5t27 366.5q118 -15 238.5 -21t244.5 -6q143 0 290 6l-13 -129q-73 -4 -141 -5t-140 -1q-84 0 -171.5 2.5t-170.5 6.5q-5 -54 -10.5 -113.5t-12 -120.5t-13.5 -120.5t-14 -113.5q70 55 145.5 76t144.5 21h5q85 0 161.5 -27t127.5 -87q51 -53 72.5 -124 t21.5 -149v-16.5t-1 -16.5q-2 -28 -5.5 -56t-9.5 -57q-13 -61 -39.5 -118.5t-77.5 -103.5q-36 -33 -77.5 -54t-85.5 -33t-88.5 -16.5t-87.5 -4.5h-17q-8 -1 -15 -1h-15q-73 0 -142.5 18t-124.5 54.5t-89 92.5t-36 133z" />
<glyph unicode="6" horiz-adv-x="1129" d="M130 527q0 37 2 74t5 72q6 63 14 127.5t22 127.5q15 73 43.5 148.5t72.5 142.5q28 43 66.5 75.5t82.5 54t91 32.5t92 11h13.5t12.5 -1q7 0 13.5 0.5t12.5 0.5q62 0 119 -17t102 -49.5t74.5 -79.5t37.5 -108q-23 -6 -41 -9t-41 -8q-17 -3 -33.5 -6.5t-33.5 -7.5 q-8 35 -28.5 64.5t-49.5 51.5t-65 34.5t-73 12.5h-13q-45 0 -88 -18.5t-79.5 -49t-65 -70.5t-43.5 -82q-12 -35 -21.5 -70t-17.5 -69q-10 -47 -16 -95.5t-10 -97.5l17 -2q24 43 59.5 76t77.5 55t87.5 33.5t88.5 11.5h19q81 0 151 -28t117 -84q46 -54 65 -124.5t19 -146.5 q0 -12 -0.5 -24t-1.5 -24q-3 -61 -15 -121q-12 -57 -38.5 -113.5t-70.5 -101.5q-30 -32 -66.5 -52.5t-76 -33.5t-79.5 -18t-78 -5h-18q-51 0 -99.5 9.5t-91.5 28.5t-79 48t-61 68q-49 78 -66 169.5t-17 187.5zM310 558q0 -51 15 -96t47 -79q35 -38 84 -58.5t106 -20.5h14 q47 0 97 13t93 46q39 35 59.5 74t28.5 77q5 26 6 49q3 18 3 35q0 49 -19.5 89t-53 68.5t-78 44.5t-94.5 16h-15q-48 -1 -102 -14t-98 -44q-36 -26 -57.5 -61.5t-29.5 -72.5q-2 -8 -2.5 -15.5t-1.5 -14.5q-1 -9 -1.5 -18t-0.5 -18z" />
<glyph unicode="7" horiz-adv-x="1032" d="M84 1263q0 37 0.5 67.5t0.5 67.5q109 -14 219.5 -20.5t225.5 -6.5q116 0 230.5 6.5t231.5 19.5l-6 -39q-4 -24 -7.5 -48t-6.5 -48l2 5q-75 -127 -148.5 -258t-142.5 -260q-62 -113 -108 -232.5t-71 -237.5q-14 -64 -21.5 -124t-8.5 -123q-54 3 -103 4t-101 1h-71 q4 32 8.5 64.5t11.5 64.5q22 103 61 204t92 200q94 177 210 346.5t247 336.5q-78 -4 -164.5 -7t-164.5 -3q-106 0 -209.5 4.5t-206.5 15.5z" />
<glyph unicode="8" horiz-adv-x="1180" d="M124 337q0 15 1 29.5t3 29.5q2 25 6 47q11 46 31.5 91t54.5 84q38 42 90.5 70.5t109.5 36.5l3 22q-54 13 -96.5 41.5t-68.5 70.5q-25 40 -37 87t-12 98q0 6 0.5 12t0.5 12q0 31 8 66q11 50 36 96.5t71 80.5q34 25 71.5 41t76.5 25t77.5 12t75.5 3h12q43 -1 86 -5.5 t83 -15t77 -27.5t68 -42q44 -35 66 -92.5t22 -119.5q0 -8 -0.5 -17t-1.5 -17l-6 -39q-9 -42 -28 -83t-49 -78q-31 -42 -79 -69t-101 -37l-4 -22q61 -11 111 -38t81 -72q29 -41 42 -91.5t13 -106.5q0 -7 -0.5 -13.5t-0.5 -13.5q-1 -47 -11 -96q-11 -53 -36.5 -103t-72.5 -88 q-36 -29 -75.5 -46.5t-80.5 -26.5t-83 -11.5t-82 -2.5h-23q-46 0 -92.5 4.5t-90.5 14.5t-83.5 28t-72.5 45q-48 40 -69 100t-21 126zM252 453q0 -23 20 -53t54 -57t80 -46t98 -19q20 0 40 3h25q30 0 60.5 1t62 4.5t64 11.5t65.5 22q36 18 56.5 51t28.5 70q2 7 3 9.5t1 8.5 q1 8 1.5 14t0.5 12q0 55 -26 96t-68 68t-94.5 40.5t-105.5 13.5h-20q-56 -2 -117.5 -13t-113.5 -45q-48 -32 -74.5 -74.5t-36.5 -86.5q-2 -8 -2.5 -16t-1.5 -15zM358 1055q0 -47 17 -87.5t47 -70.5t71.5 -47.5t90.5 -17.5q5 0 9.5 0.5t9.5 0.5q44 1 95.5 12t97.5 46 q35 32 52.5 69t25.5 75q3 14 5 26.5t3 23.5q5 25 5 44q0 46 -19.5 82.5t-51.5 62t-74.5 39.5t-88.5 14q-5 0 -9 -0.5t-9 -0.5q-23 0 -48 -2t-49.5 -7t-47.5 -13.5t-42 -22.5q-38 -34 -56 -69t-25 -68q-7 -29 -7 -57v-5q-1 -7 -1.5 -13.5t-0.5 -13.5z" />
<glyph unicode="9" horiz-adv-x="1146" d="M123 278l120 39l40 12t40 13q20 -39 61 -55t88 -16h19.5t19.5 2q29 2 60.5 6t63 14t60.5 27t53 45q35 51 52.5 106t29.5 112l27 126q-32 -33 -55.5 -46.5t-44.5 -23.5q-51 -19 -105.5 -25t-109.5 -10q-7 0 -15.5 -1t-16.5 -1q-71 4 -140.5 24.5t-120.5 61.5 q-22 23 -39 54.5t-29 67t-19.5 73t-9.5 72.5q2 27 5.5 60t9.5 60q12 57 38 111t73 98q33 31 73 52t82.5 33.5t85.5 17.5t83 5h7q48 0 95.5 -9.5t90 -28.5t78 -47t59.5 -65q44 -81 59.5 -173.5t15.5 -186.5q0 -38 -2 -76t-4 -75l-3 -26q-7 -66 -15 -132t-22 -132 q-14 -64 -36 -128.5t-55 -126.5q-26 -48 -66 -80.5t-87.5 -52.5t-98 -28.5t-97.5 -8.5h-17t-17 1q-8 -1 -17 -1h-17q-63 0 -120 17.5t-101.5 51t-73.5 82t-35 111.5zM281 974q0 -44 17.5 -80.5t46.5 -64.5q36 -34 86.5 -48.5t105.5 -14.5q35 0 72 7t72 24q25 12 53 27.5 t52 32.5q22 17 34 42.5t15 48.5q1 11 1.5 21.5t0.5 21.5q0 56 -13 108t-44 93q-32 45 -84.5 70t-114.5 25t-117 -18.5t-99 -59.5q-29 -30 -47 -67.5t-26 -75.5q-4 -20 -6.5 -39t-3.5 -37q0 -4 -0.5 -8t-0.5 -8z" />
<glyph unicode=":" horiz-adv-x="557" d="M108 19q3 45 6.5 88.5t7.5 88.5q2 27 5.5 55.5t5.5 56.5q26 1 45 1h45q42 0 83 -1t82 -3q-5 -76 -7 -146.5t-4 -145.5q-50 10 -99.5 13.5t-102.5 3.5q-19 0 -36.5 -1.5t-30.5 -9.5zM168 768q5 78 8.5 150.5t5.5 149.5q48 -11 96.5 -14.5t99.5 -3.5h35.5t35.5 1 q-7 -71 -12 -139.5t-12 -139.5q-29 -1 -50.5 -1h-49.5h-73q-22 0 -43 -0.5t-41 -2.5z" />
<glyph unicode=";" horiz-adv-x="532" d="M59 -350q57 71 99.5 150t59.5 160q3 14 5.5 30.5t4.5 34.5q-26 2 -55 2h-55h-16l32 279q45 -1 85.5 -2.5t85.5 -3.5l82 -2q-4 -29 -6 -54.5t-5 -54.5l-13 -116q-5 -41 -10 -81t-13 -80q-5 -23 -12 -48.5t-15 -49.5q-15 -44 -39.5 -89t-53.5 -87q-38 7 -80 9.5t-81 2.5z M173 778q12 69 20 143.5t13 150.5q50 -19 104 -26t110 -7h25.5t26.5 1q-7 -49 -11.5 -93.5t-10.5 -92.5l-12 -93q-19 -1 -31.5 -1h-31.5q-52 0 -102 4t-100 14z" />
<glyph unicode="&#x3c;" horiz-adv-x="1191" d="M24 571l3 -9q10 62 19.5 127.5t16.5 128.5l210 62q199 59 397.5 120.5t395.5 134.5q-2 -5 -4 -11t-3 -11q-10 -36 -19 -72.5t-17 -72.5q-146 -54 -287.5 -100.5t-288.5 -93.5l-248 -80l233 -133q121 -69 239 -137.5t235 -141.5v-44q-3 -39 -5.5 -79.5t-3.5 -79.5 q-64 40 -126.5 76t-125 71t-126.5 70t-130 71q-93 51 -183.5 101t-181.5 103z" />
<glyph unicode="=" horiz-adv-x="1330" d="M153 346q10 8 14.5 22.5t7.5 30.5q6 27 11 52.5t10 52.5q124 2 241 3.5t241 1.5q114 0 223 -1.5t223 -3.5q1 -42 3.5 -80.5t9.5 -80.5q-132 7 -257 9.5t-258 2.5q-235 0 -469 -9zM211 997q131 -8 256 -11t258 -3q116 0 229 2.5t231 7.5q-6 -23 -9.5 -40t-8.5 -40 q-5 -20 -8.5 -39.5t-6.5 -39.5q-124 -3 -241 -4.5t-240 -1.5q-228 0 -456 6q2 14 3 28t1 30q0 25 -2 51.5t-6 53.5z" />
<glyph unicode="&#x3e;" horiz-adv-x="1195" d="M119 160l26 47q9 35 17.5 69t16.5 69l5 23q137 49 275.5 95.5t275.5 91.5l269 88q-31 18 -65.5 37.5t-69.5 39.5t-70 39.5t-66 36.5q-113 63 -223 126t-218 133l6 84t5 83q130 -83 262 -156.5t268 -146.5q86 -47 170.5 -93t168.5 -95q-11 -64 -19 -124.5t-16 -123.5 l-140 -43q-221 -68 -439.5 -135t-438.5 -145z" />
<glyph unicode="?" horiz-adv-x="1071" d="M98 1027q1 9 2.5 14t3.5 15q7 33 18 66t27.5 64t39.5 59t53 50q42 31 85.5 49.5t87 28.5t85.5 13t83 3q46 0 92 -4.5t89 -14.5t82.5 -27t72.5 -43q46 -37 68.5 -93.5t22.5 -120.5q0 -14 -1 -28.5t-3 -28.5q-2 -26 -7 -46q-9 -44 -28 -86q-14 -28 -30 -54.5t-36 -49.5 q-30 -34 -64.5 -62t-70.5 -54l-75 -54q-26 -31 -46.5 -58.5t-38.5 -54.5q-16 -23 -26 -46.5t-15 -47.5q-3 -11 -3 -20q-34 1 -62 1h-62h-63t-63 -1q1 11 2 18t4 19q8 41 29.5 82t56.5 70l32 26q32 26 64.5 51t66.5 48q41 28 80.5 57t77.5 61q40 34 65 79t35 91q2 11 3 20 t2 17q-2 47 -15 91.5t-41 81.5q-15 21 -36.5 33.5t-46.5 19t-52 9t-54 2.5q-60 0 -122 -15.5t-116 -58.5q-45 -37 -72.5 -87t-38.5 -103l-36 5q-27 4 -53.5 6.5t-52.5 7.5zM245 -72q9 25 12.5 54.5t5.5 61.5q2 39 5.5 78t7.5 78q26 1 46 1h46q42 0 84 -1l84 -2 q-5 -71 -7 -136t-4 -135q-51 1 -93.5 1.5t-93.5 0.5h-46.5t-46.5 -1z" />
<glyph unicode="@" horiz-adv-x="1908" d="M132 407q0 22 1.5 43t3.5 42q4 42 10.5 86.5t15.5 86.5q18 85 46.5 166.5t71.5 160.5q56 103 140 189.5t190 143.5q118 63 241 88.5t242 25.5h20q73 0 144.5 -9t137.5 -29.5t124 -53t105 -79.5q81 -82 116 -187.5t35 -220.5q0 -26 -2 -53t-5 -53q-3 -36 -8.5 -72 t-13.5 -71q-19 -93 -56 -191q-20 -54 -55 -106.5t-81 -94t-100 -67t-112 -25.5h-11t-11 1h-13q-33 0 -63.5 10t-54 28t-37 44.5t-13.5 59.5q0 5 0.5 11t1.5 11l7 77h-22q-26 -50 -65 -93t-85.5 -74.5t-98 -50t-102.5 -18.5h-20q-65 0 -120.5 22t-89.5 70q-32 45 -44.5 100.5 t-12.5 115.5q0 13 0.5 25.5t1.5 25.5q5 55 15 105q11 47 27 93t39 93q32 61 76.5 115.5t101.5 93.5q56 38 117.5 57t122.5 19h18q44 0 84.5 -12t73.5 -34t57.5 -54.5t36.5 -72.5h20q5 20 13 42.5t15 42.5l24 70q35 0 64.5 1t64.5 1q-41 -123 -78 -238.5t-72 -238.5 q-12 -31 -22 -63t-18 -65q-4 -18 -6 -36t-4 -35q-1 -3 -1 -6.5v-6.5q0 -34 20 -61t56 -27h11q35 0 71.5 10.5t69.5 32.5q23 15 40 34.5t30.5 41.5t24 45t19.5 46q13 33 22.5 67.5t17.5 69.5q7 32 11.5 65t7.5 65q3 36 3 74q0 63 -10 124t-32 114q-30 73 -83.5 124.5 t-122.5 84.5t-148.5 48t-161.5 15h-8q-105 -2 -214.5 -22.5t-213.5 -75.5q-95 -51 -169.5 -130.5t-125.5 -170.5q-39 -72 -64.5 -145t-41.5 -147q-8 -40 -14 -78.5t-9 -76.5q-3 -32 -3 -64q0 -69 14 -133.5t47 -118.5q35 -56 86.5 -101t117.5 -68q75 -27 156.5 -35.5 t164.5 -9.5q68 0 140.5 3.5t141.5 11.5q63 8 130 33.5t123 67.5q22 -45 43.5 -83.5t44.5 -82.5q-75 -42 -154 -70.5t-159 -46t-160.5 -25.5t-158.5 -8q-110 0 -213.5 19.5t-194.5 66.5q-77 40 -138.5 105t-94.5 146q-23 67 -35 148t-12 162zM589 560q0 -32 8.5 -61.5 t31.5 -50.5q15 -14 33 -23t38.5 -14t41.5 -8t42 -5l24 -2q59 9 113.5 37.5t99.5 71t79.5 94.5t52.5 108l21 93q9 42 15 90q-5 29 -23.5 52.5t-46.5 34.5q-35 11 -77.5 17.5t-82.5 9.5q-48 -10 -93 -29t-87 -48q-42 -30 -76 -69.5t-56 -82.5q-15 -31 -28 -65.5t-20 -67.5 q-6 -29 -9 -59q-1 -6 -1 -11.5v-11.5z" />
<glyph unicode="A" horiz-adv-x="1462" d="M48 12q87 139 165 280t151 282.5t142 284t137 284.5q27 57 55.5 116t56.5 116q52 -2 101 -2.5t102 -0.5q36 -117 69 -231.5t65 -233.5l17 -64q59 -214 120.5 -422.5t140.5 -408.5q-62 6 -114 8.5t-109 2.5h-31q-17 64 -30.5 131t-26.5 133q-73 1 -149 1.5t-149 0.5 q-82 0 -167.5 -1t-168.5 -3q-24 -63 -49.5 -128t-51.5 -128q-72 -4 -138 -7.5t-138 -9.5zM494 529q64 1 132.5 1.5t138.5 0.5h138.5h132.5l-124 491q-11 35 -19.5 73t-19.5 78l-21 78l-17 6q-18 -59 -47 -118t-54 -119l-80 -166q-38 -78 -79.5 -162.5t-80.5 -162.5z" />
<glyph unicode="B" horiz-adv-x="1320" d="M144 26q45 308 73.5 614.5t28.5 608.5q0 38 -0.5 75t-1.5 74q121 -13 244 -19t248 -6q64 0 127.5 -10t116.5 -37q68 -35 98.5 -96.5t30.5 -130.5q0 -22 -3 -44q-2 -14 -3.5 -28.5t-4.5 -28.5q-8 -38 -23.5 -76.5t-39 -72t-56 -60t-74.5 -39.5l-2 -18q63 -3 115.5 -27 t90 -64t58.5 -93.5t21 -113.5q0 -8 -0.5 -17t-1.5 -20q-1 -22 -3 -45t-7 -45q-11 -54 -38.5 -104.5t-77.5 -86.5q-42 -26 -87 -42t-90.5 -24t-89 -10.5t-82.5 -2.5h-138q-108 0 -214 -2.5t-215 -8.5zM343 279q65 2 134 3t133 1h49.5t48.5 -1q8 0 15 0.5t15 0.5q26 1 52.5 2 t53.5 5.5t53 13.5t52 25q32 20 50.5 51t25.5 63l4 36q0 5 0.5 8.5t0.5 7.5q0 54 -27 89t-69 54.5t-93 27t-99 7.5h-17h-173.5t-173.5 -1q-7 -94 -16 -196.5t-19 -196.5zM388 825q71 -1 145.5 -1h145.5q50 0 101 9.5t99 41.5q42 33 62.5 71.5t28.5 76.5q2 10 3 19.5t3 17.5 q3 19 3 36q0 47 -23.5 81t-60 55.5t-82 31.5t-90.5 10h-13q-74 0 -152.5 2.5t-150.5 5.5q-2 -109 -7 -228t-12 -229z" />
<glyph unicode="C" horiz-adv-x="1383" d="M131 627q0 21 1 42t3 42q4 42 10 85.5t15 85.5q19 89 59 177t111 159q49 49 109 82.5t124.5 53.5t130 28.5t125.5 8.5q16 0 31 0.5t31 0.5q50 0 98 -4t96 -16q47 -11 92.5 -31.5t82.5 -49.5l-20 -149q-55 27 -111.5 51t-116.5 41q-45 13 -92 19t-98 7h-8 q-45 0 -93.5 -8.5t-96 -26.5t-91 -46t-77.5 -67q-52 -58 -84.5 -129.5t-47.5 -140.5q-7 -33 -9.5 -68t-4.5 -70q4 -45 10 -90t19 -87t35.5 -78t58.5 -62q34 -25 72.5 -41.5t80 -27t84.5 -16t87 -8.5q6 0 12 -0.5t12 -0.5q52 0 105.5 13.5t103.5 39t95.5 62t81.5 81.5 q-4 -67 -5.5 -124.5t-1.5 -117.5q0 -24 0.5 -47t1.5 -49v-33q-37 -29 -78 -53.5t-85 -34.5t-85 -13t-83 -3q-16 0 -30.5 0.5t-30.5 0.5h-28q-67 1 -133 11.5t-127 31.5t-114.5 53t-95.5 77q-35 44 -59.5 96.5t-40.5 109t-23.5 115.5t-7.5 118z" />
<glyph unicode="D" horiz-adv-x="1478" d="M147 25q48 298 76.5 593t28.5 586q0 49 -1 97.5t-3 97.5q110 -11 220.5 -17t224.5 -8q73 -2 146.5 -10.5t141.5 -27.5t129 -50.5t110 -78.5q37 -36 62 -80t40.5 -93.5t22 -103.5t6.5 -109q0 -26 -1.5 -51t-3.5 -51q-3 -38 -8.5 -77.5t-13.5 -78.5q-19 -89 -59 -178 t-105 -164q-50 -51 -107.5 -86t-118.5 -57t-122.5 -31.5t-119.5 -9.5h-75q-118 0 -234.5 -2.5t-235.5 -9.5zM354 346q75 2 154.5 3t154.5 1h6q43 0 88 5.5t90 18t88.5 33t82.5 50.5q72 63 111.5 135t54.5 145q4 19 6.5 37.5t4.5 35.5q3 28 3 56q0 77 -24.5 145.5 t-80.5 115.5q-42 35 -90 57.5t-100.5 35t-107.5 18t-109 6.5q-66 2 -138 4t-138 5q-2 -232 -17.5 -456.5t-38.5 -450.5z" />
<glyph unicode="E" horiz-adv-x="1233" d="M133 26q51 309 81 619t30 619q0 34 -0.5 67.5t-1.5 66.5q129 -14 262.5 -20t267.5 -6q89 0 180 1.5t181 6.5q-3 -19 -4.5 -34t-3.5 -32l-9 -66q-90 -4 -173.5 -5.5t-172.5 -1.5q-90 0 -183.5 2.5t-181.5 6.5q-2 -111 -8 -231t-14 -232h187h211.5t211.5 1l-12 -128h-140 h-233.5t-233.5 -1q-2 -21 -4 -47t-4 -47l-17 -188q63 1 130 1.5t130 0.5q118 0 235 -2t234 -7q-2 -46 -3 -90.5t-1 -89.5t1 -89t3 -88q-129 13 -262 19t-267 6q-103 0 -207 -3.5t-209 -8.5z" />
<glyph unicode="F" horiz-adv-x="1181" d="M130 25q58 348 98.5 690t53.5 683q107 -14 214.5 -20.5t219.5 -6.5q114 0 227 6.5t228 18.5q-5 -25 -7 -46.5t-6 -45.5l-7 -43q-115 -12 -224 -16.5t-220 -4.5q-54 0 -106 1t-105 3l-12 -11q-12 -110 -26.5 -223.5t-30.5 -224.5h110h197t198 2q-1 -25 -3.5 -47t-4.5 -47 q-3 -27 -5.5 -54.5t-3.5 -54.5q-69 2 -132 2h-133h-120t-120 -1l25 -549q-32 16 -69 19t-64 3h-19q-27 0 -45 -4.5t-34 -10t-33 -11t-41 -7.5z" />
<glyph unicode="G" horiz-adv-x="1467" d="M135 606q0 26 1.5 52.5t3.5 52.5q4 45 10 90.5t16 90.5q19 87 58.5 174t109.5 156q51 51 111.5 83.5t125 51.5t130 26.5t127.5 7.5h7q44 -1 88 -2.5t87 -7t83.5 -15t77.5 -27.5q51 -24 91 -63t66 -88q-25 -25 -51.5 -50.5t-51.5 -49.5q-21 54 -59.5 93t-88.5 65 t-108 38.5t-118 12.5h-37q-47 0 -96.5 -10.5t-96.5 -31.5t-88.5 -53.5t-71.5 -76.5q-43 -63 -70.5 -133.5t-41.5 -139.5q-8 -38 -13 -74.5t-8 -71.5q2 -83 25.5 -159t72.5 -137q28 -35 65 -59t79.5 -40.5t88.5 -26.5t92 -16q8 -1 16 -1h16q40 0 81 9.5t81.5 27.5t78.5 44 t71 59q0 12 0.5 26t1.5 27q2 13 3 30t2 30q-69 1 -141.5 1h-141.5q4 46 6.5 92t6.5 91h240h120.5t121.5 1q-9 -117 -14.5 -230.5t-5.5 -227.5v-27q-13 -30 -34 -54t-47 -43.5t-55 -34t-59 -24.5q-79 -26 -159.5 -37t-160.5 -11h-24q-69 0 -137 9.5t-130.5 30.5t-117.5 54 t-98 80q-39 42 -65 90.5t-42 102t-23 110t-7 113.5z" />
<glyph unicode="H" horiz-adv-x="1484" d="M130 22q69 340 107.5 675t38.5 667v35l24 -3q47 -5 94 -8.5t94 -5.5q-4 -158 -15.5 -315t-28.5 -317h319t319 1q7 154 17.5 311t21.5 312q56 1 104 2.5t105 4.5q-25 -237 -42 -471t-17 -467q0 -109 4.5 -216.5t14.5 -214.5q-69 7 -131 10t-132 7l7 -8q2 131 11 262 t23 265q-78 1 -159 1h-159h-160.5t-160.5 -1q-8 -126 -16.5 -256.5t-17.5 -257.5q-69 -2 -133 -4.5t-132 -7.5z" />
<glyph unicode="I" horiz-adv-x="507" d="M55 34l37 234q34 282 65.5 564.5t53.5 563.5q42 -14 89.5 -18.5t94.5 -5.5q-6 -121 -13.5 -252.5t-15.5 -251.5q-14 -215 -26.5 -427t-17.5 -427q-44 11 -93 17t-99 6q-38 0 -75 -3z" />
<glyph unicode="J" horiz-adv-x="986" d="M23 -460l17 164q5 50 10 99t10 99q18 -16 40.5 -30.5t46.5 -22.5q17 -6 34.5 -8t34.5 -2h15.5t15.5 1q36 1 75.5 15.5t71.5 37.5q41 56 63.5 115.5t36.5 122.5q6 29 10 58t9 58q0 2 0.5 2.5t0.5 2.5q9 60 21 116l145 997q30 -3 55.5 -3.5t57.5 -0.5q30 0 58.5 1t57.5 3 q-72 -370 -132.5 -738.5t-111.5 -737.5l-7 -32q-7 -33 -17 -67.5t-25 -66.5t-36.5 -60t-52.5 -50q-60 -43 -128 -62t-134 -25q-5 0 -11.5 -0.5t-11.5 -0.5h-60q-3 0 -3.5 -0.5t-1.5 -0.5q-2 -1 -10 -1q-10 0 -21.5 1t-16.5 1h-30.5t-25.5 1.5t-24 4.5t-26 9z" />
<glyph unicode="K" horiz-adv-x="1412" d="M131 22q66 343 106 680.5t40 673.5v23q14 -1 23 -2t22 -2q26 -3 52.5 -5.5t53.5 -4.5q-5 -165 -19.5 -336.5t-34.5 -351.5q172 168 353.5 341t359.5 335q58 2 110.5 3.5t109.5 4.5q-189 -174 -366.5 -348.5t-360.5 -355.5q170 -168 342.5 -333.5t344.5 -330.5 q-61 6 -117 9.5t-111.5 6t-112 4t-117.5 3.5l7 -3q-93 132 -182 269t-175 274l-68 -26q-7 -128 -15.5 -258.5t-18.5 -258.5q-60 -2 -113 -4t-113 -7z" />
<glyph unicode="L" horiz-adv-x="1051" d="M119 24l8 -10q59 348 100 695.5t46 688.5q45 -6 89.5 -10.5t91.5 -6.5q-12 -275 -40 -548.5t-62 -551.5q51 2 105 2.5t105 0.5q115 0 227.5 -3t226.5 -11q-1 -28 -1.5 -55t-0.5 -54q0 -73 3 -149q-124 14 -249 19.5t-254 5.5q-99 0 -197 -3t-198 -10z" />
<glyph unicode="M" horiz-adv-x="1870" d="M138 19q10 42 17.5 77.5t16.5 77.5q57 271 87.5 536t30.5 529q0 78 -3 158q78 -7 149 -10.5t149 -6.5q80 -180 147.5 -365.5t132.5 -373.5l70 -200l96 187q97 189 194 375t208 371q60 1 116 4.5t116 3.5q13 0 24.5 1t24.5 1q-32 -228 -53.5 -455t-21.5 -453 q0 -118 7 -234t22 -231q-78 6 -149.5 9.5t-150.5 6.5l9 -8q2 287 37 575t86 581l-18 3q-126 -262 -238.5 -526.5t-218.5 -530.5q-57 1 -110 1h-110q-29 100 -56 196t-54 196l-8 30q-44 161 -89.5 321.5t-100.5 317.5l-20 -6q2 -55 3 -109.5t1 -109.5q0 -232 -14.5 -463 t-37.5 -464q-77 -3 -146 -5.5t-145 -6.5z" />
<glyph unicode="N" horiz-adv-x="1563" d="M131 21q72 348 114 692.5t42 684.5q61 -7 116.5 -10.5t117.5 -6.5q121 -176 239.5 -367.5t228.5 -374.5l157 -259l18 7q24 499 90 990q43 2 84 4t83 4q-46 -286 -75.5 -568.5t-29.5 -562.5q0 -61 2 -121.5t5 -120.5q-75 7 -145 10.5t-145 7.5q-5 0 -11 0.5t-12 0.5l7 -4 q-87 160 -164 324t-152 331q-56 125 -113.5 249t-117.5 246l-19 -7q3 -110 3 -220q0 -229 -9 -457.5t-22 -458.5q-77 -2 -146.5 -4.5t-145.5 -8.5z" />
<glyph unicode="O" horiz-adv-x="1573" d="M139 630q0 42 3 81q5 42 10.5 86t14.5 87q19 88 59.5 176.5t109.5 158.5q49 50 108.5 83.5t122.5 53t128 27.5t125 8h23q66 0 130.5 -9.5t124 -30t111 -52t90.5 -76.5q37 -42 63 -91.5t42 -103t23.5 -110.5t7.5 -114q0 -24 -1.5 -48t-3.5 -47q-3 -41 -9 -81.5t-14 -81.5 q-19 -88 -58.5 -177.5t-102.5 -164.5q-51 -52 -109 -88t-119.5 -58t-124 -32t-120.5 -10q-8 0 -15.5 0.5t-15.5 0.5h-10q-66 0 -131.5 10t-125.5 30.5t-112.5 52.5t-93.5 77q-35 45 -59.5 97.5t-40 109.5t-23 117t-7.5 119zM303 701q0 -39 5 -78t17 -74.5t31.5 -65.5 t49.5 -52q71 -52 162.5 -71.5t187.5 -19.5q45 0 91 3t92.5 12t92.5 26t89 45q60 44 91 104.5t45 124.5q6 29 9.5 56.5t5.5 53.5q2 19 3 37.5t1 37.5q0 82 -21.5 157t-72.5 133q-30 35 -69.5 60t-84.5 40.5t-94.5 22.5t-100.5 7h-13q-46 0 -95 -6t-96.5 -20.5t-92.5 -39.5 t-83 -63q-55 -54 -86 -119t-45 -133q-6 -29 -10 -59t-6 -57q-3 -32 -3 -62z" />
<glyph unicode="P" horiz-adv-x="1294" d="M122 -1q75 357 126 709.5t68 706.5q124 -17 242 -23t235 -7q49 0 98.5 -4.5t96 -16t88.5 -30.5t77 -48q51 -42 73.5 -106.5t22.5 -136.5q0 -16 -1 -31.5t-3 -31.5q-3 -27 -9 -58q-16 -72 -52.5 -141.5t-97.5 -123.5q-36 -32 -78 -54.5t-86 -36.5t-89.5 -20t-87.5 -6h-5 h-134t-134 -1q-13 -100 -28 -204.5t-29 -204.5l-17 -116q-32 -1 -66.5 -2.5t-70.5 -3.5t-71.5 -4t-67.5 -5zM504 783h264q28 0 59 2.5t62.5 9.5t63 20t61.5 34q30 26 48 60.5t25 68.5q5 20 6 38q1 7 1.5 13.5t0.5 14.5q0 42 -17.5 80.5t-54.5 65.5q-49 28 -110 37t-121 9 q-63 0 -120 0.5t-120 3.5q-11 -118 -22 -228t-26 -229z" />
<glyph unicode="Q" horiz-adv-x="1540" d="M97 630q0 40 3 81q2 45 7.5 90.5t15.5 91.5q18 85 58 170t108 154q49 51 109 83.5t124.5 51t130 26t127.5 7.5h7q68 0 134.5 -9t128 -29t115.5 -51.5t96 -77.5q38 -41 64.5 -88.5t42.5 -99.5t23 -106.5t7 -110.5q0 -53 -6 -107l-5 -34q-6 -44 -12.5 -89t-15.5 -88 q-13 -60 -32 -116.5t-50 -111.5q-22 -40 -56 -70.5t-75.5 -53t-86.5 -37.5t-89 -23l9 -30q7 -25 15 -51t20.5 -49.5t30 -42.5t44.5 -30q39 -9 82 -14t85 -7q8 -1 19 -1h19q13 0 28 0.5t28 2.5l-37 -71q-15 -29 -30.5 -58t-29.5 -58q-29 -5 -59.5 -7t-59.5 -2h-22.5t-21.5 1 q-69 4 -132 26t-111 65q-57 53 -98 120.5t-73 141.5q-48 1 -96 6.5t-94 16.5t-88 27.5t-78 40.5q-61 40 -103.5 97.5t-69 125.5t-38.5 144t-12 153zM259 693q0 -40 4.5 -81t16 -78.5t30 -70.5t46.5 -58q48 -37 111.5 -61t138.5 -24h4q-5 23 -10 54.5t-8 55.5 q-2 16 -3.5 30.5t-3.5 31.5q66 13 125 25t124 25l28 -194l73.5 24.5l73.5 24.5q44 19 79.5 49.5t62 67.5t44.5 79t27 85q7 33 9 64q2 20 3 38.5t1 38.5q0 85 -21.5 161.5t-72.5 136.5q-31 36 -71.5 62t-87 42t-97 24t-102.5 8h-6q-46 0 -95.5 -6t-98 -21.5t-94 -41 t-82.5 -64.5q-51 -52 -83.5 -119t-46.5 -131q-7 -33 -11 -66t-6 -65q-1 -11 -1 -23v-23z" />
<glyph unicode="R" horiz-adv-x="1417" d="M139 24q48 294 76.5 582.5t28.5 574.5q0 55 -1.5 109t-3.5 108q139 -13 281.5 -18.5t285.5 -6.5q7 1 13.5 1h13.5q66 0 119 -24t90.5 -65.5t58 -97t20.5 -117.5q0 -19 -2 -37.5t-6 -38.5q-2 -12 -3.5 -23.5t-3.5 -22.5q-11 -48 -31.5 -94.5t-47.5 -89.5q-14 -21 -30 -43 t-35.5 -42t-43.5 -37t-53 -27q113 -151 229.5 -304t237.5 -298q-55 4 -106 7.5t-101.5 6t-101.5 4t-107 3.5l7 -3q-68 103 -132.5 214.5t-125.5 219.5l-59 106h-189q2 -91 3.5 -185.5t1.5 -184.5v-166q-74 -2 -141 -4t-142 -7zM415 772q36 0 76.5 -0.5t77.5 -0.5h146 q43 0 84 20.5t75 51.5q35 32 59 74.5t25 84.5q0 13 1 20.5t1 14.5q0 45 -14.5 84t-46.5 68q-31 28 -70 46.5t-86 18.5q-75 1 -154.5 3t-153.5 5q-1 -118 -6.5 -245t-13.5 -245z" />
<glyph unicode="S" horiz-adv-x="1360" d="M105 336q60 28 116 54t116 52q8 -21 18 -41t23.5 -37.5t32 -29.5t43.5 -16q47 -8 95.5 -9.5t97.5 -2.5h18q14 1 28 1h28q42 0 84 2.5t88 17.5q26 11 48 35.5t36 51.5q2 4 2 7.5t1 7.5q2 13 3 24t1 22q0 27 -11 46q-17 31 -49 55q-23 17 -50.5 28t-55.5 18l-81 19 q-20 5 -40.5 10t-40.5 10l-14 3q-56 14 -113 29.5t-106 37.5q-33 15 -63.5 35t-56.5 45q-38 42 -58.5 96.5t-20.5 117.5v14t1 14q0 40 7 74q7 33 21.5 65.5t35.5 61t49.5 51t64.5 36.5q81 32 158.5 40.5t152.5 8.5h25q47 -1 94 -3.5t92.5 -9t88.5 -19.5t81 -34 q61 -34 93 -92.5t44 -128.5l-161 -32q-8 55 -38 93t-73.5 62t-96 34.5t-106.5 10.5h-40q-56 0 -112.5 -8t-111.5 -34q-51 -24 -78 -62t-35 -79q-4 -19 -4 -38v-12q0 -27 6.5 -52.5t22.5 -46.5q17 -24 42 -41t51 -31q44 -20 91.5 -33.5t93.5 -24.5l56 -14q16 -3 30.5 -6.5 t30.5 -7.5q67 -15 135.5 -35.5t125.5 -55.5q74 -45 110 -117t36 -155v-14t-1 -15v-10q0 -32 -8 -70q-12 -59 -45 -114t-89 -90q-49 -31 -101 -48.5t-105 -26t-106.5 -11t-104.5 -2.5h-33q-86 0 -174.5 15t-161 52t-120.5 98t-53 154z" />
<glyph unicode="T" horiz-adv-x="1243" d="M70 1383v16q140 -14 277 -21t282 -7q143 0 286.5 6.5t287.5 19.5q-14 -74 -24 -144l-2 -12q-65 -2 -124 -2.5t-125 -0.5q-107 0 -213 3l-22 -211q-9 -174 -15 -348t-6 -348q0 -154 6 -304q-71 4 -135 5t-135 2q14 153 31.5 305t34.5 306q17 147 34 297t31 296 q-63 -2 -131 -3.5t-131 -1.5q-51 0 -102.5 1t-101.5 3q-1 37 -1 72t-2 71z" />
<glyph unicode="U" horiz-adv-x="1465" d="M158 444q0 35 3 71q18 180 29 358t11 355q0 86 -3 170q41 -5 76.5 -7t76.5 -5v-62q0 -155 -6 -309t-16 -310q-1 -10 -1 -20v-20q0 -60 13.5 -116t45.5 -103q27 -34 60 -56.5t70 -36t77 -19t80 -5.5h7q35 0 72.5 4t74.5 14.5t72 28t67 44.5q48 41 73.5 93.5t36.5 107.5 q5 23 8 46.5t5 44.5q14 167 31 332t40 333q48 2 91.5 5t91.5 6q-38 -211 -62 -430.5t-39 -427.5q-3 -50 -14 -100q-16 -75 -49.5 -148t-96.5 -131q-45 -42 -95 -68t-102 -41t-104.5 -20.5t-101.5 -5.5h-17q-53 0 -106.5 7.5t-103.5 22.5t-95.5 38t-82.5 54q-62 60 -89.5 140 t-27.5 166z" />
<glyph unicode="V" horiz-adv-x="1451" d="M82 1397q24 -3 44.5 -5t41 -3.5t41.5 -2.5t45 -2q88 -184 171 -383.5t160 -390.5l76 -188l60 110q115 215 235 428.5t257 424.5q34 2 65.5 4.5t65.5 5.5l53 4q-96 -168 -181.5 -339t-163.5 -343.5t-149.5 -346t-140.5 -347.5q-54 9 -115 11t-124 3q-49 141 -91.5 280 t-84.5 282q-60 201 -124 403t-141 395z" />
<glyph unicode="W" horiz-adv-x="2099" d="M119 1398q47 -4 84.5 -6t85.5 -4q49 -117 91 -241.5t79.5 -253.5t72 -261t68.5 -265q74 133 151.5 276.5t149.5 277.5l80 148h115l85 -218q22 -58 46.5 -120t49 -124.5t50 -124t49.5 -118.5q96 265 204.5 524t242.5 501q48 2 90 5t90 6q-183 -338 -306 -685t-189 -693 h-11q-78 3 -154.5 6t-154.5 5q-24 78 -44.5 161t-38.5 167.5t-34 168.5t-31 165l-21 111l-17 -2q-69 -192 -139 -383.5t-140 -383.5q-52 0 -99 -0.5t-99 -1.5q-23 0 -48 -0.5t-48 -0.5l-40 225q-26 146 -53 291.5t-58.5 289t-70.5 283.5t-88 275z" />
<glyph unicode="X" horiz-adv-x="1544" d="M97 20q141 151 268 300t255 308l84 104q-105 169 -212.5 335.5t-219.5 329.5q19 -2 34.5 -3t30 -2t30 -2t35.5 -2l49 -4q91 -130 178 -265t171 -269q102 131 208 264.5t214 259.5h143l5 3q13 1 25.5 1.5t23.5 2.5q-134 -152 -256 -305t-246 -311l-30 -38l71 -100 q109 -156 220.5 -311t229.5 -304q-43 3 -82 6t-77 5t-77.5 3.5t-82.5 3.5l7 -4q-82 130 -161 269t-151 276q-90 -134 -184.5 -271t-190.5 -267q-78 -2 -156 -5.5t-156 -7.5z" />
<glyph unicode="Y" horiz-adv-x="1368" d="M81 1397q50 -5 89 -8.5t89 -5.5q100 -161 196.5 -327t189.5 -331l60 85q103 146 207.5 289.5t216.5 284.5q48 3 94.5 7t94.5 8q-146 -198 -279.5 -406.5t-264.5 -419.5l-42 -66q5 -120 13.5 -240t22.5 -238q-87 5 -166.5 6.5t-166.5 1.5q13 72 24.5 140.5t24.5 139.5 l35 194l-58 121q-94 197 -185.5 385.5t-194.5 379.5z" />
<glyph unicode="Z" horiz-adv-x="1379" d="M88 21q13 79 23.5 153t20.5 153q85 88 170 178t168 178q125 132 256 270.5t258 268.5q-34 0 -78 -0.5t-78 -0.5q-143 0 -284 4t-281 15q-1 37 -1 72t-2 71v16q145 -14 285.5 -20.5t289.5 -6.5q97 0 199.5 2t200.5 7q-2 -13 -2.5 -21t-2.5 -21q-4 -26 -7 -50t-6 -50 q-120 -135 -234.5 -270t-229.5 -273q-6 -8 -12 -15t-13 -15q-66 -79 -136 -163t-136 -161q44 1 95.5 1h95.5q135 0 267.5 -2.5t266.5 -8.5q-1 -26 -1 -51v-51q0 -60 3.5 -116t17.5 -104q-152 14 -304 20.5t-307 6.5q-125 0 -250.5 -4t-251.5 -12z" />
<glyph unicode="[" horiz-adv-x="743" d="M71 -359q70 452 132.5 909.5t104.5 914.5q78 -28 162.5 -39t171.5 -11h33t33 1q-3 -20 -4 -34t-5 -34q-3 -17 -6 -35t-5 -35q-19 -1 -32 -1h-32q-38 0 -76 1.5t-78 6.5q-11 -93 -23 -190t-24 -195.5t-24 -195.5t-24 -190q-22 -170 -43 -341.5t-41 -341.5q55 -5 108 -13 t104 -21q-6 -53 -10 -101t-8 -100q-80 26 -165 36.5t-175 10.5q-19 0 -37.5 -0.5t-36.5 -1.5z" />
<glyph unicode="\" horiz-adv-x="525" d="M32 1457q40 -8 80.5 -11t82.5 -7q41 -171 74 -340.5t67 -343.5q38 -192 75 -382t84 -379q-36 5 -71.5 9t-69.5 4q-7 0 -13.5 -0.5t-12.5 -0.5q-43 186 -80 371t-72 373q-35 181 -69 355t-75 352z" />
<glyph unicode="]" horiz-adv-x="724" d="M35 -361q11 26 15.5 57t8.5 63l10 74h59q38 0 79.5 -2t78.5 -4q8 87 18 183t20.5 194t21 194.5t20.5 184.5q19 174 38 349.5t36 349.5q-55 5 -108.5 13t-104.5 22q4 26 5 47t3 46l2 53q78 -24 163 -34.5t173 -10.5h33t33 1l-46 -386q-43 -361 -83 -719.5t-63 -716.5 q-81 24 -166.5 33.5t-176.5 9.5h-34.5t-34.5 -1z" />
<glyph unicode="^" horiz-adv-x="1080" d="M64 660q59 82 111 166.5t100 170.5t93 173.5t90 174.5l15 29q11 0 24.5 -0.5t22.5 -0.5q29 -1 58.5 -1h58.5h43q29 -64 54.5 -126.5t51.5 -128.5q47 -118 96.5 -232.5t112.5 -223.5q-55 4 -100.5 5t-98.5 3q-6 0 -11.5 0.5t-11.5 0.5q-32 93 -59.5 187t-53.5 191 q-9 32 -19 68t-20.5 72.5t-21.5 72t-21 67.5q-5 -12 -12.5 -28t-15.5 -33.5t-15.5 -34t-12.5 -28.5q-29 -64 -60.5 -133.5t-64.5 -138.5t-66.5 -136t-66.5 -127q-53 -2 -100.5 -4t-99.5 -5z" />
<glyph unicode="_" horiz-adv-x="1461" d="M168 -399q38 34 45 73q3 12 3 25q0 34 -19 63q70 -1 136 -1.5t131.5 -1t131.5 -0.5h137q302 0 607 3q-22 -27 -30 -59q-2 -6 -2 -12v-12q0 -36 18 -61q-74 1 -144 1.5t-139 1t-139.5 0.5h-144.5q-149 0 -296.5 -3t-294.5 -17z" />
<glyph unicode="`" horiz-adv-x="489" d="M29 1483q55 -3 103 -4.5t104 -1.5q26 -35 47.5 -68.5t44.5 -69.5l11 -18q20 -32 40.5 -62.5t43.5 -59.5q1 -5 1.5 -11t2.5 -11l1 -8q-29 2 -51 2.5t-51 1.5l5 -2q-54 44 -104 91t-101 94l-94 87z" />
<glyph unicode="a" horiz-adv-x="1215" d="M123 241q0 16 1.5 32t3.5 32v6q2 11 3.5 22t4.5 20q6 31 19 63.5t32 61.5t44 54t56 43q81 40 155 52.5t143 12.5h239l6 88q1 7 1.5 13.5t0.5 13.5q0 37 -7.5 72t-28.5 63q-35 40 -82 53t-96 14h-19q-34 0 -67.5 -4.5t-68.5 -19.5q-24 -12 -40.5 -28t-27.5 -34.5 t-17.5 -37.5t-9.5 -37q-26 2 -45 5t-44 7q-14 3 -29.5 5t-30.5 4q-2 0 -3 0.5t-3 0.5q4 30 15.5 61t29.5 59t42.5 50.5t56.5 36.5q65 29 128 37t120 8h17q66 0 127.5 -11.5t114.5 -39.5q66 -41 94 -104t28 -135q0 -26 -3 -51q-9 -95 -16 -189.5t-13 -188.5l1 -18 q2 -26 5 -52.5t11 -50.5q9 -23 31 -35.5t48 -12.5h12q9 0 18 0.5t18 1.5v-31q0 -36 1.5 -69t3.5 -70q-38 -6 -77 -6q-11 0 -20.5 0.5t-19.5 1.5h-12q-41 0 -73 16t-54 43t-34 62.5t-12 74.5v11t1 12h-22q-26 -53 -66.5 -94t-88.5 -69t-101 -43t-104 -15q-5 0 -10.5 0.5 t-11.5 0.5q-30 0 -60.5 2.5t-58.5 9.5t-53.5 20t-44.5 33q-33 35 -45.5 78.5t-12.5 88.5zM283 366q5 -28 14 -53.5t30 -38.5q30 -12 60 -14.5t59 -2.5q42 1 84 9t84 29q32 16 62.5 35.5t56.5 45.5q18 19 30 43.5t17 47.5q2 9 3 17.5t2 16.5l7 88h-184q-5 0 -9.5 -0.5 t-9.5 -0.5q-38 -2 -77.5 -7t-81.5 -19q-29 -8 -52.5 -24.5t-42 -38.5t-30.5 -48t-18 -52q-2 -9 -2.5 -17t-1.5 -16z" />
<glyph unicode="b" horiz-adv-x="1110" d="M116 25q10 44 15.5 85.5t10.5 84.5l5 38q20 153 41.5 309.5t40.5 313t32.5 311.5t18.5 305q39 -6 73.5 -9t72.5 -7q2 0 4 -0.5t4 -0.5q-10 -104 -20 -204t-24 -205q-2 -38 -7 -77t-11 -78h20q16 46 47 80.5t70 57.5t83.5 35t86.5 12h13.5t13.5 -1h8q40 0 79 -7.5 t73 -22.5t62 -38.5t46 -56.5q23 -42 36 -87t20 -92.5t9 -96t4 -96.5l1 -32v-3.5t-1 -3.5q-5 -45 -10.5 -90.5t-15.5 -90.5q-10 -43 -23.5 -85.5t-33.5 -85.5q-21 -45 -54 -77.5t-72 -53.5t-82 -31t-83 -10h-14t-14 1h-9q-52 0 -101 13t-92 38.5t-77.5 63.5t-57.5 87 q-2 -7 -4 -19t-4.5 -25t-5 -25t-3.5 -19l-2 -18t-3 -17l-5 -25q-2 -19 -5 -37q-42 -2 -78 -3.5t-78 -4.5zM401 558q0 -42 6.5 -82.5t25.5 -75.5q17 -33 42.5 -54.5t55.5 -34t63.5 -18t67.5 -5.5h6q25 0 51.5 4t52 13t48.5 25t41 40q32 42 48 88t27 94q5 20 8 40t7 41 q0 35 -1 70.5t-6 69.5t-15 66.5t-28 61.5q-13 22 -33 37.5t-44 25t-50.5 14t-53.5 4.5h-14q-29 0 -59.5 -5t-60.5 -16.5t-57 -30.5t-48 -47q-26 -39 -40.5 -77t-22.5 -75q-6 -27 -9 -52.5t-5 -51.5q-3 -35 -3 -69z" />
<glyph unicode="c" horiz-adv-x="1060" d="M134 450q0 23 1 46t3 46q4 41 9.5 83.5t13.5 83.5q12 55 32 108t52 103q32 43 72 71.5t84 45.5t89.5 24.5t88.5 7.5h19q67 -1 131 -14t112 -50q75 -58 111 -149l-37 -22q-21 -12 -44 -24t-43 -24q-34 66 -82 114q-29 29 -71 40.5t-87 11.5h-9q-27 0 -55.5 -5t-56 -16 t-51.5 -29t-42 -45q-23 -35 -37.5 -72.5t-22.5 -75.5q-8 -35 -11 -69t-7 -68l-1 -30q0 -9 -0.5 -17.5t-0.5 -17.5q0 -51 12 -98.5t48 -79.5q38 -28 89.5 -43.5t102.5 -15.5q5 0 9 0.5t9 0.5q29 2 57.5 3.5t54.5 5.5q24 4 43.5 20t36.5 33q44 -41 82 -79.5t80 -80.5 q-32 -36 -70 -72t-79 -59q-45 -22 -91.5 -26t-93.5 -5h-6h-23t-24 -1q-46 1 -91.5 8.5t-87 22.5t-77.5 38t-62 55q-44 67 -61.5 149.5t-17.5 166.5z" />
<glyph unicode="d" horiz-adv-x="1163" d="M60 453q0 22 0.5 43t1.5 42q5 38 10.5 75.5t13.5 75.5q11 49 26.5 97.5t38.5 98.5q22 46 55.5 82t73.5 60t83.5 36.5t85.5 12.5h11.5t11.5 -1h15q48 0 93 -11.5t83 -34t66 -56t43 -76.5l18 6q39 272 86 546l61 2q26 1 51.5 3t50.5 5q-56 -312 -94 -619t-54 -616 q-3 -54 -3 -106.5t-1 -106.5l-24 3q-31 4 -62.5 7t-64.5 5q-1 9 -1 20v22v23q2 24 3 50.5t2 56.5h-21q-16 -48 -47.5 -82.5t-71 -56.5t-84 -32t-85.5 -10h-14.5t-14.5 1h-8q-39 0 -78 7.5t-74 22t-65 35.5t-52 49q-39 70 -52 153.5t-13 167.5zM177 624q0 -33 1 -67 t5.5 -66.5t15 -62.5t30.5 -56q33 -37 82.5 -51t102.5 -14h6q27 0 56 2.5t57 10t54 20.5t47 36q33 36 49.5 74t24.5 76q6 29 9 57t5 55q2 17 3 33.5t1 33.5q0 43 -7.5 84t-24.5 78q-18 31 -42.5 52t-53.5 34t-61 18.5t-64 5.5h-9q-24 0 -51.5 -4.5t-53.5 -14.5t-49.5 -26.5 t-41.5 -39.5q-30 -41 -47.5 -88t-27.5 -93q-4 -15 -7 -33t-5 -33q-2 -5 -2 -10t-2 -11z" />
<glyph unicode="e" horiz-adv-x="1119" d="M133 439q0 26 1.5 50.5t3.5 49.5q5 41 10.5 83t13.5 83q13 58 35 114.5t60 108.5q35 42 77.5 69.5t88 43.5t92 22t90.5 6h12q42 -1 83.5 -7t79 -18.5t70.5 -33t58 -49.5q28 -32 45.5 -70t27.5 -78.5t13.5 -83.5t3.5 -85v-10q-134 -4 -267 -5t-267 -1h-170 q0 -9 -0.5 -17.5t-0.5 -17.5q0 -34 3 -68t11.5 -65t24 -58t39.5 -46q54 -43 124 -58.5t144 -18.5q29 4 57.5 8.5t54.5 12.5q32 11 70.5 27.5t76.5 31.5l35 14q-4 -60 -5.5 -113.5t-1.5 -110.5v-45q-42 -28 -88.5 -45t-94 -27t-95.5 -14.5t-93 -7.5q-48 1 -96 8t-91.5 21.5 t-81 38t-65.5 57.5q-51 63 -69.5 142t-18.5 162zM314 709q69 -2 142 -2h142h138t138 2l13 13q-11 103 -75 180q-34 42 -86.5 59.5t-109.5 17.5h-13q-53 0 -108 -19.5t-96 -66.5q-33 -39 -55.5 -85.5t-29.5 -98.5z" />
<glyph unicode="f" horiz-adv-x="681" d="M96 38q11 91 22.5 178.5t23.5 178.5q18 140 36 282.5t35 282.5h-17q-24 1 -48.5 2t-47.5 3l7 121q29 -4 57 -6t57 -4l15 142q2 12 3 24.5t4 24.5q7 31 21 59.5t40 51.5q26 20 53.5 32t54.5 19t54 10t53 5q8 0 16.5 0.5t17.5 0.5q15 1 30 1h30h34l-5 -45q-2 -16 -4 -34 t-3 -34h-4h-32.5t-32.5 -2q-24 -2 -50.5 -10.5t-49.5 -25.5q-29 -28 -38 -55t-11 -53l-9 -114q48 2 100 4t102 7l-11 -118q-51 -4 -95 -5.5t-94 -2.5l-12 -12l-8 -192q-7 -154 -10.5 -306.5t-3.5 -304.5v-61.5t1 -61.5q-55 10 -113 14t-117 4h-51z" />
<glyph unicode="g" horiz-adv-x="1192" d="M147 554l3 23q0 2 0.5 3.5t0.5 3.5q5 38 9.5 77t12.5 77q13 57 35 112t61 105q27 31 60 51t69.5 32t74 16.5t73.5 4.5h25q51 0 98.5 -13t87.5 -38t70.5 -61t46.5 -82l18 4l21 105q2 6 4 14l4 16q2 10 4.5 20t6.5 21q40 2 77 3.5t77 4.5q-48 -260 -79 -512.5t-53 -508.5 q-3 -35 -7.5 -70.5t-12.5 -70.5q-10 -48 -27.5 -94t-48.5 -91q-34 -44 -76.5 -72t-89 -43.5t-94 -22t-91.5 -6.5q-47 2 -94 5.5t-93 11t-89 20.5t-81 35q7 63 14 122t14 122q89 -31 183 -47.5t192 -21.5q50 16 89 47.5t68.5 72t49 86t31.5 89.5q0 1 1 3t1 4q6 16 11 31.5 t11 31.5l-18 5q-19 -38 -51 -68.5t-68 -51.5q-45 -26 -95 -34.5t-98 -9.5h-11q-79 0 -147.5 30t-106.5 90q-24 44 -38 95t-21.5 105t-10.5 110t-3 109zM265 580q0 -55 9.5 -108.5t36.5 -99.5q15 -25 37 -41.5t49 -26.5t57.5 -14t61.5 -4h6q40 1 81 8t79 33q60 42 93 103 t47 126q4 17 6.5 32.5t3.5 30.5q2 14 3 27.5t1 27.5q0 56 -17.5 107.5t-51 90.5t-81.5 62t-109 23h-19q-51 0 -104 -13.5t-98 -54.5q-32 -35 -48.5 -75.5t-25.5 -82.5q-5 -23 -8.5 -47.5t-6.5 -47.5v-29q-1 -7 -1.5 -13.5t-0.5 -13.5z" />
<glyph unicode="h" horiz-adv-x="1123" d="M115 25q66 367 109 727.5t52 719.5q44 -7 82 -9.5t83 -6.5q-7 -87 -16 -168.5t-20 -169.5l-18 -155l-1 -22q-2 -14 -3.5 -26.5t-3.5 -25.5v-10l19 -2q26 45 61.5 85.5t81.5 67.5q44 26 93.5 35.5t98.5 9.5h8q33 0 65 -3.5t61 -12.5t54.5 -24t44.5 -38q21 -24 33 -54 t18.5 -63.5t8.5 -69t2 -69.5v-22q-3 -119 -3 -238q0 -120 4 -237.5t14 -231.5q-66 8 -125 12.5t-125 7.5q12 167 32 328.5t43 329.5v7q1 17 2 33t1 33q0 23 -2.5 45.5t-7.5 45.5q-7 30 -24.5 50.5t-42 33.5t-53.5 18.5t-59 5.5h-16q-26 0 -53.5 -5t-53.5 -15.5t-50 -27 t-43 -40.5q-30 -37 -48 -78.5t-27 -83.5q-4 -19 -7 -38t-4 -36l-3 -77q-6 -134 -12.5 -262.5t-13.5 -262.5q-61 -1 -118 -3.5t-118 -7.5z" />
<glyph unicode="i" horiz-adv-x="454" d="M43 37q18 86 30.5 176t23.5 183q20 170 40 337.5t37 337.5q35 -3 65 -4t66 -1h21q-2 -77 -5.5 -149.5t-6.5 -149.5q-7 -190 -12.5 -377t-5.5 -376q-48 13 -97.5 18.5t-103.5 5.5h-25.5t-26.5 -1zM170 1267l18 203q43 -15 85 -20t88 -6q-1 -26 -1.5 -47.5t-0.5 -47.5 v-45.5t-1 -45.5q-48 0 -97.5 2t-90.5 7z" />
<glyph unicode="j" horiz-adv-x="682" d="M7 -382q8 56 12.5 106.5t11.5 105.5h26q13 0 28.5 -0.5t28.5 -1.5h14t15 1q28 2 57.5 14.5t49.5 32.5q17 20 25 39t13 39q2 10 4 22.5t3 22.5q2 5 2 8.5t1 8.5q32 263 64 520.5t63 520.5q26 -2 54 -3t55 -1h43l-20 -160q-33 -259 -64.5 -515t-57.5 -513l-3 -17 q-2 -16 -4.5 -31.5t-5.5 -31.5q-7 -32 -20 -61.5t-39 -53.5q-38 -30 -83.5 -38t-88.5 -8q-44 0 -92 -2t-92 -4zM410 1267q7 26 11 58.5t8 65.5q0 2 0.5 4.5t0.5 4.5q2 13 2.5 28t2.5 29q32 -7 69.5 -10.5t72.5 -3.5h36q-2 -43 -2 -83.5t-1 -82.5v-17q-36 -3 -73 -3 q-32 0 -64 2.5t-63 7.5z" />
<glyph unicode="k" horiz-adv-x="1125" d="M118 4q64 376 106.5 747.5t50.5 744.5q47 -6 103.5 -12.5t104.5 -8.5q-5 -112 -12.5 -221t-17 -218t-21 -219t-24.5 -223q54 57 108 114.5t108 114.5l242 254q25 0 54.5 1t59.5 1.5t59 1.5t55 2l-512 -519l184 -219q70 -84 141 -168.5t140 -169.5l-12 -17 q-88 11 -179.5 17t-185.5 9q-60 102 -114 201.5t-110 204.5l-8 15q-7 -8 -14.5 -19t-15.5 -19l-15 -21v-361q-31 -1 -66 -2t-71 -3t-71 -4t-67 -4z" />
<glyph unicode="l" horiz-adv-x="498" d="M44 35l23 101l6 52q38 304 73.5 604.5t59.5 603.5q38 -11 74.5 -16t78.5 -7q-8 -138 -17.5 -270t-19.5 -270l-3 -46q-11 -152 -22.5 -304.5t-19.5 -302.5q17 -2 37.5 -4t38.5 -5q-3 -41 -4.5 -78t-2.5 -77q-51 13 -103.5 17.5t-107.5 4.5q-46 0 -91 -3z" />
<glyph unicode="m" horiz-adv-x="1785" d="M138 16q38 131 66 259q31 146 48.5 289.5t22.5 286.5q1 11 1 22.5v22.5q0 44 -4 87.5t-12 87.5q37 -3 66.5 -4.5t64.5 -3.5q3 0 6 -0.5t7 -0.5l3 -24q1 -3 1 -9t1 -11q0 -7 0.5 -13t2.5 -14q2 -16 2.5 -33t1.5 -34q0 -5 1 -14.5t2 -20.5t2 -21t1 -15q13 27 28.5 53.5 t32.5 50t36.5 42t40.5 29.5q38 20 79 27t80 7h18q5 0 9.5 0.5t9.5 0.5q46 0 90 -13.5t79 -41t58 -68t28 -94.5q27 51 66 91.5t83 68.5t92 43t93 15q5 0 8.5 -0.5t8.5 -0.5h17q30 0 59 -4t55 -14t47 -26t35 -40q14 -42 19.5 -87t5.5 -93q0 -37 -2.5 -74t-4.5 -75 q-2 -32 -4.5 -64.5t-3.5 -64.5q0 -15 -0.5 -30t-0.5 -30q0 -114 9.5 -228.5t32.5 -221.5q-64 4 -120.5 6.5t-120.5 4.5v19q0 158 20 320t49 320q5 25 8 53t3 56q0 25 -3.5 48t-12.5 43q-24 43 -67.5 59.5t-88.5 16.5h-5q-48 -1 -99.5 -19.5t-87.5 -61.5t-55 -87.5t-29 -89.5 q-4 -20 -6.5 -39.5t-4.5 -37.5l-11 -86q-16 -127 -29.5 -252.5t-22.5 -252.5h-216q11 53 21.5 99.5t21.5 98.5q25 117 48 233t46 233q5 26 9.5 53.5t4.5 54.5q0 30 -7.5 57t-27.5 49q-33 27 -77 37t-89 12h-6q-48 0 -97 -22t-80 -68q-26 -38 -39.5 -75.5t-21.5 -74.5 q-7 -31 -10 -58t-6 -53q-2 -147 -11.5 -291t-26.5 -291q-44 -1 -82 -2.5t-82 -3.5z" />
<glyph unicode="n" horiz-adv-x="1248" d="M127 -3l15 73q47 217 79 432t32 429v22q0 14 -1 28.5t-3 34.5l3 67q20 -2 44 -4.5t48.5 -4t48.5 -3t45 -2.5q-1 -23 -2 -41t-2.5 -35.5t-3 -35.5t-3.5 -41q26 38 57 68.5t71 51.5q53 28 106 35.5t104 7.5q36 0 72 -3.5t70 -12.5t63 -25.5t52 -42.5q34 -45 43.5 -92.5 t9.5 -107.5q0 -11 -0.5 -32.5t-0.5 -32.5v-22q0 -72 -3 -142.5t-3 -143.5q0 -109 5 -214.5t18 -204.5l-13 -13q-71 6 -146 10.5t-147 6.5q16 174 43 342t57 339q1 5 1.5 10t0.5 11q0 3 0.5 8.5t1.5 8.5q1 11 1.5 21.5t0.5 21.5q0 45 -13 85t-51 57q-29 13 -64 17t-71 5h-10 q-47 0 -95 -19.5t-79 -62.5q-23 -31 -37 -65t-22 -69q-3 -14 -5 -29t-2 -29q-3 -117 -8.5 -232.5t-11.5 -233.5q-2 -43 -4 -92t-4 -92q-66 -1 -143 -4t-144 -8z" />
<glyph unicode="o" horiz-adv-x="1169" d="M137 465q0 39 3 77q3 41 8.5 83.5t13.5 84.5q12 56 34 110t61 102q35 43 78 70t89.5 42t94 20.5t92.5 5.5h8q49 0 97.5 -5.5t93.5 -19t83 -37t66 -59.5q43 -55 57 -125.5t14 -146.5q0 -32 -1.5 -63.5t-3.5 -62.5q-4 -42 -9.5 -84t-14.5 -84q-13 -58 -35.5 -116 t-59.5 -109q-34 -41 -76 -67t-87 -42t-91 -22t-88 -6h-17q-47 0 -94.5 7t-90.5 22t-80.5 38.5t-64.5 57.5q-24 34 -39.5 73t-24.5 81.5t-12.5 86.5t-3.5 88zM295 509q0 -46 10.5 -88.5t43.5 -71.5q40 -29 90.5 -38t103.5 -9h14q57 0 115 5.5t113 37.5q32 26 48 59t24 68 q5 20 7 38t4 35q0 6 3 15q2 26 3 51.5t1 51.5q0 53 -8 102.5t-33 93.5q-15 26 -38.5 44t-52 28.5t-60.5 15t-64 4.5h-6q-30 0 -61.5 -4.5t-62 -15t-58.5 -29t-50 -46.5q-26 -38 -41 -77t-24 -79q-8 -37 -11.5 -72.5t-6.5 -70.5q-3 -24 -3 -48z" />
<glyph unicode="p" horiz-adv-x="1157" d="M124 -399q63 370 104 735t53 729q43 -6 78 -9.5t78 -7.5l-5 -34q-5 -31 -10 -66.5t-10 -66.5h22q19 47 52.5 81t74.5 56t86 32.5t87 10.5h14t15 -1h9q40 0 80 -7t75 -21t64.5 -37t49.5 -54q33 -62 44.5 -132.5t11.5 -143.5q0 -32 -1.5 -62.5t-3.5 -60.5 q-5 -42 -10.5 -83.5t-14.5 -83.5q-10 -48 -26 -95t-39 -95q-22 -45 -55 -79t-72 -57t-81.5 -34.5t-82.5 -11.5h-11t-11 1h-9q-48 0 -94 11t-84.5 33.5t-67.5 56t-43 78.5l-22 -1q-15 -140 -33 -285.5t-35 -285.5q-46 -2 -89 -4t-88 -6zM438 485q0 -24 2 -47.5t8 -45.5 t16.5 -42t27.5 -36q42 -30 96.5 -39t111.5 -9h14q49 0 101.5 7.5t102.5 40.5q36 38 54 80.5t26 86.5l11 61q2 14 5 28.5t6 29.5v14q0 69 -10 138t-41 126q-14 23 -35.5 42t-48 33t-55.5 21.5t-58 7.5q-53 0 -101.5 -13t-86.5 -47q-35 -31 -60 -68.5t-42 -76.5 q-10 -22 -16 -44t-11 -45q-8 -34 -11 -67t-5 -65v-13q-1 -14 -1 -29v-29z" />
<glyph unicode="q" horiz-adv-x="1120" d="M68 435q0 26 1 50.5t3 49.5q3 50 8 100.5t16 101.5q8 36 19.5 72t26.5 72q20 47 52.5 81.5t72 57.5t83 34t85.5 11h15t15 -1q52 -2 103 -10.5t93 -32.5q23 -13 41.5 -34t34.5 -47t29 -55.5t25 -59.5l36 162q5 18 9.5 37t8.5 37q35 1 65 3t65 4l25 2q-32 -186 -60 -372.5 t-49.5 -372t-34.5 -370.5t-16 -368q-2 0 -3.5 0.5t-3.5 0.5q-41 5 -73.5 8.5t-74.5 5.5q8 153 24.5 302.5t37.5 304.5l-18 2q-26 -48 -60 -94.5t-80 -72.5q-45 -25 -94.5 -32t-98.5 -8h-8q-38 0 -75.5 7t-71 22t-61 37.5t-45.5 52.5q-41 69 -54 149.5t-13 162.5zM189 498 q0 -45 8.5 -88.5t37.5 -76.5q35 -33 84.5 -43.5t100.5 -10.5q27 0 55.5 2.5t57 9.5t56 20t52.5 34q32 32 49 69.5t25 77.5q5 20 7.5 41t5.5 41q2 21 3 42t1 42q0 38 -4.5 75t-17.5 72q-14 39 -38 67t-55 46t-67 26.5t-73 8.5h-18q-26 0 -53 -5t-53 -16t-49 -28.5t-39 -43.5 q-21 -34 -33.5 -68t-20.5 -69q-7 -34 -10.5 -67.5t-6.5 -66.5l-3 -28q-1 -16 -1.5 -31.5t-0.5 -31.5z" />
<glyph unicode="r" horiz-adv-x="757" d="M106 16q44 260 77 525t48 528q36 -7 75 -11t77 -5q-2 -41 -4 -79.5t-5 -79.5q0 -4 -1 -7.5t0 -7.5l16 -1q22 39 53 73t67 60.5t76 44.5t82 24q5 1 13 1.5t17 1t17.5 0.5h14.5q-2 -11 -6 -22.5t-6 -21.5q-7 -26 -13 -50.5t-12 -50.5q-8 1 -14.5 1h-14.5q-9 0 -18 -0.5 t-17 -1.5q-51 -5 -99 -35.5t-81 -73.5q-26 -34 -46 -73.5t-28 -79.5q-2 -10 -3 -17.5t-2 -15.5q-2 -105 -3.5 -209t-1.5 -209v-98.5t1 -97.5q-29 2 -51 2.5t-51 0.5q-39 0 -78.5 -6t-78.5 -9z" />
<glyph unicode="s" horiz-adv-x="1103" d="M108 178l96 80q29 23 62.5 51.5t60.5 52.5q8 -29 23 -47.5t32 -31.5q33 -20 76 -29t84 -15q9 1 19.5 1h18.5q28 0 55.5 1.5t52.5 9.5q14 6 25 17.5t15 25.5l1 7q2 5 3 11t1 13v5q0 16 -3 32.5t-8 30.5q-11 27 -40.5 42t-58.5 23l-118 32q-53 14 -104.5 30t-99.5 42 q-29 16 -53.5 39t-39.5 52q-14 26 -21 59.5t-7 65.5v16q0 27 6 56q6 30 19.5 59.5t34.5 56t49.5 47.5t64.5 34q63 22 124 26.5t122 5.5q8 -1 16 -1h16q57 -2 112.5 -7.5t105.5 -28.5l29 -17q22 -13 43 -27t44 -32q-13 -15 -28 -33.5t-30.5 -37.5t-30.5 -37.5t-28 -34.5 q-20 18 -38.5 30.5t-36.5 23.5l-24 14q-35 20 -77 27.5t-85 7.5q-35 0 -74 -3.5t-84 -19.5q-24 -11 -41 -33t-22 -46q-3 -12 -3 -22v-14q0 -18 6.5 -32.5t17.5 -26.5t25 -22t29 -17q28 -11 64 -22t74 -22l43 -11q49 -13 96.5 -27.5t94.5 -36.5q26 -13 49 -29.5t42 -36.5 q31 -35 45.5 -80.5t14.5 -96.5v-14t-1 -14v-8q0 -14 -2 -29t-5 -31q-11 -49 -37 -94t-73 -75q-39 -25 -80 -39.5t-82 -21.5t-82.5 -9t-80.5 -2q-38 0 -77.5 2t-77.5 7.5t-74 16t-67 28.5q-36 21 -68 54.5t-50 78.5z" />
<glyph unicode="t" horiz-adv-x="625" d="M75 956q2 36 4 66t4 65q33 -5 66 -7.5t68 -4.5q6 72 12.5 149t11.5 150q26 -3 46.5 -3.5t46.5 -2.5q8 0 15 -1t15 -1q-2 -49 -5.5 -94t-6.5 -94l-7 -106h72q37 0 73.5 0.5t73.5 2.5q-3 -25 -4 -44.5t-3 -44.5l-4 -36q-55 -2 -110 -2.5t-110 -0.5l-35 -484v-17 q0 -26 3 -50.5t14 -44.5q14 -20 36.5 -29t45.5 -14q28 -4 66 -6q13 -1 26.5 -2.5t27.5 -2.5q-2 -38 -3.5 -74.5t-1.5 -71.5q0 -39 2.5 -77t7.5 -75q-51 7 -102.5 11t-103.5 7h-10q-42 0 -76 14.5t-58 40t-37.5 59.5t-13.5 73q0 10 1 20t3 21q20 174 40 352.5t36 352.5 q-8 0 -19.5 0.5t-19.5 0.5q-21 1 -44 2t-43 3z" />
<glyph unicode="u" horiz-adv-x="1203" d="M159 273q0 23 1.5 45.5t3.5 45.5q16 143 25 287t9 286q0 73 -3 144q13 -1 18.5 -1.5t16.5 -2.5q20 -2 39 -3.5t37 -1.5q12 0 23 1t21 3v-27q0 -129 -6 -257t-16 -259l-1 -16q-1 -13 -2 -25.5t0 -25.5q0 -34 5.5 -68t19.5 -67q13 -23 33 -37t43.5 -21.5t49 -10.5t50.5 -3 h5q24 0 50 4t50.5 13.5t47 25t40.5 38.5q21 27 36 56.5t25.5 60.5t18 62t14.5 61l3 13q11 57 22 113.5t23 113.5q13 60 26.5 122t28.5 122q43 2 81.5 3.5t80.5 4.5q-55 -266 -89.5 -533t-36.5 -527q-35 4 -63 5t-63 3l-38 2q4 45 9.5 88.5t11.5 89.5l-16 3q-26 -44 -62 -85 t-81 -65q-47 -25 -98.5 -33t-98.5 -8q-35 0 -70 2.5t-67 11t-60 23.5t-48 40q-29 35 -39 83.5t-10 100.5z" />
<glyph unicode="v" horiz-adv-x="1133" d="M95 1079q41 -5 75.5 -7t73.5 -4q4 0 7 -0.5t7 -0.5q45 -110 84 -220t77 -223l98 -295q94 193 188 380t194 359q35 2 68.5 4.5t69.5 5.5l35 3q-132 -260 -236.5 -526.5t-183.5 -530.5q-73 4 -147.5 5.5t-148.5 1.5q-25 98 -46.5 193t-44.5 195q-38 171 -78.5 336 t-91.5 324z" />
<glyph unicode="w" horiz-adv-x="1692" d="M126 1070q45 -4 82.5 -5.5t81.5 -3.5q4 0 7.5 -0.5t7.5 -0.5q62 -181 106 -370.5t82 -384.5q49 58 102.5 124.5t100.5 125.5l67 83h99q52 -81 108 -168.5t109 -168.5q69 197 144 387t171 373q48 2 95 4.5t95 5.5q3 0 5 0.5t5 0.5q-127 -223 -212.5 -462.5t-137.5 -484.5 q-6 -29 -12 -59t-11 -59q-51 11 -110 14t-120 5q-51 88 -99 182.5t-96 195.5q-55 -91 -115 -187.5t-117 -186.5q-21 0 -38.5 -0.5t-38.5 -0.5q-32 0 -62.5 -0.5t-62.5 -1.5h-35l-27 185q-16 111 -32 220.5t-36.5 217.5t-46 213.5t-59.5 206.5z" />
<glyph unicode="x" horiz-adv-x="1343" d="M109 -3q115 125 232 256.5t225 262.5q-41 71 -84.5 144.5t-88.5 147t-90.5 145.5t-89.5 141q57 -5 126 -10t126 -7q63 -104 118.5 -204t112.5 -208q72 103 146 205t151 202q35 1 71 2t70 4h87q-119 -136 -223.5 -267.5t-204.5 -262.5q97 -140 195.5 -274.5t204.5 -266.5 l-12 -17q-78 6 -158 10t-159 6q-53 93 -99.5 183.5t-92.5 188.5q-60 -94 -119.5 -186t-122.5 -184q-74 -1 -160 -4t-161 -7z" />
<glyph unicode="y" horiz-adv-x="1209" d="M135 -383q8 60 14 116.5t12 115.5q1 3 1 9q8 -2 16.5 -2h17.5h18t17 1q46 1 96.5 14.5t95 40.5t78.5 66.5t49 92.5q7 24 10 40t4.5 27t2 18t1.5 13q-88 230 -179 456.5t-185 453.5q16 -3 30 -5t27 -3.5t27 -2.5t31 -2l30 -2q82 -149 163 -303.5t158 -306.5l13 21 q88 147 180.5 298t186.5 294q34 3 66.5 5.5t66.5 7.5q-139 -260 -260 -528.5t-238 -538.5l-15 -33q-26 -55 -52.5 -108.5t-61.5 -103.5q-24 -35 -55.5 -63.5t-67.5 -48.5t-75 -31.5t-77 -11.5h-11q-8 0 -16.5 -0.5t-16.5 -0.5q-23 0 -51 1.5t-51 3.5z" />
<glyph unicode="z" horiz-adv-x="1103" d="M87 19l9 -9q2 19 4.5 37t5.5 37q5 35 11.5 72.5t10.5 72.5q73 80 142.5 160t140.5 161l15 17q82 94 171.5 195t174.5 194q-32 0 -73.5 -0.5t-73.5 -0.5q-105 0 -209 3.5t-207 11.5q0 19 -0.5 34t-1.5 34l-2 33q110 -11 220 -16t224 -5q78 0 157 1.5t158 5.5 q-4 -27 -6 -50t-7 -50q-85 -99 -167.5 -199.5t-163.5 -202.5l-13 -17q-59 -74 -123.5 -154.5t-125.5 -153.5q32 0 72 0.5t72 0.5q103 0 203.5 -2t203.5 -7q0 -23 -0.5 -44.5t-0.5 -42.5q0 -31 1 -61.5t3 -62.5q-111 10 -222 14.5t-226 4.5q-94 0 -188.5 -3t-188.5 -8z" />
<glyph unicode="{" horiz-adv-x="755" d="M42 459q2 20 2.5 35t2.5 35q1 18 2.5 34t3.5 35q35 1 68 9.5t67 34.5q29 29 44.5 59t21.5 60q3 13 4 24.5t2 22.5q5 86 10.5 171.5t10.5 170.5q1 20 3 40t7 40q7 32 19.5 63t35.5 58q46 44 98 57.5t101 13.5h8q35 0 70.5 0.5t70.5 2.5l-12 -137q-5 0 -10.5 -0.5 t-10.5 -1.5h-18q-8 -1 -15 -1.5t-14 -0.5q-32 0 -67.5 -12t-58.5 -45q-13 -21 -19.5 -41t-10.5 -38q-6 -27 -8 -51q-1 -2 -1 -4l-23 -333q-1 -10 -2 -19.5t-3 -18.5q-7 -30 -20.5 -59.5t-35.5 -55.5q-18 -23 -47.5 -43t-61.5 -37q64 -31 99.5 -91t35.5 -129v-16 q-6 -80 -11.5 -165t-13.5 -165q-1 -6 -1 -12v-12q0 -33 8 -64.5t24.5 -56.5t43 -41t62.5 -16l25 -4q9 -2 21 -3t22 -3q-2 -38 -2.5 -73.5t-1.5 -72.5q-31 6 -64 11.5t-68 8.5q-54 1 -99 21t-77.5 53.5t-51 78t-18.5 96.5q0 11 1 22.5t3 22.5q12 166 27 333q3 18 3 35 q0 37 -13 69t-36.5 55t-56 36.5t-71.5 13.5h-4z" />
<glyph unicode="|" horiz-adv-x="545" d="M50 -412q15 121 31.5 246t32.5 246l47 363l12 11h26q27 0 54.5 -0.5t54.5 -1.5q16 -1 37 -1h38q-29 -221 -59 -452.5t-53 -451.5q-48 21 -100 31t-106 10h-15zM176 594q25 222 50 454t47 453q47 -26 97.5 -36t103.5 -10h17q-15 -136 -32 -274.5t-34 -274.5l-39 -309 l-13 -11q-14 1 -26.5 1h-26.5q-35 1 -72.5 2.5t-71.5 4.5z" />
<glyph unicode="}" horiz-adv-x="753" d="M61 -367l11 136q20 2 33.5 2t33.5 1q32 1 66 11.5t56 40.5q14 25 22.5 47t13.5 42q5 26 7 52l11 164q3 42 5.5 82t6.5 82q1 11 1.5 21t2.5 20q6 28 20.5 57t35.5 55t49 48t61 37q-35 17 -57 36.5t-39 39.5q-20 28 -29 61.5t-9 70.5v12.5t1 12.5q3 48 6.5 95t5.5 95l8 140 q1 8 1.5 16t0.5 16q0 32 -8 62.5t-24.5 54.5t-41.5 39t-60 16l-66 11q0 15 1 26t1 26v95q65 -15 129 -22q54 -1 99 -19.5t77.5 -51t51 -77t18.5 -95.5q0 -13 -1.5 -26t-3.5 -27q-2 -42 -6 -84t-7 -83q-4 -42 -7 -83.5t-5 -82.5q-3 -17 -3 -32q0 -37 14 -69t38 -56t57 -37.5 t71 -13.5l-8 -138q-35 -1 -68.5 -9.5t-66.5 -33.5q-31 -29 -47 -60t-23 -62q-6 -26 -6 -49q-6 -85 -11 -170l-10 -170q-2 -39 -9 -75q-7 -33 -20 -64t-37 -58q-45 -45 -96.5 -59t-99.5 -14h-44q-26 0 -51.5 -0.5t-51.5 -1.5z" />
<glyph unicode="~" horiz-adv-x="1183" d="M106 602q4 9 7 20.5t5 21.5q5 20 6.5 38.5t1.5 37.5q46 42 101.5 57.5t110.5 15.5h20q26 0 53 -4t53 -9q52 -11 96.5 -25.5t88.5 -30.5q17 -8 33 -13l32 -10q3 -1 8 -3t9 -3q46 -13 101 -15h9q58 0 116.5 24t112.5 55q-4 -10 -7.5 -22t-5.5 -23q-3 -18 -5 -35t-2 -34v-10 q-21 -17 -43.5 -30t-47.5 -21q-28 -10 -57 -13.5t-58 -3.5h-15q-76 2 -145 22t-135 45q-49 18 -98.5 30t-103.5 14h-10q-60 0 -117.5 -22t-113.5 -54z" />
<glyph unicode="&#xa1;" horiz-adv-x="458" d="M82 -279q10 99 19 200t20 200q15 143 32 283.5t19 275.5q29 -2 54 -3.5t55 -1.5q12 0 23 0.5t22 0.5q-2 -41 -4.5 -76.5t-4.5 -76.5q-12 -207 -21 -412t-13 -411q-45 11 -91.5 16t-94.5 5h-15zM169 852q3 40 4 76.5t3 76.5q1 17 1 31.5t2 31.5q44 -14 90.5 -18.5 t97.5 -4.5l12 9q-5 -53 -8.5 -106.5t-7.5 -106.5q-12 0 -18 -0.5t-18 -0.5q-79 0 -158 12z" />
<glyph unicode="&#xa2;" horiz-adv-x="1010" d="M106 583q0 54 9 107q4 38 9 77t13 77q17 78 49 155q21 49 56.5 88t79.5 67t93.5 43.5t97.5 17.5l7 146q8 0 15.5 -0.5t12.5 -0.5q20 -1 41 -1h42h26l-10 -145q65 -5 118.5 -30t92.5 -65.5t61.5 -94.5t25.5 -115q-18 -2 -29.5 -3.5t-29.5 -3.5q-2 0 -3.5 -0.5t-3.5 -0.5 q-31 -4 -60.5 -7t-60.5 -5q-1 37 -14.5 70t-37 57.5t-56.5 38.5t-72 14h-17q-23 0 -49 -4.5t-50.5 -14t-47 -25.5t-38.5 -39q-23 -34 -37.5 -70t-22.5 -74q-5 -23 -8 -46t-5 -45q-2 -20 -3.5 -41.5t-1.5 -43.5q0 -54 9.5 -107t33 -95.5t63.5 -69t102 -26.5h8q5 -1 10 -1h10 q37 0 72 16.5t63 43.5t47 62t24 71q48 -17 89 -32.5t87 -34.5q-11 -63 -38 -127t-81 -114q-46 -42 -105.5 -64t-118.5 -26q-2 -30 -3 -66.5t-1 -66.5q-1 -7 -1 -12.5v-12.5q-37 2 -68.5 2t-68.5 1l2 44q2 26 4 57.5t4 57.5q-88 3 -151 39t-104 94t-60.5 132t-19.5 152z" />
<glyph unicode="&#xa3;" horiz-adv-x="1220" d="M82 21l8 59q5 35 9.5 67t9.5 67q39 20 70.5 49t56 63.5t41.5 73t25 77.5q7 36 9 69l4 40q1 10 2 24.5t3 25.5q-42 -1 -87 -1h-87q3 29 5 54.5t5 54.5h171q6 68 10.5 141.5t7.5 142.5q2 25 4.5 50.5t7.5 51.5q10 44 29 86.5t53 77.5q34 31 70.5 50.5t73.5 29.5t74 13.5 t72 3.5h20q56 0 111 -10t101.5 -33.5t79 -61.5t43.5 -93l-28 -7l-62 -15.5t-61 -14.5q-9 30 -28 54.5t-44.5 41.5t-56 26t-63.5 9h-7q-42 0 -86 -11t-81 -43q-28 -31 -42 -61.5t-21 -61.5q-6 -34 -8 -63l-20 -305h384l-8 -105h-383l-7 -74l-4 -36t-6 -35q-14 -70 -48 -129 q-22 -38 -55 -72t-76 -57l1 -16q72 3 144 4t143 1q47 0 93.5 -1t92.5 -1q32 0 65.5 5.5t64.5 27.5q37 30 54 63t25 65q19 -10 36 -19.5t33 -19t32.5 -19.5t35.5 -21l-3 8l-8 -44q-8 -44 -27 -86.5t-54 -75.5q-48 -45 -101 -59t-103 -14h-23q-67 0 -134.5 2.5t-135.5 2.5 q-105 0 -210.5 -4t-211.5 -12z" />
<glyph unicode="&#xa4;" horiz-adv-x="1176" d="M134 337q29 25 55.5 49.5t54.5 50.5q-26 48 -39.5 101t-13.5 108q0 9 0.5 18t1.5 20q3 35 9 68q10 45 29.5 90.5t49.5 90.5q-13 13 -27 27.5t-25 28.5q-11 12 -20 24t-20 23q11 11 20.5 21t18.5 21l15 15q7 8 12.5 13.5l10.5 10.5l100 -102q57 40 120 59t123 19h13 q65 0 125 -21.5t112 -57.5l108 96l75 -84l-106 -96q26 -48 40 -101t14 -110v-18t-1 -18q-2 -17 -4 -33.5t-5 -32.5q-10 -45 -30.5 -91.5t-53.5 -91.5q14 -14 29 -31.5t29 -31.5q10 -9 18.5 -19.5t18.5 -20.5l-77 -83l-7 6l-48 48t-46 49q-57 -40 -119.5 -57.5t-122.5 -17.5 h-5q-68 0 -130.5 20t-113.5 59l-116 -105q-13 12 -22 23.5t-20 25.5q-6 8 -14.5 19t-15.5 19zM316 658q0 -50 16.5 -93.5t47.5 -78.5q33 -38 81 -58.5t104 -20.5h8q51 0 103 19.5t94 59.5q35 33 56.5 74t30.5 83l4 22t2 21q1 5 1 10.5v10.5q0 50 -17 97t-46 80 q-33 38 -82 59.5t-105 21.5h-7q-51 0 -103 -21.5t-94 -59.5q-34 -32 -56 -73.5t-31 -83.5q-5 -23 -6 -43q-1 -7 -1 -13v-13z" />
<glyph unicode="&#xa5;" horiz-adv-x="1236" d="M85 1397q47 -6 82.5 -9t82.5 -5q86 -156 169 -319t161 -324q103 159 210 322.5t219 318.5q38 2 74 4.5t74 5.5q6 0 15 1t15 2q-129 -170 -243.5 -337.5t-231.5 -343.5l6 -14h150q36 0 71 0.5t71 0.5l-2 -41q-2 -15 -3.5 -31.5t-2.5 -31.5q-179 3 -358 3q-2 -23 -4 -52.5 t-4 -52.5l-4 -64q90 -1 180 -3t180 -5q-2 -26 -2 -47t-1 -46v-14q-91 6 -180.5 8t-181.5 4q-4 -71 -6 -146.5t-3 -146.5q-42 2 -78.5 2t-77.5 1q2 55 5.5 109.5t6.5 108.5l4 74h-58q-78 0 -154 -1.5t-154 -3.5q3 19 3.5 32.5t2.5 32.5l4 38q92 2 181.5 3t180.5 1l14 168h-59 t-65 -0.5t-65.5 -1t-60.5 -0.5t-55.5 -0.5t-55.5 -0.5q1 10 1 15t2 15l7 72q38 0 70 0.5t70 0.5h170q-89 173 -183 350t-189 348z" />
<glyph unicode="&#xa6;" horiz-adv-x="381" d="M49 -390l7 -8q11 185 24 368t28 369h28h54t53 -1q-14 -192 -27 -378.5t-22 -378.5q-32 11 -70 19t-75 10zM126 708l8 -9l14 196q11 143 21.5 285.5t18.5 287.5q31 -13 66 -20.5t70 -10.5q-12 -185 -25 -365.5t-27 -365.5h-73t-73 2z" />
<glyph unicode="&#xa7;" horiz-adv-x="1135" d="M101 102l59 14q19 5 39.5 10t40.5 10q7 -38 26 -71t51 -51q45 -25 100 -31t110 -8q44 1 88.5 4.5t89.5 19.5q26 9 47 25.5t35.5 36t22 41t7.5 42.5v8q0 51 -28 91q-17 23 -39.5 40.5t-48.5 30.5q-43 21 -88.5 35t-91.5 26l-18 5q-54 11 -110 30.5t-101.5 51t-74.5 76 t-29 106.5q0 7 0.5 13.5t1.5 13.5q1 8 2 17t3 17q7 32 21.5 62.5t37.5 56.5q31 35 83 61t111 41q-45 16 -83.5 41t-66.5 58t-43.5 72t-15.5 83v8q1 13 2 25.5t4 25.5q5 24 14.5 48t24.5 45.5t34.5 38.5t45.5 28q68 29 129 36t119 7h30q61 0 124 -11.5t115.5 -38t88.5 -70 t44 -107.5q-38 -7 -69.5 -12t-68.5 -10q-4 42 -26.5 69.5t-56 43.5t-74 22.5t-79.5 6.5h-5q-37 0 -75.5 -3t-80.5 -16q-24 -8 -44.5 -22t-35 -32t-22.5 -38.5t-8 -39.5q0 -25 6.5 -46.5t21.5 -39.5q15 -21 35.5 -37t43.5 -27q35 -17 71.5 -28t73.5 -21l30 -8 q54 -14 107 -30.5t99 -39.5q57 -29 94 -79.5t37 -119.5v-12t-1 -12q-1 -10 -2 -19.5t-3 -19.5q-8 -33 -23 -65t-38 -61q-29 -34 -77 -59t-107 -36q43 -19 82 -45.5t68 -59.5t46 -72t17 -84q0 -5 -0.5 -8.5t-0.5 -8.5q-1 -15 -2 -30.5t-4 -29.5q-10 -45 -34.5 -86t-67.5 -68 q-37 -24 -76.5 -37t-80 -19t-81 -7t-78.5 -1q-41 0 -81.5 2.5t-80.5 9t-77 18t-70 29.5q-48 26 -77.5 73t-37.5 102zM319 670q0 -46 24 -79q14 -20 34 -35.5t43 -26.5q42 -20 84.5 -33t87.5 -25q5 -1 9 -1h9q40 0 83.5 13t79.5 37.5t60 60.5t24 82q1 5 1 14q0 35 -17.5 63 t-43.5 48q-48 37 -107 56.5t-118 34.5h-12q-36 0 -74.5 -12t-72 -34t-58 -53t-32.5 -69q-2 -7 -3 -15.5t-1 -15.5v-10z" />
<glyph unicode="&#xa8;" horiz-adv-x="849" d="M156 1230q12 5 17.5 18t9.5 29q6 27 6 56q0 16 -2 31t-5 29q11 0 20.5 -0.5t16.5 -0.5q26 -1 50.5 -1.5t50.5 -0.5q1 -9 1 -18v-19q0 -30 -3 -60.5t-8 -60.5q-42 -1 -77 -1.5t-77 -0.5zM554 1274q0 28 3.5 57t9.5 58q14 0 22 0.5t22 0.5h48t48 1q-5 -12 -8.5 -23.5 t-6.5 -24.5q-6 -27 -6 -55q0 -29 8 -58q-27 1 -45.5 1h-45.5h-12q-11 0 -19.5 -1t-14.5 -5q-3 24 -3 49z" />
<glyph unicode="&#xa9;" horiz-adv-x="1596" d="M128 637q0 35 3 71q2 28 6 56t10 56q13 61 36.5 123t56.5 117q21 36 48.5 71t59.5 67.5t67 59.5t72 47q81 44 168 65t171 21h17q96 0 184 -23.5t164 -68.5q73 -43 130.5 -105t92.5 -140q28 -64 41.5 -134.5t13.5 -145.5q0 -34 -3 -68q-2 -28 -6.5 -55.5t-10.5 -54.5 q-13 -61 -37 -124.5t-56 -120.5q-42 -75 -106 -140t-141 -107q-80 -44 -165 -63.5t-169 -19.5h-19q-98 0 -187.5 24t-166.5 69q-75 45 -132 107.5t-89 141.5q-26 63 -39.5 132t-13.5 142zM197 655q0 -68 12.5 -132t38.5 -123q30 -66 82.5 -114.5t122.5 -70.5 q72 -22 149 -32.5t158 -10.5q75 0 152.5 8.5t155.5 33.5q36 9 70 27.5t64 43t55 54.5t45 63q32 52 52.5 107.5t32.5 111.5q5 25 8.5 49t5.5 47q2 14 2 27.5v27.5q0 136 -53 253q-30 69 -83 126t-117 95q-66 39 -144 60t-163 21h-11q-76 0 -155 -19.5t-152 -59.5 q-69 -38 -128.5 -96.5t-100.5 -126.5q-29 -51 -50.5 -106t-32.5 -109q-5 -25 -8.5 -49t-5.5 -48q-1 -14 -1.5 -29t-0.5 -29zM445 670v19.5t1 18.5q2 24 6 50.5t9 50.5q8 41 23 80t39 75q30 40 66 66.5t75 43t79 23.5t77 7h24q48 0 92.5 -13t81.5 -37t65 -58t43 -76l-90 -26 q-24 59 -79 94t-124 35h-5q-48 0 -98.5 -15.5t-89.5 -57.5q-36 -40 -54.5 -81.5t-27.5 -83.5q-4 -20 -6.5 -40t-4.5 -39q-2 -14 -3 -26.5t-1 -26.5q0 -51 14.5 -99.5t43 -85.5t71.5 -59.5t99 -22.5h20q33 0 67 11t64.5 30.5t56 46t41.5 57.5l28 -9q14 -5 28.5 -10t30.5 -9 q-22 -42 -55 -78.5t-73 -63t-84.5 -41.5t-88.5 -15h-12t-12 1h-4q-76 0 -146.5 26.5t-115.5 77.5q-38 51 -54.5 120t-16.5 140z" />
<glyph unicode="&#xaa;" horiz-adv-x="906" d="M115 830q0 19 5 42q6 42 24 85.5t53 75.5q54 38 113 52t111 14q20 0 39.5 1t39.5 1h23q17 0 39.5 1t39.5 1q1 13 1 25t2 21l2 23v21q0 23 -3.5 46t-15.5 42q-26 31 -58.5 39.5t-66.5 8.5q-26 0 -51.5 -3.5t-51.5 -19.5q-30 -24 -43 -51.5t-19 -52.5q-32 3 -58.5 6 t-58.5 7q8 37 25.5 74t50.5 62q48 36 97.5 46.5t97.5 10.5h11q6 1 12.5 1h12.5q46 0 89 -12t76 -36t53 -59.5t20 -81.5q0 -23 -4 -43q-7 -74 -12.5 -150.5t-9.5 -149.5q0 -5 -0.5 -10t-0.5 -10q0 -17 2.5 -34t10 -31t21 -23t34.5 -9q5 1 13 1q5 1 8.5 1t10.5 2v-19v-33.5 t2 -33.5q-15 -2 -28.5 -3.5t-27.5 -1.5h-11q-30 0 -56 10.5t-46 29t-31.5 44t-11.5 57.5v4h-21q-17 -37 -44.5 -64t-60.5 -44.5t-69 -26t-70 -8.5h-12q-8 -1 -14 -1.5t-12 -0.5q-35 0 -66.5 11.5t-54.5 32.5t-36.5 49.5t-13.5 63.5zM241 864q0 -43 29 -72.5t74 -29.5 q10 0 14 1q41 1 83 14.5t77 44.5q32 29 51.5 66t21.5 75l5 72h-138l-20 -6q-35 -3 -71 -9.5t-70 -31.5q-26 -18 -39 -47t-15 -55q-1 -6 -1.5 -11.5t-0.5 -10.5z" />
<glyph unicode="&#xab;" horiz-adv-x="1166" d="M90 510l2 30q0 14 3 26q82 88 162 172t164 172q41 -2 76 -3t76 -2v-14q-37 -42 -60.5 -67.5t-40 -42.5t-29.5 -30l-30 -30t-41.5 -41t-63.5 -63l-83 -85q70 -91 143 -182.5t147 -179.5v-5q-1 -2 -1 -4v-4q-8 0 -16.5 0.5t-14.5 0.5q-23 1 -45 1h-45h-33 q-71 88 -137.5 174t-132.5 177zM524 503q0 6 1 11t1.5 9.5t0.5 6.5l3 26q88 91 176.5 176t181.5 171q40 1 77 1t75 2l-1 -2v-1q0 -1 0.5 -1t0.5 -2l-2 -10q-89 -79 -178.5 -166.5t-172.5 -172.5l-26 -26l51 -63q65 -81 128.5 -160.5t134.5 -155.5v-19l1 3q0 -2 0.5 -3 t0.5 -3l13 10q-27 2 -54.5 4t-54.5 4l-55 4q-81 88 -154.5 176t-147.5 181z" />
<glyph unicode="&#xac;" horiz-adv-x="1165" d="M40 755q127 -7 248 -9.5t250 -2.5q119 0 235.5 2.5t236.5 6.5q-7 -27 -12.5 -49t-10.5 -49q-16 -74 -24.5 -147.5t-8.5 -145.5q0 -91 15 -176q-74 3 -140.5 4.5t-140.5 3.5l7 -10q23 102 57 204t76 206q-68 -8 -140.5 -16t-145.5 -16.5t-145 -16.5t-140 -15l-206 -22 q2 19 2 37.5v37.5q0 44 -3 87t-10 86z" />
<glyph unicode="&#xad;" horiz-adv-x="847" d="M156 455l8 -12q6 14 10.5 29.5t8.5 31.5q4 17 5.5 34t1.5 34q0 34 -7 61q72 -2 135.5 -2.5t136.5 -0.5q64 0 124.5 0.5t123.5 2.5q-5 -13 -8.5 -25.5t-6.5 -26.5q-3 -16 -5 -31.5t-2 -31.5q0 -31 8 -63q-72 2 -135.5 2.5t-136.5 0.5q-131 0 -261 -3z" />
<glyph unicode="&#xae;" horiz-adv-x="1596" d="M128 637q0 35 3 71q2 28 6 56t10 56q13 61 36.5 123t56.5 117q21 36 48.5 71t59.5 67.5t67 59.5t72 47q81 44 168 65t171 21h17q96 0 184 -23.5t164 -68.5q73 -43 130.5 -105t92.5 -140q28 -64 41.5 -134.5t13.5 -145.5q0 -34 -3 -68q-2 -28 -6.5 -55.5t-10.5 -54.5 q-13 -61 -37 -124.5t-56 -120.5q-42 -75 -106 -140t-141 -107q-80 -44 -165 -63.5t-169 -19.5h-19q-98 0 -187.5 24t-166.5 69q-75 45 -132 107.5t-89 141.5q-26 63 -39.5 132t-13.5 142zM197 655q0 -68 12.5 -132t39.5 -123q30 -66 82 -115.5t123 -72.5t147.5 -34 t157.5 -11q75 0 153 9t156 35q36 10 70 29t64 44t55 55t45 63q32 52 52.5 107.5t32.5 111.5q5 25 8.5 49t5.5 47q2 14 2 27.5v27.5q0 136 -53 253q-30 69 -83 126t-117 95q-66 39 -144 60t-163 21h-11q-76 0 -155 -19.5t-152 -59.5q-69 -38 -128.5 -96.5t-100.5 -126.5 q-29 -51 -50.5 -106t-32.5 -109q-5 -25 -8.5 -49t-5.5 -48q-1 -14 -1.5 -29t-0.5 -29zM505 314q20 198 34.5 390.5t22.5 388.5q44 -2 85 -2h83h114q6 1 11.5 1h11.5q44 0 85.5 -12t74 -35.5t52 -58t19.5 -78.5q0 -16 -3 -34q0 -23 -4 -42q-7 -32 -24 -62t-43 -55.5t-59 -43 t-71 -23.5q36 -68 77 -141.5t79 -140.5q7 -12 14.5 -27t15.5 -28q-12 0 -22.5 0.5t-18.5 0.5q-31 1 -61.5 1.5t-61.5 0.5l8 -5l-15 39q-27 71 -53.5 144t-52.5 145h-169l-27 -322q-29 -1 -51.5 -1h-50.5zM638 709h180q27 0 56 7.5t55 24.5q38 34 52.5 68.5t15.5 64.5 q1 5 1.5 10t0.5 10q0 30 -13.5 53t-35 38.5t-49.5 23.5t-58 8h-11q-11 -1 -21 -1h-20h-20.5t-18.5 1q-20 0 -46 0.5t-46 0.5q-2 -23 -4.5 -51.5t-4.5 -51.5q-2 -49 -5.5 -102.5t-7.5 -103.5z" />
<glyph unicode="&#xaf;" horiz-adv-x="1373" d="M70 1462q16 12 20 33q0 14 -3 23t-8 17q61 -1 117 -1h112h230q158 0 321.5 0.5t321.5 1.5q-13 -11 -19 -32q0 -14 3 -24t8.5 -16.5t12 -11.5t13.5 -9q-140 15 -283.5 18t-289.5 3q-140 0 -278 -0.5t-278 -1.5z" />
<glyph unicode="&#xb0;" horiz-adv-x="765" d="M124 1116v15t1 15q1 11 2.5 22.5t4.5 22.5q8 38 27 75.5t48 68.5q37 35 86 54t96 19h10q55 0 103 -18.5t83 -56.5q29 -32 43 -73t14 -87v-14t-1 -15q-2 -11 -3.5 -23t-3.5 -23q-8 -40 -26.5 -77.5t-51.5 -67.5q-36 -37 -84 -54.5t-94 -17.5h-11q-56 0 -104.5 19t-80.5 57 q-30 31 -44 72t-14 87zM204 1126q0 -32 10.5 -61t30.5 -51q22 -25 53.5 -38.5t68.5 -13.5h4q33 0 67 12.5t60 40.5q29 26 43.5 60.5t17.5 69.5q0 5 0.5 9t0.5 9q0 68 -40 113q-22 25 -55 37.5t-69 12.5q-34 0 -70 -14t-62 -40q-25 -26 -40.5 -61.5t-18.5 -67.5 q0 -5 -0.5 -8.5t-0.5 -8.5z" />
<glyph unicode="&#xb1;" horiz-adv-x="1088" d="M29 19l9 -9l9 57q2 17 6 37.5t6 37.5q117 6 227.5 8.5t227.5 2.5q125 0 246.5 -3t244.5 -11q0 -34 1.5 -65t3.5 -63q-129 11 -260.5 16.5t-264.5 5.5q-114 0 -227.5 -3.5t-228.5 -10.5zM119 690l4 51q2 19 2 36.5t2 36.5q99 -5 198 -6.5t199 -2.5q6 93 10 190.5t8 191.5 q34 -1 63.5 -1.5t62.5 -0.5q-4 -61 -8 -125.5t-9 -124.5l-9 -130q99 0 200 1t201 4l-13 -121q-100 -2 -193.5 -2.5t-193.5 -0.5l-12 -11q-8 -92 -14.5 -183.5t-11.5 -183.5h-119l29 378q-97 0 -198 1t-198 3z" />
<glyph unicode="&#xb2;" horiz-adv-x="825" d="M96 580l9 -9l13 100q23 41 54.5 77t67.5 68t75 61.5t78 56.5q31 21 64 46.5t61.5 55t48.5 63.5t25 72q1 5 1 8.5v8.5q0 26 -10.5 48.5t-28.5 39t-41.5 26t-50.5 9.5h-8q-3 1 -6.5 1h-6.5q-26 0 -52.5 -11t-49 -29.5t-39 -43t-21.5 -50.5l-103 12q9 41 29.5 82t57.5 68 q42 32 89.5 43t95.5 11h32q43 0 84 -11.5t72.5 -34.5t50.5 -56.5t19 -76.5q0 -17 -3 -33q-5 -40 -22.5 -78t-44.5 -72t-60 -64t-67 -54l-23 -16q-2 -1 -6 -5q-35 -26 -74 -54.5t-71 -56.5q-23 -19 -46.5 -45.5t-41.5 -59.5q32 1 69.5 1.5t68.5 0.5q73 0 148.5 -2.5 t147.5 -7.5q-1 -8 -1.5 -15t-0.5 -15q0 -11 0.5 -21.5t1.5 -20.5l3 -22q-78 8 -157 11t-160 3q-136 0 -271 -9z" />
<glyph unicode="&#xb3;" horiz-adv-x="804" d="M94 762v10q16 2 26.5 3.5t26.5 3.5q14 2 27.5 3t27.5 3q1 -31 15 -55t36.5 -40t51 -24t59.5 -8h20q26 0 53 6t53 21q27 24 40 51.5t21 73.5q0 4 0.5 7t0.5 6q0 32 -15.5 56t-40 40t-55 24t-61.5 8h-56q2 23 3 43.5t3 41.5h42q4 -1 8 -1h8q28 0 58 10t55 29t41 44.5 t16 57.5q1 7 1 11v8q0 25 -10.5 46.5t-28.5 36.5t-42 23.5t-50 8.5h-9q-5 1 -15 1q-26 0 -52 -9.5t-47.5 -26.5t-36.5 -40t-19 -50q-13 2 -19.5 2.5t-20.5 2.5q-15 2 -31 4t-33 5q6 38 23 74.5t50 64.5q52 35 105.5 45.5t101.5 10.5q53 0 104 -12t89 -42q26 -20 39.5 -52 t13.5 -68q0 -6 -0.5 -12t-1.5 -12q0 -18 -3 -30q-6 -29 -22 -55t-38.5 -47.5t-51 -36t-59.5 -19.5l-3 -20q36 -2 67 -16t53 -37.5t34.5 -54t12.5 -65.5v-10t-2 -10q0 -27 -6 -52q-6 -30 -19.5 -58t-38.5 -49q-51 -38 -103 -48.5t-102 -10.5h-13q-7 -1 -13 -1h-13 q-47 0 -93 10.5t-82 33t-58 57.5t-22 85z" />
<glyph unicode="&#xb4;" horiz-adv-x="488" d="M48 1213q0 2 8 5q43 46 79.5 91.5t72.5 90.5q19 23 36.5 46.5t37.5 46.5q47 0 96.5 1.5t97.5 3.5q-1 -25 -18 -47t-41.5 -41t-51.5 -36.5t-47 -33.5q-43 -35 -90 -63t-92 -61q-9 -1 -18 -1.5t-18 -0.5q-8 -1 -21 -2t-22 -1t-9 2z" />
<glyph unicode="&#xb5;" horiz-adv-x="1173" d="M133 -398q53 341 84.5 681.5t31.5 680.5v54t-1 53q42 -6 77 -10t79 -6q-1 -139 -7 -280t-17 -281q-1 -7 -1 -14v-14q0 -44 11 -88.5t34 -80t58 -58t84 -22.5h11q24 0 51 5t53.5 14.5t51 24t43.5 35.5q40 43 60 88.5t29 90.5q9 41 12 77q2 35 5.5 75.5t7 82.5t7.5 82.5 t7 76.5l17 175q42 1 82 2t79 3q-26 -199 -45 -392t-33 -391q-1 -9 -1.5 -19t-0.5 -21q0 -19 2.5 -38.5t10.5 -35t21.5 -26t36.5 -12.5h6q11 0 22 2l22 4q-5 -4 -7 -18.5t-2.5 -31.5t-1 -34.5t-1.5 -27.5q-41 -12 -81 -12h-23q-35 0 -62.5 13.5t-47 36t-30 52.5t-10.5 63 v11.5t1 11.5l-18 2q-21 -38 -51.5 -71.5t-67 -58.5t-77 -39t-80.5 -14h-13q-54 1 -108 21t-93 72q-3 -41 -7.5 -90.5t-9.5 -101.5t-10.5 -102.5t-9.5 -92.5q-2 -23 -4 -49.5t-4 -49.5q-46 -1 -86 -3t-86 -5z" />
<glyph unicode="&#xb6;" horiz-adv-x="1094" d="M97 1027v21q2 23 4.5 48t7.5 48q9 42 27 81.5t53 71.5q50 45 109.5 59.5t118.5 14.5q7 0 16.5 -0.5t15.5 -0.5q58 -2 116.5 -3t118.5 -1q66 0 131.5 1t131.5 5q-2 -22 -3.5 -40t-3.5 -39q-7 -1 -12.5 -1h-11.5l-12 -12l-4 -119q-6 -184 -10.5 -366t-4.5 -365 q0 -174 6 -343.5t21 -338.5q-66 8 -128 13t-128 9q4 279 25 566.5t44 568.5q8 94 16 191.5t15 191.5q-19 -1 -41.5 -1h-41.5h-57t-56 1q-9 -168 -21 -340t-25 -340q-17 -208 -31.5 -416t-23.5 -416q-31 1 -55.5 1h-55.5h-40.5t-40.5 -1l41 300q20 154 41 311t39 311h-4 q-66 0 -121 24.5t-90 65.5q-40 45 -58 109t-18 130z" />
<glyph unicode="&#xb7;" horiz-adv-x="456" d="M127 458q13 41 19.5 87t6.5 92v17q14 -2 25.5 -2h22.5h34h43.5t44.5 1q-6 -42 -10.5 -83t-4.5 -82q0 -8 0.5 -15t0.5 -15q-17 2 -30 2h-27h-39q-22 0 -43.5 -0.5t-42.5 -1.5z" />
<glyph unicode="&#xb8;" horiz-adv-x="514" d="M84 -419q5 20 7.5 38.5t5.5 38.5q8 0 11 -0.5t5 -0.5q10 -1 21.5 -1.5t23.5 -0.5h11q21 1 47 4t49.5 12.5t40.5 27t19 46.5v8q0 24 -12.5 39t-31 23t-41 11t-42.5 3q-7 -1 -13.5 -1h-12.5h-15q4 11 6.5 16t7.5 16q11 30 23 62t23 62q20 -2 35.5 -1.5t35.5 -0.5h13 q-12 -24 -22 -48.5t-21 -48.5h8q31 0 60.5 -7t52.5 -21.5t37 -36t14 -51.5v-5v-12q0 -11 -2 -22.5t-3 -13.5q-10 -29 -26.5 -56.5t-46.5 -41.5q-48 -22 -92.5 -27.5t-88.5 -7.5h-7q-21 -2 -40.5 -2h-39.5z" />
<glyph unicode="&#xb9;" horiz-adv-x="697" d="M79 581l9 -9l13 95q103 4 208 6l12 146q9 116 17.5 239t13.5 238l-102 -67q-24 -15 -47 -30t-46 -31v99l198 115h110q-4 -65 -9.5 -128t-10.5 -127l-3 -42q-8 -103 -15.5 -207.5t-12.5 -205.5q50 -1 103 -3t103 -6l4 -88q-75 8 -150.5 11t-153.5 3q-60 0 -120.5 -2 t-120.5 -6z" />
<glyph unicode="&#xba;" horiz-adv-x="904" d="M134 977q0 15 0.5 33.5t1.5 32.5l2 13v4q3 24 6.5 48t8.5 48q8 37 21.5 72.5t35.5 68.5q27 34 58 55.5t64 33.5t67 16.5t66 4.5h12q35 0 70.5 -5t67.5 -15.5t59.5 -28.5t47.5 -43q29 -49 38.5 -101.5t9.5 -106.5q0 -17 -0.5 -33t-1.5 -32v-4q-3 -26 -6.5 -56t-8.5 -56 q-8 -38 -24 -77.5t-40 -74.5q-26 -31 -57 -51.5t-64 -32.5t-66 -16.5t-64 -4.5h-16q-36 0 -71.5 5.5t-67 17.5t-58.5 31.5t-46 47.5q-26 49 -35.5 101.5t-9.5 104.5zM253 1057q0 -40 8 -79t26.5 -69.5t49.5 -49t76 -18.5q4 0 7.5 0.5t7.5 0.5h8q20 0 42.5 4t44 13.5t41 25 t34.5 38.5q26 50 38 108q3 16 6 24t4.5 14t2.5 14t1 24q0 41 -6 80t-23 71q-20 37 -60 52t-83 15h-9q-20 0 -41.5 -3.5t-41.5 -11.5t-38 -20.5t-31 -31.5q-19 -32 -29.5 -61.5t-16.5 -56.5q-3 -17 -6.5 -26.5t-6 -17t-4 -16t-1.5 -23.5z" />
<glyph unicode="&#xbb;" horiz-adv-x="1166" d="M122 160l2 9q95 88 190.5 180t186.5 183q-75 94 -153.5 192t-155.5 191l-1 6l1 7q41 -4 74 -6.5t74 -4.5q78 -90 150.5 -179t144.5 -183q-2 -14 -1.5 -27t-1.5 -27q-90 -89 -177.5 -174t-181.5 -170l8 3h-159zM588 173q88 87 175.5 175t174.5 176l-91 118 q-48 63 -96.5 124.5t-98.5 123.5q1 3 1 8v9q1 3 1 9l-12 -10q8 0 20.5 -0.5t20.5 -0.5q23 -1 44.5 -1h44.5h33l271 -356l-5 -29q-3 -17 -3 -28l-326 -338q-21 0 -39.5 0.5t-39.5 1.5l-74 3v4q0 4 -0.5 5.5t-0.5 5.5z" />
<glyph unicode="&#xbc;" horiz-adv-x="1758" d="M190 581l9 -9l13 95q103 4 208 6l12 146q9 116 17.5 239t13.5 238l-102 -67q-24 -15 -47 -30t-46 -31v99l198 115h110q-4 -65 -9.5 -128t-10.5 -127l-3 -42q-8 -103 -15.5 -207.5t-12.5 -205.5q50 -1 103 -3t103 -6l4 -88q-75 8 -150.5 11t-153.5 3q-60 0 -120.5 -2 t-120.5 -6zM362 13q124 168 241 338t235 341l46 67q109 158 217.5 313.5t223.5 311.5q32 3 61.5 6t60.5 7q-126 -173 -244.5 -344t-238.5 -347q-119 -174 -237.5 -344t-243.5 -341l9 5q-32 -2 -64.5 -5t-65.5 -8zM906 194q3 19 4 32.5t3 32.5l4 32l108 145q72 97 143 194 t145 193h27h40.5t40.5 1q8 0 14.5 0.5t14.5 0.5q-16 -135 -28.5 -269t-20.5 -268q23 -1 50.5 -1.5t52.5 -0.5q-1 -14 -1 -24.5v-24.5q-1 -5 -1 -10.5v-10.5v-22q-17 2 -29 2t-29 1l-45 3l-3 -22q-1 -29 -1.5 -62t-0.5 -65v-29q-9 0 -15.5 1t-14.5 1q-19 2 -39 3t-40 1 q1 44 3.5 86.5t4.5 86.5q-23 0 -50 0.5t-50 0.5q-72 0 -143.5 -2t-143.5 -6zM1005 287q49 1 106 1.5t105 0.5h83l13 183q3 42 6 86t7 87q1 3 1.5 12t1.5 15q0 8 1 16t3 16l-18 4q-20 -31 -41 -63.5t-47 -65.5z" />
<glyph unicode="&#xbd;" horiz-adv-x="1797" d="M97 581l9 -9l13 95q103 4 208 6l12 146q9 116 17.5 239t13.5 238l-102 -67q-24 -15 -47 -30t-46 -31v99l198 115h110q-4 -65 -9.5 -128t-10.5 -127l-3 -42q-8 -103 -15.5 -207.5t-12.5 -205.5q50 -1 103 -3t103 -6l4 -88q-75 8 -150.5 11t-153.5 3q-60 0 -120.5 -2 t-120.5 -6zM269 13q124 168 241 338t235 341l46 67q109 158 217.5 313.5t223.5 311.5q32 3 61.5 6t60.5 7q-126 -173 -244.5 -344t-238.5 -347q-119 -174 -237.5 -344t-243.5 -341l9 5q-32 -2 -64.5 -5t-65.5 -8zM1051 21l9 -9l13 100q23 41 54.5 77t67.5 68t75 61.5 t78 56.5q31 21 64 46.5t61.5 55t48.5 63.5t25 72q1 5 1 8.5v8.5q0 26 -10.5 48.5t-28.5 39t-41.5 26t-50.5 9.5h-8q-3 1 -6.5 1h-6.5q-26 0 -52.5 -11t-49 -29.5t-39 -43t-21.5 -50.5l-103 12q9 41 29.5 82t57.5 68q42 32 89.5 43t95.5 11h32q43 0 84 -11.5t72.5 -34.5 t50.5 -56.5t19 -76.5q0 -17 -3 -33q-5 -40 -22.5 -78t-44.5 -72t-60 -64t-67 -54l-23 -16q-2 -1 -6 -5q-35 -26 -74 -54.5t-71 -56.5q-23 -19 -46.5 -45.5t-41.5 -59.5q32 1 69.5 1.5t68.5 0.5q73 0 148.5 -2.5t147.5 -7.5q-1 -8 -1.5 -15t-0.5 -15q0 -11 0.5 -21.5 t1.5 -20.5l3 -22q-78 8 -157 11t-160 3q-136 0 -271 -9z" />
<glyph unicode="&#xbe;" horiz-adv-x="1741" d="M172 762v10q16 2 26.5 3.5t26.5 3.5q14 2 27.5 3t27.5 3q1 -31 15 -55t36.5 -40t51 -24t59.5 -8h20q26 0 53 6t53 21q27 24 40 51.5t21 73.5q0 4 0.5 7t0.5 6q0 32 -15.5 56t-40 40t-55 24t-61.5 8h-56q2 23 3 43.5t3 41.5h42q4 -1 8 -1h8q28 0 58 10t55 29t41 44.5 t16 57.5q1 7 1 11v8q0 25 -10.5 46.5t-28.5 36.5t-42 23.5t-50 8.5h-9q-5 1 -15 1q-26 0 -52 -9.5t-47.5 -26.5t-36.5 -40t-19 -50q-13 2 -19.5 2.5t-20.5 2.5q-15 2 -31 4t-33 5q6 38 23 74.5t50 64.5q52 35 105.5 45.5t101.5 10.5q53 0 104 -12t89 -42q26 -20 39.5 -52 t13.5 -68q0 -6 -0.5 -12t-1.5 -12q0 -18 -3 -30q-6 -29 -22 -55t-38.5 -47.5t-51 -36t-59.5 -19.5l-3 -20q36 -2 67 -16t53 -37.5t34.5 -54t12.5 -65.5v-10t-2 -10q0 -27 -6 -52q-6 -30 -19.5 -58t-38.5 -49q-51 -38 -103 -48.5t-102 -10.5h-13q-7 -1 -13 -1h-13 q-47 0 -93 10.5t-82 33t-58 57.5t-22 85zM384 13q124 168 241 338t235 341l46 67q109 158 217.5 313.5t223.5 311.5q32 3 61.5 6t60.5 7q-126 -173 -244.5 -344t-238.5 -347q-119 -174 -237.5 -344t-243.5 -341l9 5q-32 -2 -64.5 -5t-65.5 -8zM908 194q3 19 4 32.5t3 32.5 l4 32l108 145q72 97 143 194t145 193h27h40.5t40.5 1q8 0 14.5 0.5t14.5 0.5q-16 -135 -28.5 -269t-20.5 -268q23 -1 50.5 -1.5t52.5 -0.5q-1 -14 -1 -24.5v-24.5q-1 -5 -1 -10.5v-10.5v-22q-17 2 -29 2t-29 1l-45 3l-3 -22q-1 -29 -1.5 -62t-0.5 -65v-29q-9 0 -15.5 1 t-14.5 1q-19 2 -39 3t-40 1q1 44 3.5 86.5t4.5 86.5q-23 0 -50 0.5t-50 0.5q-72 0 -143.5 -2t-143.5 -6zM1007 287q49 1 106 1.5t105 0.5h83l13 183q3 42 6 86t7 87q1 3 1.5 12t1.5 15q0 8 1 16t3 16l-18 4q-20 -31 -41 -63.5t-47 -65.5z" />
<glyph unicode="&#xbf;" horiz-adv-x="1051" d="M65 14q0 14 1 28t3 28q1 11 3 21.5t5 21.5q11 51 35 101t60 94q28 33 61.5 60t68.5 52l77 55q51 36 88 86t48 107q2 5 3.5 12.5t1.5 12.5q48 -1 88.5 -1h88.5q-2 -13 -3.5 -21t-3.5 -21q-10 -45 -31 -90.5t-57 -88.5q-16 -21 -41 -41q-8 -6 -16 -11.5t-17 -10.5l-24 -16 q-32 -22 -63.5 -45.5t-61.5 -49.5q-31 -26 -50 -66t-24 -75q-1 -7 -1.5 -13.5t-0.5 -12.5q0 -43 18 -77t47.5 -58t68.5 -37t81 -13q8 0 17 0.5t17 1.5q38 1 82 17t77 46q26 24 44 53t23 61l62 -11q35 -6 70 -11.5t70 -12.5q-2 -9 -2.5 -14t-2.5 -14q-8 -36 -19.5 -73.5 t-29 -73t-42 -68t-58.5 -57.5q-36 -28 -75.5 -45t-80.5 -26.5t-82.5 -13t-81.5 -3.5h-12q-94 1 -181 21.5t-154 72.5q-48 38 -71 95.5t-23 123.5zM515 841l4 71q2 34 3 67t3 67q57 -2 107 -2.5t107 -0.5l-25 -204h-99.5t-99.5 2z" />
<glyph unicode="&#xc0;" horiz-adv-x="1394" d="M16 12q87 139 165 280t151 282.5t142 284t137 284.5q27 57 55.5 116t56.5 116q52 -2 101 -2.5t102 -0.5q36 -117 69 -231.5t65 -233.5l17 -64q59 -214 120.5 -422.5t140.5 -408.5q-62 6 -114 8.5t-109 2.5h-31q-17 64 -30.5 131t-26.5 133q-73 1 -149 1.5t-149 0.5 q-82 0 -167.5 -1t-168.5 -3q-24 -63 -49.5 -128t-51.5 -128q-72 -4 -138 -7.5t-138 -9.5zM377 1810q55 -3 103 -4.5t104 -1.5q26 -35 47.5 -68.5t44.5 -69.5l11 -18q20 -32 40.5 -62.5t43.5 -59.5q1 -5 1.5 -11t2.5 -11l1 -8q-29 2 -51 2.5t-51 1.5l5 -2q-54 44 -104 91 t-101 94l-94 87zM462 529q64 1 132.5 1.5t138.5 0.5h138.5h132.5l-124 491q-11 35 -19.5 73t-19.5 78l-21 78l-17 6q-18 -59 -47 -118t-54 -119l-80 -166q-38 -78 -79.5 -162.5t-80.5 -162.5z" />
<glyph unicode="&#xc1;" horiz-adv-x="1394" d="M16 12q87 139 165 280t151 282.5t142 284t137 284.5q27 57 55.5 116t56.5 116q52 -2 101 -2.5t102 -0.5q36 -117 69 -231.5t65 -233.5l17 -64q59 -214 120.5 -422.5t140.5 -408.5q-62 6 -114 8.5t-109 2.5h-31q-17 64 -30.5 131t-26.5 133q-73 1 -149 1.5t-149 0.5 q-82 0 -167.5 -1t-168.5 -3q-24 -63 -49.5 -128t-51.5 -128q-72 -4 -138 -7.5t-138 -9.5zM462 529q64 1 132.5 1.5t138.5 0.5h138.5h132.5l-124 491q-11 35 -19.5 73t-19.5 78l-21 78l-17 6q-18 -59 -47 -118t-54 -119l-80 -166q-38 -78 -79.5 -162.5t-80.5 -162.5z M600 1540q0 2 8 5q43 46 79.5 91.5t72.5 90.5q19 23 36.5 46.5t37.5 46.5q47 0 96.5 1.5t97.5 3.5q-1 -25 -18 -47t-41.5 -41t-51.5 -36.5t-47 -33.5q-43 -35 -90 -63t-92 -61q-9 -1 -18 -1.5t-18 -0.5q-8 -1 -21 -2t-22 -1t-9 2z" />
<glyph unicode="&#xc2;" horiz-adv-x="1394" d="M16 12q87 139 165 280t151 282.5t142 284t137 284.5q27 57 55.5 116t56.5 116q52 -2 101 -2.5t102 -0.5q36 -117 69 -231.5t65 -233.5l17 -64q59 -214 120.5 -422.5t140.5 -408.5q-62 6 -114 8.5t-109 2.5h-31q-17 64 -30.5 131t-26.5 133q-73 1 -149 1.5t-149 0.5 q-82 0 -167.5 -1t-168.5 -3q-24 -63 -49.5 -128t-51.5 -128q-72 -4 -138 -7.5t-138 -9.5zM423 1541q2 0 17 16.5t37.5 42t49 56.5t51 60t44.5 52.5t30 34.5q19 -1 35 -1h36h124q13 -17 25 -35t24 -35q32 -48 70.5 -99.5t77.5 -92.5l-3 5l1 -6h-82q-41 29 -80.5 60.5 t-74.5 61.5l-57 48q-63 -45 -125 -87.5t-124 -80.5q-8 0 -16 -0.5t-16 -0.5q-11 0 -18 0.5t-16 0.5h-10zM462 529q64 1 132.5 1.5t138.5 0.5h138.5h132.5l-124 491q-11 35 -19.5 73t-19.5 78l-21 78l-17 6q-18 -59 -47 -118t-54 -119l-80 -166q-38 -78 -79.5 -162.5 t-80.5 -162.5z" />
<glyph unicode="&#xc3;" horiz-adv-x="1394" d="M16 12q87 139 165 280t151 282.5t142 284t137 284.5q27 57 55.5 116t56.5 116q52 -2 101 -2.5t102 -0.5q36 -117 69 -231.5t65 -233.5l17 -64q59 -214 120.5 -422.5t140.5 -408.5q-62 6 -114 8.5t-109 2.5h-31q-17 64 -30.5 131t-26.5 133q-73 1 -149 1.5t-149 0.5 q-82 0 -167.5 -1t-168.5 -3q-24 -63 -49.5 -128t-51.5 -128q-72 -4 -138 -7.5t-138 -9.5zM423 1539q8 17 16.5 36.5t15.5 38.5q3 8 7 18.5t9 21.5q5 12 11 25q6 21 18.5 40t30 33.5t37.5 22.5t41 8q9 0 14 -1q47 -1 85.5 -19.5t74.5 -39.5q29 -18 60.5 -34t65.5 -22h9 q25 0 46 10.5t38 27.5t30.5 38t22.5 41h38h15.5t15.5 1q-12 -22 -20.5 -43.5t-16.5 -41.5l-6 -16q-10 -24 -20.5 -47.5t-23.5 -43.5q-17 -26 -46 -38.5t-57 -12.5h-10q-45 1 -84.5 19.5t-74.5 38.5q-29 17 -61.5 33t-70.5 24q-3 0 -5.5 0.5t-5.5 0.5q-24 0 -44.5 -11 t-37 -28t-29 -38t-21.5 -41q-9 -1 -18.5 -1h-18.5h-30zM462 529q64 1 132.5 1.5t138.5 0.5h138.5h132.5l-124 491q-11 35 -19.5 73t-19.5 78l-21 78l-17 6q-18 -59 -47 -118t-54 -119l-80 -166q-38 -78 -79.5 -162.5t-80.5 -162.5z" />
<glyph unicode="&#xc4;" horiz-adv-x="1394" d="M16 12q87 139 165 280t151 282.5t142 284t137 284.5q27 57 55.5 116t56.5 116q52 -2 101 -2.5t102 -0.5q36 -117 69 -231.5t65 -233.5l17 -64q59 -214 120.5 -422.5t140.5 -408.5q-62 6 -114 8.5t-109 2.5h-31q-17 64 -30.5 131t-26.5 133q-73 1 -149 1.5t-149 0.5 q-82 0 -167.5 -1t-168.5 -3q-24 -63 -49.5 -128t-51.5 -128q-72 -4 -138 -7.5t-138 -9.5zM462 529q64 1 132.5 1.5t138.5 0.5h138.5h132.5l-124 491q-11 35 -19.5 73t-19.5 78l-21 78l-17 6q-18 -59 -47 -118t-54 -119l-80 -166q-38 -78 -79.5 -162.5t-80.5 -162.5z M540 1557q12 5 17.5 18t9.5 29q6 27 6 56q0 16 -2 31t-5 29q11 0 20.5 -0.5t16.5 -0.5q26 -1 50.5 -1.5t50.5 -0.5q1 -9 1 -18v-19q0 -30 -3 -60.5t-8 -60.5q-42 -1 -77 -1.5t-77 -0.5zM938 1601q0 28 3.5 57t9.5 58q14 0 22 0.5t22 0.5h48t48 1q-5 -12 -8.5 -23.5 t-6.5 -24.5q-6 -27 -6 -55q0 -29 8 -58q-27 1 -45.5 1h-45.5h-12q-11 0 -19.5 -1t-14.5 -5q-3 24 -3 49z" />
<glyph unicode="&#xc5;" horiz-adv-x="1558" d="M97 12q87 139 165 280t151 282.5t142 284t137 284.5q27 57 55.5 116t56.5 116q52 -2 101 -2.5t102 -0.5q36 -117 69 -231.5t65 -233.5l17 -64q59 -214 120.5 -422.5t140.5 -408.5q-62 6 -114 8.5t-109 2.5h-31q-17 64 -30.5 131t-26.5 133q-73 1 -149 1.5t-149 0.5 q-82 0 -167.5 -1t-168.5 -3q-24 -63 -49.5 -128t-51.5 -128q-72 -4 -138 -7.5t-138 -9.5zM543 529q64 1 132.5 1.5t138.5 0.5h138.5h132.5l-124 491q-11 35 -19.5 73t-19.5 78l-21 78l-17 6q-18 -59 -47 -118t-54 -119l-80 -166q-38 -78 -79.5 -162.5t-80.5 -162.5z M759 1626v13.5t1 13.5q1 19 6 39q7 33 22.5 65t41.5 58q31 31 72 45t79 14h8q46 -1 87.5 -17t68.5 -48q25 -26 37 -60.5t12 -72.5v-12t-1 -13q-1 -19 -6 -37q-7 -33 -23 -65.5t-42 -58.5q-31 -32 -71.5 -46.5t-78.5 -14.5h-8q-47 0 -88 15.5t-70 46.5q-24 27 -35.5 62 t-11.5 73zM839 1635q0 -48 30 -83q16 -20 40 -31t53 -11h9q26 0 51.5 11t45.5 31q20 22 31.5 49t13.5 53v10q0 25 -7 47t-23 39q-17 18 -39.5 29.5t-51.5 11.5h-6q-25 0 -52.5 -11t-47.5 -31q-23 -20 -33.5 -46.5t-12.5 -52.5q-1 -5 -1 -15z" />
<glyph unicode="&#xc6;" horiz-adv-x="2157" d="M68 11q118 163 220.5 331.5t195.5 340t179.5 345.5t171.5 349q117 -2 228 -3.5t227 -1.5q184 0 369 3t371 11l-7 -34q-5 -25 -10 -49.5t-10 -50.5q-187 -6 -373 -8.5t-372 -2.5l-33 -454h327t327 2q-2 -22 -2.5 -39t-2.5 -38l-4 -53h-653l-2 -25q-8 -97 -15.5 -199.5 t-12.5 -197.5q192 -2 383.5 -5.5t381.5 -11.5q2 -54 7 -103t14 -106q-245 15 -484.5 20.5t-486.5 5.5l8 -9q7 100 14.5 203t15.5 203q-131 0 -268.5 -1.5t-268.5 -3.5q-60 -102 -124.5 -204.5t-134.5 -204.5zM573 554q38 0 81.5 0.5t81.5 0.5q76 1 157 1.5t156 0.5 q14 170 25.5 343.5t19.5 342.5l-9 8h-78t-77 1l-23 -49q-2 -5 -4.5 -9.5t-4.5 -9.5q-78 -156 -159 -316t-166 -314z" />
<glyph unicode="&#xc7;" horiz-adv-x="1457" d="M160 627q0 21 1 42t3 42q4 42 10 85.5t15 85.5q19 89 59 177t111 159q49 49 109 82.5t124.5 53.5t130 28.5t125.5 8.5q16 0 31 0.5t31 0.5q50 0 98 -4t96 -16q47 -11 92.5 -31.5t82.5 -49.5l-20 -149q-55 27 -111.5 51t-116.5 41q-45 13 -92 19t-98 7h-8 q-45 0 -93.5 -8.5t-96 -26.5t-91 -46t-77.5 -67q-52 -58 -84.5 -129.5t-47.5 -140.5q-7 -33 -9.5 -68t-4.5 -70q4 -45 10 -90t19 -87t35.5 -78t58.5 -62q34 -25 72.5 -41.5t80 -27t84.5 -16t87 -8.5q6 0 12 -0.5t12 -0.5q52 0 105.5 13.5t103.5 39t95.5 62t81.5 81.5 q-4 -67 -5.5 -124.5t-1.5 -117.5q0 -24 0.5 -47t1.5 -49v-33q-37 -29 -78 -53.5t-85 -34.5t-85 -13t-83 -3q-16 0 -30.5 0.5t-30.5 0.5h-28q-67 1 -133 11.5t-127 31.5t-114.5 53t-95.5 77q-35 44 -59.5 96.5t-40.5 109t-23.5 115.5t-7.5 118zM592 -383q5 20 7.5 38.5 t5.5 38.5q8 0 11 -0.5t5 -0.5q10 -1 21.5 -1.5t23.5 -0.5h11q21 1 47 4t49.5 12.5t40.5 27t19 46.5v8q0 24 -12.5 39t-31 23t-41 11t-42.5 3q-7 -1 -13.5 -1h-12.5h-15q4 11 6.5 16t7.5 16q11 30 23 62t23 62q20 -2 35.5 -1.5t35.5 -0.5h13q-12 -24 -22 -48.5t-21 -48.5h8 q31 0 60.5 -7t52.5 -21.5t37 -36t14 -51.5v-5v-12q0 -11 -2 -22.5t-3 -13.5q-10 -29 -26.5 -56.5t-46.5 -41.5q-48 -22 -92.5 -27.5t-88.5 -7.5h-7q-21 -2 -40.5 -2h-39.5z" />
<glyph unicode="&#xc8;" horiz-adv-x="1138" d="M42 26q51 309 81 619t30 619q0 34 -0.5 67.5t-1.5 66.5q129 -14 262.5 -20t267.5 -6q89 0 180 1.5t181 6.5q-3 -19 -4.5 -34t-3.5 -32l-9 -66q-90 -4 -173.5 -5.5t-172.5 -1.5q-90 0 -183.5 2.5t-181.5 6.5q-2 -111 -8 -231t-14 -232h187h211.5t211.5 1l-12 -128h-140 h-233.5t-233.5 -1q-2 -21 -4 -47t-4 -47l-17 -188q63 1 130 1.5t130 0.5q118 0 235 -2t234 -7q-2 -46 -3 -90.5t-1 -89.5t1 -89t3 -88q-129 13 -262 19t-267 6q-103 0 -207 -3.5t-209 -8.5zM149 1810q55 -3 103 -4.5t104 -1.5q26 -35 47.5 -68.5t44.5 -69.5l11 -18 q20 -32 40.5 -62.5t43.5 -59.5q1 -5 1.5 -11t2.5 -11l1 -8q-29 2 -51 2.5t-51 1.5l5 -2q-54 44 -104 91t-101 94l-94 87z" />
<glyph unicode="&#xc9;" horiz-adv-x="1138" d="M42 26q51 309 81 619t30 619q0 34 -0.5 67.5t-1.5 66.5q129 -14 262.5 -20t267.5 -6q89 0 180 1.5t181 6.5q-3 -19 -4.5 -34t-3.5 -32l-9 -66q-90 -4 -173.5 -5.5t-172.5 -1.5q-90 0 -183.5 2.5t-181.5 6.5q-2 -111 -8 -231t-14 -232h187h211.5t211.5 1l-12 -128h-140 h-233.5t-233.5 -1q-2 -21 -4 -47t-4 -47l-17 -188q63 1 130 1.5t130 0.5q118 0 235 -2t234 -7q-2 -46 -3 -90.5t-1 -89.5t1 -89t3 -88q-129 13 -262 19t-267 6q-103 0 -207 -3.5t-209 -8.5zM371 1540q0 2 8 5q43 46 79.5 91.5t72.5 90.5q19 23 36.5 46.5t37.5 46.5 q47 0 96.5 1.5t97.5 3.5q-1 -25 -18 -47t-41.5 -41t-51.5 -36.5t-47 -33.5q-43 -35 -90 -63t-92 -61q-9 -1 -18 -1.5t-18 -0.5q-8 -1 -21 -2t-22 -1t-9 2z" />
<glyph unicode="&#xca;" horiz-adv-x="1138" d="M42 26q51 309 81 619t30 619q0 34 -0.5 67.5t-1.5 66.5q129 -14 262.5 -20t267.5 -6q89 0 180 1.5t181 6.5q-3 -19 -4.5 -34t-3.5 -32l-9 -66q-90 -4 -173.5 -5.5t-172.5 -1.5q-90 0 -183.5 2.5t-181.5 6.5q-2 -111 -8 -231t-14 -232h187h211.5t211.5 1l-12 -128h-140 h-233.5t-233.5 -1q-2 -21 -4 -47t-4 -47l-17 -188q63 1 130 1.5t130 0.5q118 0 235 -2t234 -7q-2 -46 -3 -90.5t-1 -89.5t1 -89t3 -88q-129 13 -262 19t-267 6q-103 0 -207 -3.5t-209 -8.5zM195 1541q2 0 17 16.5t37.5 42t49 56.5t51 60t44.5 52.5t30 34.5q19 -1 35 -1h36 h124q13 -17 25 -35t24 -35q32 -48 70.5 -99.5t77.5 -92.5l-3 5l1 -6h-82q-41 29 -80.5 60.5t-74.5 61.5l-57 48q-63 -45 -125 -87.5t-124 -80.5q-8 0 -16 -0.5t-16 -0.5q-11 0 -18 0.5t-16 0.5h-10z" />
<glyph unicode="&#xcb;" horiz-adv-x="1138" d="M42 26q51 309 81 619t30 619q0 34 -0.5 67.5t-1.5 66.5q129 -14 262.5 -20t267.5 -6q89 0 180 1.5t181 6.5q-3 -19 -4.5 -34t-3.5 -32l-9 -66q-90 -4 -173.5 -5.5t-172.5 -1.5q-90 0 -183.5 2.5t-181.5 6.5q-2 -111 -8 -231t-14 -232h187h211.5t211.5 1l-12 -128h-140 h-233.5t-233.5 -1q-2 -21 -4 -47t-4 -47l-17 -188q63 1 130 1.5t130 0.5q118 0 235 -2t234 -7q-2 -46 -3 -90.5t-1 -89.5t1 -89t3 -88q-129 13 -262 19t-267 6q-103 0 -207 -3.5t-209 -8.5zM311 1557q12 5 17.5 18t9.5 29q6 27 6 56q0 16 -2 31t-5 29q11 0 20.5 -0.5 t16.5 -0.5q26 -1 50.5 -1.5t50.5 -0.5q1 -9 1 -18v-19q0 -30 -3 -60.5t-8 -60.5q-42 -1 -77 -1.5t-77 -0.5zM709 1601q0 28 3.5 57t9.5 58q14 0 22 0.5t22 0.5h48t48 1q-5 -12 -8.5 -23.5t-6.5 -24.5q-6 -27 -6 -55q0 -29 8 -58q-27 1 -45.5 1h-45.5h-12q-11 0 -19.5 -1 t-14.5 -5q-3 24 -3 49z" />
<glyph unicode="&#xcc;" horiz-adv-x="552" d="M23 1810q55 -3 103 -4.5t104 -1.5q26 -35 47.5 -68.5t44.5 -69.5l11 -18q20 -32 40.5 -62.5t43.5 -59.5q1 -5 1.5 -11t2.5 -11l1 -8q-29 2 -51 2.5t-51 1.5l5 -2q-54 44 -104 91t-101 94l-94 87zM113 34l37 234q34 282 65.5 564.5t53.5 563.5q42 -14 89.5 -18.5 t94.5 -5.5q-6 -121 -13.5 -252.5t-15.5 -251.5q-14 -215 -26.5 -427t-17.5 -427q-44 11 -93 17t-99 6q-38 0 -75 -3z" />
<glyph unicode="&#xcd;" horiz-adv-x="552" d="M-2 34l37 234q34 282 65.5 564.5t53.5 563.5q42 -14 89.5 -18.5t94.5 -5.5q-6 -121 -13.5 -252.5t-15.5 -251.5q-14 -215 -26.5 -427t-17.5 -427q-44 11 -93 17t-99 6q-38 0 -75 -3zM127 1540q0 2 8 5q43 46 79.5 91.5t72.5 90.5q19 23 36.5 46.5t37.5 46.5 q47 0 96.5 1.5t97.5 3.5q-1 -25 -18 -47t-41.5 -41t-51.5 -36.5t-47 -33.5q-43 -35 -90 -63t-92 -61q-9 -1 -18 -1.5t-18 -0.5q-8 -1 -21 -2t-22 -1t-9 2z" />
<glyph unicode="&#xce;" horiz-adv-x="552" d="M-26 1541q2 0 17 16.5t37.5 42t49 56.5t51 60t44.5 52.5t30 34.5q19 -1 35 -1h36h124q13 -17 25 -35t24 -35q32 -48 70.5 -99.5t77.5 -92.5l-3 5l1 -6h-82q-41 29 -80.5 60.5t-74.5 61.5l-57 48q-63 -45 -125 -87.5t-124 -80.5q-8 0 -16 -0.5t-16 -0.5q-11 0 -18 0.5 t-16 0.5h-10zM20 34l37 234q34 282 65.5 564.5t53.5 563.5q42 -14 89.5 -18.5t94.5 -5.5q-6 -121 -13.5 -252.5t-15.5 -251.5q-14 -215 -26.5 -427t-17.5 -427q-44 11 -93 17t-99 6q-38 0 -75 -3z" />
<glyph unicode="&#xcf;" horiz-adv-x="552" d="M-50 34l37 234q34 282 65.5 564.5t53.5 563.5q42 -14 89.5 -18.5t94.5 -5.5q-6 -121 -13.5 -252.5t-15.5 -251.5q-14 -215 -26.5 -427t-17.5 -427q-44 11 -93 17t-99 6q-38 0 -75 -3zM21 1557q12 5 17.5 18t9.5 29q6 27 6 56q0 16 -2 31t-5 29q11 0 20.5 -0.5t16.5 -0.5 q26 -1 50.5 -1.5t50.5 -0.5q1 -9 1 -18v-19q0 -30 -3 -60.5t-8 -60.5q-42 -1 -77 -1.5t-77 -0.5zM419 1601q0 28 3.5 57t9.5 58q14 0 22 0.5t22 0.5h48t48 1q-5 -12 -8.5 -23.5t-6.5 -24.5q-6 -27 -6 -55q0 -29 8 -58q-27 1 -45.5 1h-45.5h-12q-11 0 -19.5 -1t-14.5 -5 q-3 24 -3 49z" />
<glyph unicode="&#xd0;" horiz-adv-x="1413" d="M102 25q48 298 76.5 593t28.5 586q0 49 -1 97.5t-3 97.5q110 -11 220.5 -17t224.5 -8q73 -2 146.5 -10.5t141.5 -27.5t129 -50.5t110 -78.5q37 -36 62 -80t40.5 -93.5t22 -103.5t6.5 -109q0 -26 -1.5 -51t-3.5 -51q-3 -38 -8.5 -77.5t-13.5 -78.5q-19 -89 -59 -178 t-105 -164q-50 -51 -107.5 -86t-118.5 -57t-122.5 -31.5t-119.5 -9.5h-75q-118 0 -234.5 -2.5t-235.5 -9.5zM161 616q38 34 45 73q3 12 3 25q0 34 -19 63q70 -1 136 -1.5t131.5 -1t131.5 -0.5h137q302 0 607 3q-22 -27 -30 -59q-2 -6 -2 -12v-12q0 -36 18 -61 q-74 1 -144 1.5t-139 1t-139.5 0.5h-144.5q-149 0 -296.5 -3t-294.5 -17zM309 346q75 2 154.5 3t154.5 1h6q43 0 88 5.5t90 18t88.5 33t82.5 50.5q72 63 111.5 135t54.5 145q4 19 6.5 37.5t4.5 35.5q3 28 3 56q0 77 -24.5 145.5t-80.5 115.5q-42 35 -90 57.5t-100.5 35 t-107.5 18t-109 6.5q-66 2 -138 4t-138 5q-2 -232 -17.5 -456.5t-38.5 -450.5z" />
<glyph unicode="&#xd1;" horiz-adv-x="1384" d="M30 21q72 348 114 692.5t42 684.5q61 -7 116.5 -10.5t117.5 -6.5q121 -176 239.5 -367.5t228.5 -374.5l157 -259l18 7q24 499 90 990q43 2 84 4t83 4q-46 -286 -75.5 -568.5t-29.5 -562.5q0 -61 2 -121.5t5 -120.5q-75 7 -145 10.5t-145 7.5q-5 0 -11 0.5t-12 0.5l7 -4 q-87 160 -164 324t-152 331q-56 125 -113.5 249t-117.5 246l-19 -7q3 -110 3 -220q0 -229 -9 -457.5t-22 -458.5q-77 -2 -146.5 -4.5t-145.5 -8.5zM301 1539q8 17 16.5 36.5t15.5 38.5q3 8 7 18.5t9 21.5q5 12 11 25q6 21 18.5 40t30 33.5t37.5 22.5t41 8q9 0 14 -1 q47 -1 85.5 -19.5t74.5 -39.5q29 -18 60.5 -34t65.5 -22h9q25 0 46 10.5t38 27.5t30.5 38t22.5 41h38h15.5t15.5 1q-12 -22 -20.5 -43.5t-16.5 -41.5l-6 -16q-10 -24 -20.5 -47.5t-23.5 -43.5q-17 -26 -46 -38.5t-57 -12.5h-10q-45 1 -84.5 19.5t-74.5 38.5q-29 17 -61.5 33 t-70.5 24q-3 0 -5.5 0.5t-5.5 0.5q-24 0 -44.5 -11t-37 -28t-29 -38t-21.5 -41q-9 -1 -18.5 -1h-18.5h-30z" />
<glyph unicode="&#xd2;" d="M153 630q0 42 3 81q5 42 10.5 86t14.5 87q19 88 59.5 176.5t109.5 158.5q49 50 108.5 83.5t122.5 53t128 27.5t125 8h23q66 0 130.5 -9.5t124 -30t111 -52t90.5 -76.5q37 -42 63 -91.5t42 -103t23.5 -110.5t7.5 -114q0 -24 -1.5 -48t-3.5 -47q-3 -41 -9 -81.5t-14 -81.5 q-19 -88 -58.5 -177.5t-102.5 -164.5q-51 -52 -109 -88t-119.5 -58t-124 -32t-120.5 -10q-8 0 -15.5 0.5t-15.5 0.5h-10q-66 0 -131.5 10t-125.5 30.5t-112.5 52.5t-93.5 77q-35 45 -59.5 97.5t-40 109.5t-23 117t-7.5 119zM317 701q0 -39 5 -78t17 -74.5t31.5 -65.5 t49.5 -52q71 -52 162.5 -71.5t187.5 -19.5q45 0 91 3t92.5 12t92.5 26t89 45q60 44 91 104.5t45 124.5q6 29 9.5 56.5t5.5 53.5q2 19 3 37.5t1 37.5q0 82 -21.5 157t-72.5 133q-30 35 -69.5 60t-84.5 40.5t-94.5 22.5t-100.5 7h-13q-46 0 -95 -6t-96.5 -20.5t-92.5 -39.5 t-83 -63q-55 -54 -86 -119t-45 -133q-6 -29 -10 -59t-6 -57q-3 -32 -3 -62zM502 1810q55 -3 103 -4.5t104 -1.5q26 -35 47.5 -68.5t44.5 -69.5l11 -18q20 -32 40.5 -62.5t43.5 -59.5q1 -5 1.5 -11t2.5 -11l1 -8q-29 2 -51 2.5t-51 1.5l5 -2q-54 44 -104 91t-101 94l-94 87z " />
<glyph unicode="&#xd3;" d="M153 630q0 42 3 81q5 42 10.5 86t14.5 87q19 88 59.5 176.5t109.5 158.5q49 50 108.5 83.5t122.5 53t128 27.5t125 8h23q66 0 130.5 -9.5t124 -30t111 -52t90.5 -76.5q37 -42 63 -91.5t42 -103t23.5 -110.5t7.5 -114q0 -24 -1.5 -48t-3.5 -47q-3 -41 -9 -81.5t-14 -81.5 q-19 -88 -58.5 -177.5t-102.5 -164.5q-51 -52 -109 -88t-119.5 -58t-124 -32t-120.5 -10q-8 0 -15.5 0.5t-15.5 0.5h-10q-66 0 -131.5 10t-125.5 30.5t-112.5 52.5t-93.5 77q-35 45 -59.5 97.5t-40 109.5t-23 117t-7.5 119zM317 701q0 -39 5 -78t17 -74.5t31.5 -65.5 t49.5 -52q71 -52 162.5 -71.5t187.5 -19.5q45 0 91 3t92.5 12t92.5 26t89 45q60 44 91 104.5t45 124.5q6 29 9.5 56.5t5.5 53.5q2 19 3 37.5t1 37.5q0 82 -21.5 157t-72.5 133q-30 35 -69.5 60t-84.5 40.5t-94.5 22.5t-100.5 7h-13q-46 0 -95 -6t-96.5 -20.5t-92.5 -39.5 t-83 -63q-55 -54 -86 -119t-45 -133q-6 -29 -10 -59t-6 -57q-3 -32 -3 -62zM725 1540q0 2 8 5q43 46 79.5 91.5t72.5 90.5q19 23 36.5 46.5t37.5 46.5q47 0 96.5 1.5t97.5 3.5q-1 -25 -18 -47t-41.5 -41t-51.5 -36.5t-47 -33.5q-43 -35 -90 -63t-92 -61q-9 -1 -18 -1.5 t-18 -0.5q-8 -1 -21 -2t-22 -1t-9 2z" />
<glyph unicode="&#xd4;" d="M153 630q0 42 3 81q5 42 10.5 86t14.5 87q19 88 59.5 176.5t109.5 158.5q49 50 108.5 83.5t122.5 53t128 27.5t125 8h23q66 0 130.5 -9.5t124 -30t111 -52t90.5 -76.5q37 -42 63 -91.5t42 -103t23.5 -110.5t7.5 -114q0 -24 -1.5 -48t-3.5 -47q-3 -41 -9 -81.5t-14 -81.5 q-19 -88 -58.5 -177.5t-102.5 -164.5q-51 -52 -109 -88t-119.5 -58t-124 -32t-120.5 -10q-8 0 -15.5 0.5t-15.5 0.5h-10q-66 0 -131.5 10t-125.5 30.5t-112.5 52.5t-93.5 77q-35 45 -59.5 97.5t-40 109.5t-23 117t-7.5 119zM317 701q0 -39 5 -78t17 -74.5t31.5 -65.5 t49.5 -52q71 -52 162.5 -71.5t187.5 -19.5q45 0 91 3t92.5 12t92.5 26t89 45q60 44 91 104.5t45 124.5q6 29 9.5 56.5t5.5 53.5q2 19 3 37.5t1 37.5q0 82 -21.5 157t-72.5 133q-30 35 -69.5 60t-84.5 40.5t-94.5 22.5t-100.5 7h-13q-46 0 -95 -6t-96.5 -20.5t-92.5 -39.5 t-83 -63q-55 -54 -86 -119t-45 -133q-6 -29 -10 -59t-6 -57q-3 -32 -3 -62zM548 1541q2 0 17 16.5t37.5 42t49 56.5t51 60t44.5 52.5t30 34.5q19 -1 35 -1h36h124q13 -17 25 -35t24 -35q32 -48 70.5 -99.5t77.5 -92.5l-3 5l1 -6h-82q-41 29 -80.5 60.5t-74.5 61.5l-57 48 q-63 -45 -125 -87.5t-124 -80.5q-8 0 -16 -0.5t-16 -0.5q-11 0 -18 0.5t-16 0.5h-10z" />
<glyph unicode="&#xd5;" d="M153 630q0 42 3 81q5 42 10.5 86t14.5 87q19 88 59.5 176.5t109.5 158.5q49 50 108.5 83.5t122.5 53t128 27.5t125 8h23q66 0 130.5 -9.5t124 -30t111 -52t90.5 -76.5q37 -42 63 -91.5t42 -103t23.5 -110.5t7.5 -114q0 -24 -1.5 -48t-3.5 -47q-3 -41 -9 -81.5t-14 -81.5 q-19 -88 -58.5 -177.5t-102.5 -164.5q-51 -52 -109 -88t-119.5 -58t-124 -32t-120.5 -10q-8 0 -15.5 0.5t-15.5 0.5h-10q-66 0 -131.5 10t-125.5 30.5t-112.5 52.5t-93.5 77q-35 45 -59.5 97.5t-40 109.5t-23 117t-7.5 119zM317 701q0 -39 5 -78t17 -74.5t31.5 -65.5 t49.5 -52q71 -52 162.5 -71.5t187.5 -19.5q45 0 91 3t92.5 12t92.5 26t89 45q60 44 91 104.5t45 124.5q6 29 9.5 56.5t5.5 53.5q2 19 3 37.5t1 37.5q0 82 -21.5 157t-72.5 133q-30 35 -69.5 60t-84.5 40.5t-94.5 22.5t-100.5 7h-13q-46 0 -95 -6t-96.5 -20.5t-92.5 -39.5 t-83 -63q-55 -54 -86 -119t-45 -133q-6 -29 -10 -59t-6 -57q-3 -32 -3 -62zM548 1539q8 17 16.5 36.5t15.5 38.5q3 8 7 18.5t9 21.5q5 12 11 25q6 21 18.5 40t30 33.5t37.5 22.5t41 8q9 0 14 -1q47 -1 85.5 -19.5t74.5 -39.5q29 -18 60.5 -34t65.5 -22h9q25 0 46 10.5 t38 27.5t30.5 38t22.5 41h38h15.5t15.5 1q-12 -22 -20.5 -43.5t-16.5 -41.5l-6 -16q-10 -24 -20.5 -47.5t-23.5 -43.5q-17 -26 -46 -38.5t-57 -12.5h-10q-45 1 -84.5 19.5t-74.5 38.5q-29 17 -61.5 33t-70.5 24q-3 0 -5.5 0.5t-5.5 0.5q-24 0 -44.5 -11t-37 -28t-29 -38 t-21.5 -41q-9 -1 -18.5 -1h-18.5h-30z" />
<glyph unicode="&#xd6;" d="M153 630q0 42 3 81q5 42 10.5 86t14.5 87q19 88 59.5 176.5t109.5 158.5q49 50 108.5 83.5t122.5 53t128 27.5t125 8h23q66 0 130.5 -9.5t124 -30t111 -52t90.5 -76.5q37 -42 63 -91.5t42 -103t23.5 -110.5t7.5 -114q0 -24 -1.5 -48t-3.5 -47q-3 -41 -9 -81.5t-14 -81.5 q-19 -88 -58.5 -177.5t-102.5 -164.5q-51 -52 -109 -88t-119.5 -58t-124 -32t-120.5 -10q-8 0 -15.5 0.5t-15.5 0.5h-10q-66 0 -131.5 10t-125.5 30.5t-112.5 52.5t-93.5 77q-35 45 -59.5 97.5t-40 109.5t-23 117t-7.5 119zM317 701q0 -39 5 -78t17 -74.5t31.5 -65.5 t49.5 -52q71 -52 162.5 -71.5t187.5 -19.5q45 0 91 3t92.5 12t92.5 26t89 45q60 44 91 104.5t45 124.5q6 29 9.5 56.5t5.5 53.5q2 19 3 37.5t1 37.5q0 82 -21.5 157t-72.5 133q-30 35 -69.5 60t-84.5 40.5t-94.5 22.5t-100.5 7h-13q-46 0 -95 -6t-96.5 -20.5t-92.5 -39.5 t-83 -63q-55 -54 -86 -119t-45 -133q-6 -29 -10 -59t-6 -57q-3 -32 -3 -62zM665 1557q12 5 17.5 18t9.5 29q6 27 6 56q0 16 -2 31t-5 29q11 0 20.5 -0.5t16.5 -0.5q26 -1 50.5 -1.5t50.5 -0.5q1 -9 1 -18v-19q0 -30 -3 -60.5t-8 -60.5q-42 -1 -77 -1.5t-77 -0.5zM1063 1601 q0 28 3.5 57t9.5 58q14 0 22 0.5t22 0.5h48t48 1q-5 -12 -8.5 -23.5t-6.5 -24.5q-6 -27 -6 -55q0 -29 8 -58q-27 1 -45.5 1h-45.5h-12q-11 0 -19.5 -1t-14.5 -5q-3 24 -3 49z" />
<glyph unicode="&#xd7;" horiz-adv-x="1176" d="M129 329q88 79 178 163t178 167l27 26l-319 351q12 11 22 22l20 22q9 10 18.5 20t18.5 18q84 -87 165 -174t162 -176q91 87 184.5 173t187.5 169l53 -59l21 -26q-94 -85 -185.5 -170t-183.5 -173l18 -20q74 -83 150 -167t152 -164l-77 -83q-86 86 -167.5 172.5 t-162.5 176.5q-91 -88 -187 -175t-191 -172q-13 12 -22 23.5t-20 25.5q-9 11 -17.5 22.5t-18.5 22.5z" />
<glyph unicode="&#xd8;" d="M153 630q0 42 3 81q5 42 10.5 86t14.5 87q19 88 59.5 176.5t109.5 158.5q49 50 108.5 83.5t122.5 53t128 27.5t125 8h23q66 0 130.5 -9.5t124 -30t111 -52t90.5 -76.5q37 -42 63 -91.5t42 -103t23.5 -110.5t7.5 -114q0 -24 -1.5 -48t-3.5 -47q-3 -41 -9 -81.5t-14 -81.5 q-19 -88 -58.5 -177.5t-102.5 -164.5q-51 -52 -109 -88t-119.5 -58t-124 -32t-120.5 -10q-8 0 -15.5 0.5t-15.5 0.5h-10q-66 0 -131.5 10t-125.5 30.5t-112.5 52.5t-93.5 77q-35 45 -59.5 97.5t-40 109.5t-23 117t-7.5 119zM317 701q0 -39 5 -78t17 -74.5t31.5 -65.5 t49.5 -52q71 -52 162.5 -71.5t187.5 -19.5q45 0 91 3t92.5 12t92.5 26t89 45q60 44 91 104.5t45 124.5q6 29 9.5 56.5t5.5 53.5q2 19 3 37.5t1 37.5q0 82 -21.5 157t-72.5 133q-30 35 -69.5 60t-84.5 40.5t-94.5 22.5t-100.5 7h-13q-46 0 -95 -6t-96.5 -20.5t-92.5 -39.5 t-83 -63q-55 -54 -86 -119t-45 -133q-6 -29 -10 -59t-6 -57q-3 -32 -3 -62zM412 -42q92 246 176 490.5t169 492.5q45 131 88.5 261t89.5 261q49 1 97 6.5t96 19.5q-93 -250 -175.5 -493.5t-167.5 -492.5l-171 -504h-34q-18 0 -33 -0.5t-30.5 -3t-33.5 -6.5t-40 -10z" />
<glyph unicode="&#xd9;" horiz-adv-x="1383" d="M103 444q0 35 3 71q18 180 29 358t11 355q0 86 -3 170q41 -5 76.5 -7t76.5 -5v-62q0 -155 -6 -309t-16 -310q-1 -10 -1 -20v-20q0 -60 13.5 -116t45.5 -103q27 -34 60 -56.5t70 -36t77 -19t80 -5.5h7q35 0 72.5 4t74.5 14.5t72 28t67 44.5q48 41 73.5 93.5t36.5 107.5 q5 23 8 46.5t5 44.5q14 167 31 332t40 333q48 2 91.5 5t91.5 6q-38 -211 -62 -430.5t-39 -427.5q-3 -50 -14 -100q-16 -75 -49.5 -148t-96.5 -131q-45 -42 -95 -68t-102 -41t-104.5 -20.5t-101.5 -5.5h-17q-53 0 -106.5 7.5t-103.5 22.5t-95.5 38t-82.5 54q-62 60 -89.5 140 t-27.5 166zM319 1810q55 -3 103 -4.5t104 -1.5q26 -35 47.5 -68.5t44.5 -69.5l11 -18q20 -32 40.5 -62.5t43.5 -59.5q1 -5 1.5 -11t2.5 -11l1 -8q-29 2 -51 2.5t-51 1.5l5 -2q-54 44 -104 91t-101 94l-94 87z" />
<glyph unicode="&#xda;" horiz-adv-x="1383" d="M103 444q0 35 3 71q18 180 29 358t11 355q0 86 -3 170q41 -5 76.5 -7t76.5 -5v-62q0 -155 -6 -309t-16 -310q-1 -10 -1 -20v-20q0 -60 13.5 -116t45.5 -103q27 -34 60 -56.5t70 -36t77 -19t80 -5.5h7q35 0 72.5 4t74.5 14.5t72 28t67 44.5q48 41 73.5 93.5t36.5 107.5 q5 23 8 46.5t5 44.5q14 167 31 332t40 333q48 2 91.5 5t91.5 6q-38 -211 -62 -430.5t-39 -427.5q-3 -50 -14 -100q-16 -75 -49.5 -148t-96.5 -131q-45 -42 -95 -68t-102 -41t-104.5 -20.5t-101.5 -5.5h-17q-53 0 -106.5 7.5t-103.5 22.5t-95.5 38t-82.5 54q-62 60 -89.5 140 t-27.5 166zM541 1540q0 2 8 5q43 46 79.5 91.5t72.5 90.5q19 23 36.5 46.5t37.5 46.5q47 0 96.5 1.5t97.5 3.5q-1 -25 -18 -47t-41.5 -41t-51.5 -36.5t-47 -33.5q-43 -35 -90 -63t-92 -61q-9 -1 -18 -1.5t-18 -0.5q-8 -1 -21 -2t-22 -1t-9 2z" />
<glyph unicode="&#xdb;" horiz-adv-x="1383" d="M103 444q0 35 3 71q18 180 29 358t11 355q0 86 -3 170q41 -5 76.5 -7t76.5 -5v-62q0 -155 -6 -309t-16 -310q-1 -10 -1 -20v-20q0 -60 13.5 -116t45.5 -103q27 -34 60 -56.5t70 -36t77 -19t80 -5.5h7q35 0 72.5 4t74.5 14.5t72 28t67 44.5q48 41 73.5 93.5t36.5 107.5 q5 23 8 46.5t5 44.5q14 167 31 332t40 333q48 2 91.5 5t91.5 6q-38 -211 -62 -430.5t-39 -427.5q-3 -50 -14 -100q-16 -75 -49.5 -148t-96.5 -131q-45 -42 -95 -68t-102 -41t-104.5 -20.5t-101.5 -5.5h-17q-53 0 -106.5 7.5t-103.5 22.5t-95.5 38t-82.5 54q-62 60 -89.5 140 t-27.5 166zM365 1541q2 0 17 16.5t37.5 42t49 56.5t51 60t44.5 52.5t30 34.5q19 -1 35 -1h36h124q13 -17 25 -35t24 -35q32 -48 70.5 -99.5t77.5 -92.5l-3 5l1 -6h-82q-41 29 -80.5 60.5t-74.5 61.5l-57 48q-63 -45 -125 -87.5t-124 -80.5q-8 0 -16 -0.5t-16 -0.5 q-11 0 -18 0.5t-16 0.5h-10z" />
<glyph unicode="&#xdc;" horiz-adv-x="1383" d="M103 444q0 35 3 71q18 180 29 358t11 355q0 86 -3 170q41 -5 76.5 -7t76.5 -5v-62q0 -155 -6 -309t-16 -310q-1 -10 -1 -20v-20q0 -60 13.5 -116t45.5 -103q27 -34 60 -56.5t70 -36t77 -19t80 -5.5h7q35 0 72.5 4t74.5 14.5t72 28t67 44.5q48 41 73.5 93.5t36.5 107.5 q5 23 8 46.5t5 44.5q14 167 31 332t40 333q48 2 91.5 5t91.5 6q-38 -211 -62 -430.5t-39 -427.5q-3 -50 -14 -100q-16 -75 -49.5 -148t-96.5 -131q-45 -42 -95 -68t-102 -41t-104.5 -20.5t-101.5 -5.5h-17q-53 0 -106.5 7.5t-103.5 22.5t-95.5 38t-82.5 54q-62 60 -89.5 140 t-27.5 166zM481 1557q12 5 17.5 18t9.5 29q6 27 6 56q0 16 -2 31t-5 29q11 0 20.5 -0.5t16.5 -0.5q26 -1 50.5 -1.5t50.5 -0.5q1 -9 1 -18v-19q0 -30 -3 -60.5t-8 -60.5q-42 -1 -77 -1.5t-77 -0.5zM879 1601q0 28 3.5 57t9.5 58q14 0 22 0.5t22 0.5h48t48 1 q-5 -12 -8.5 -23.5t-6.5 -24.5q-6 -27 -6 -55q0 -29 8 -58q-27 1 -45.5 1h-45.5h-12q-11 0 -19.5 -1t-14.5 -5q-3 24 -3 49z" />
<glyph unicode="&#xdd;" horiz-adv-x="1476" d="M132 1397q50 -5 89 -8.5t89 -5.5q100 -161 196.5 -327t189.5 -331l60 85q103 146 207.5 289.5t216.5 284.5q48 3 94.5 7t94.5 8q-146 -198 -279.5 -406.5t-264.5 -419.5l-42 -66q5 -120 13.5 -240t22.5 -238q-87 5 -166.5 6.5t-166.5 1.5q13 72 24.5 140.5t24.5 139.5 l35 194l-58 121q-94 197 -185.5 385.5t-194.5 379.5zM678 1540q0 2 8 5q43 46 79.5 91.5t72.5 90.5q19 23 36.5 46.5t37.5 46.5q47 0 96.5 1.5t97.5 3.5q-1 -25 -18 -47t-41.5 -41t-51.5 -36.5t-47 -33.5q-43 -35 -90 -63t-92 -61q-9 -1 -18 -1.5t-18 -0.5q-8 -1 -21 -2 t-22 -1t-9 2z" />
<glyph unicode="&#xde;" horiz-adv-x="1251" d="M142 26q45 311 73.5 621t28.5 615q0 35 -0.5 68.5t-1.5 67.5q45 -5 81.5 -8.5t81.5 -6.5v-48q0 -51 -0.5 -100.5t-1.5 -100.5q96 -4 196 -5t198 -1q47 0 94 -4.5t90.5 -15.5t82.5 -30t71 -48q49 -45 70 -108t21 -134q0 -26 -3 -53l-4 -36t-6 -36q-13 -59 -40 -116 t-75 -102q-39 -36 -83 -59.5t-89 -37.5t-89.5 -19.5t-84.5 -5.5h-140q-64 0 -133.5 -0.5t-133.5 -2.5q-8 -70 -14.5 -142.5t-14.5 -143.5q-45 -2 -87.5 -3.5t-86.5 -4.5zM355 436q67 1 139 1.5t139 0.5h98q55 0 114 13.5t110 53.5q44 41 68 86.5t33 90.5q3 14 4.5 26t2.5 23 q2 12 3 23.5t1 22.5q0 54 -22.5 97.5t-61 74t-88.5 47t-104 16.5q-6 0 -11.5 -0.5t-11.5 -0.5q-91 0 -186 0.5t-185 2.5q-8 -140 -18.5 -288.5t-23.5 -289.5z" />
<glyph unicode="&#xdf;" horiz-adv-x="1254" d="M125 26q35 253 61.5 502.5t38.5 497.5q2 32 5.5 66t10.5 68q10 46 28.5 90t50.5 83q38 37 79 59t83.5 34t85 15.5t83.5 3.5h25q79 -1 154.5 -17.5t136.5 -58.5q41 -28 63.5 -73t22.5 -99q0 -7 -0.5 -13.5t-1.5 -13.5q-1 -11 -2 -19t-3 -16q-12 -55 -43.5 -105.5 t-76.5 -90.5l-37 -33q-17 -15 -33.5 -30.5t-30.5 -32.5q-22 -27 -22 -60q2 -27 13 -48t26.5 -38.5t35.5 -32.5t40 -29q13 -8 25 -17t23 -18q33 -24 61.5 -55t49 -67t32.5 -77t12 -86q0 -5 -0.5 -10t-0.5 -10q0 -20 -2 -39t-6 -39q-8 -38 -26 -74t-50 -65 q-54 -38 -110.5 -51.5t-107.5 -13.5h-18t-17 1q-71 2 -140 12t-130 36q3 44 5 82.5t7 82.5q25 -14 53 -23.5t57 -16.5q34 -8 70 -14t74 -8q32 1 65 6t65 25q31 23 45.5 48t19.5 51q5 20 5 38v7q0 38 -14 69.5t-37 56.5t-53 43t-62 29q-28 20 -54 44.5t-46.5 53.5t-32.5 63.5 t-12 74.5v13t1 13v14t2 12q9 42 40 79.5t68 66.5q22 17 44 37.5t40 44t29.5 49.5t13.5 53v10q0 35 -17 64.5t-43 48.5q-35 26 -80 36.5t-92 11.5h-9q-51 0 -105 -12t-99 -52q-35 -41 -53.5 -81.5t-26.5 -79.5q-5 -24 -7.5 -48t-3.5 -45q-14 -245 -35.5 -487.5t-46.5 -488.5 q-42 -2 -82 -3.5t-81 -3.5z" />
<glyph unicode="&#xe0;" horiz-adv-x="1252" d="M114 241q0 16 1.5 32t3.5 32v6q2 11 3.5 22t4.5 20q6 31 19 63.5t32 61.5t44 54t56 43q81 40 155 52.5t143 12.5h239l6 88q1 7 1.5 13.5t0.5 13.5q0 37 -7.5 72t-28.5 63q-35 40 -82 53t-96 14h-19q-34 0 -67.5 -4.5t-68.5 -19.5q-24 -12 -40.5 -28t-27.5 -34.5 t-17.5 -37.5t-9.5 -37q-26 2 -45 5t-44 7q-14 3 -29.5 5t-30.5 4q-2 0 -3 0.5t-3 0.5q4 30 15.5 61t29.5 59t42.5 50.5t56.5 36.5q65 29 128 37t120 8h17q66 0 127.5 -11.5t114.5 -39.5q66 -41 94 -104t28 -135q0 -26 -3 -51q-9 -95 -16 -189.5t-13 -188.5l1 -18 q2 -26 5 -52.5t11 -50.5q9 -23 31 -35.5t48 -12.5h12q9 0 18 0.5t18 1.5v-31q0 -36 1.5 -69t3.5 -70q-38 -6 -77 -6q-11 0 -20.5 0.5t-19.5 1.5h-12q-41 0 -73 16t-54 43t-34 62.5t-12 74.5v11t1 12h-22q-26 -53 -66.5 -94t-88.5 -69t-101 -43t-104 -15q-5 0 -10.5 0.5 t-11.5 0.5q-30 0 -60.5 2.5t-58.5 9.5t-53.5 20t-44.5 33q-33 35 -45.5 78.5t-12.5 88.5zM223 1483q55 -3 103 -4.5t104 -1.5q26 -35 47.5 -68.5t44.5 -69.5l11 -18q20 -32 40.5 -62.5t43.5 -59.5q1 -5 1.5 -11t2.5 -11l1 -8q-29 2 -51 2.5t-51 1.5l5 -2q-54 44 -104 91 t-101 94l-94 87zM274 366q5 -28 14 -53.5t30 -38.5q30 -12 60 -14.5t59 -2.5q42 1 84 9t84 29q32 16 62.5 35.5t56.5 45.5q18 19 30 43.5t17 47.5q2 9 3 17.5t2 16.5l7 88h-184q-5 0 -9.5 -0.5t-9.5 -0.5q-38 -2 -77.5 -7t-81.5 -19q-29 -8 -52.5 -24.5t-42 -38.5t-30.5 -48 t-18 -52q-2 -9 -2.5 -17t-1.5 -16z" />
<glyph unicode="&#xe1;" horiz-adv-x="1252" d="M114 241q0 16 1.5 32t3.5 32v6q2 11 3.5 22t4.5 20q6 31 19 63.5t32 61.5t44 54t56 43q81 40 155 52.5t143 12.5h239l6 88q1 7 1.5 13.5t0.5 13.5q0 37 -7.5 72t-28.5 63q-35 40 -82 53t-96 14h-19q-34 0 -67.5 -4.5t-68.5 -19.5q-24 -12 -40.5 -28t-27.5 -34.5 t-17.5 -37.5t-9.5 -37q-26 2 -45 5t-44 7q-14 3 -29.5 5t-30.5 4q-2 0 -3 0.5t-3 0.5q4 30 15.5 61t29.5 59t42.5 50.5t56.5 36.5q65 29 128 37t120 8h17q66 0 127.5 -11.5t114.5 -39.5q66 -41 94 -104t28 -135q0 -26 -3 -51q-9 -95 -16 -189.5t-13 -188.5l1 -18 q2 -26 5 -52.5t11 -50.5q9 -23 31 -35.5t48 -12.5h12q9 0 18 0.5t18 1.5v-31q0 -36 1.5 -69t3.5 -70q-38 -6 -77 -6q-11 0 -20.5 0.5t-19.5 1.5h-12q-41 0 -73 16t-54 43t-34 62.5t-12 74.5v11t1 12h-22q-26 -53 -66.5 -94t-88.5 -69t-101 -43t-104 -15q-5 0 -10.5 0.5 t-11.5 0.5q-30 0 -60.5 2.5t-58.5 9.5t-53.5 20t-44.5 33q-33 35 -45.5 78.5t-12.5 88.5zM274 366q5 -28 14 -53.5t30 -38.5q30 -12 60 -14.5t59 -2.5q42 1 84 9t84 29q32 16 62.5 35.5t56.5 45.5q18 19 30 43.5t17 47.5q2 9 3 17.5t2 16.5l7 88h-184q-5 0 -9.5 -0.5 t-9.5 -0.5q-38 -2 -77.5 -7t-81.5 -19q-29 -8 -52.5 -24.5t-42 -38.5t-30.5 -48t-18 -52q-2 -9 -2.5 -17t-1.5 -16zM424 1213q0 2 8 5q43 46 79.5 91.5t72.5 90.5q19 23 36.5 46.5t37.5 46.5q47 0 96.5 1.5t97.5 3.5q-1 -25 -18 -47t-41.5 -41t-51.5 -36.5t-47 -33.5 q-43 -35 -90 -63t-92 -61q-9 -1 -18 -1.5t-18 -0.5q-8 -1 -21 -2t-22 -1t-9 2z" />
<glyph unicode="&#xe2;" horiz-adv-x="1252" d="M114 241q0 16 1.5 32t3.5 32v6q2 11 3.5 22t4.5 20q6 31 19 63.5t32 61.5t44 54t56 43q81 40 155 52.5t143 12.5h239l6 88q1 7 1.5 13.5t0.5 13.5q0 37 -7.5 72t-28.5 63q-35 40 -82 53t-96 14h-19q-34 0 -67.5 -4.5t-68.5 -19.5q-24 -12 -40.5 -28t-27.5 -34.5 t-17.5 -37.5t-9.5 -37q-26 2 -45 5t-44 7q-14 3 -29.5 5t-30.5 4q-2 0 -3 0.5t-3 0.5q4 30 15.5 61t29.5 59t42.5 50.5t56.5 36.5q65 29 128 37t120 8h17q66 0 127.5 -11.5t114.5 -39.5q66 -41 94 -104t28 -135q0 -26 -3 -51q-9 -95 -16 -189.5t-13 -188.5l1 -18 q2 -26 5 -52.5t11 -50.5q9 -23 31 -35.5t48 -12.5h12q9 0 18 0.5t18 1.5v-31q0 -36 1.5 -69t3.5 -70q-38 -6 -77 -6q-11 0 -20.5 0.5t-19.5 1.5h-12q-41 0 -73 16t-54 43t-34 62.5t-12 74.5v11t1 12h-22q-26 -53 -66.5 -94t-88.5 -69t-101 -43t-104 -15q-5 0 -10.5 0.5 t-11.5 0.5q-30 0 -60.5 2.5t-58.5 9.5t-53.5 20t-44.5 33q-33 35 -45.5 78.5t-12.5 88.5zM243 1214q2 0 17 16.5t37.5 42t49 56.5t51 60t44.5 52.5t30 34.5q19 -1 35 -1h36h124q13 -17 25 -35t24 -35q32 -48 70.5 -99.5t77.5 -92.5l-3 5l1 -6h-82q-41 29 -80.5 60.5 t-74.5 61.5l-57 48q-63 -45 -125 -87.5t-124 -80.5q-8 0 -16 -0.5t-16 -0.5q-11 0 -18 0.5t-16 0.5h-10zM274 366q5 -28 14 -53.5t30 -38.5q30 -12 60 -14.5t59 -2.5q42 1 84 9t84 29q32 16 62.5 35.5t56.5 45.5q18 19 30 43.5t17 47.5q2 9 3 17.5t2 16.5l7 88h-184 q-5 0 -9.5 -0.5t-9.5 -0.5q-38 -2 -77.5 -7t-81.5 -19q-29 -8 -52.5 -24.5t-42 -38.5t-30.5 -48t-18 -52q-2 -9 -2.5 -17t-1.5 -16z" />
<glyph unicode="&#xe3;" horiz-adv-x="1252" d="M114 241q0 16 1.5 32t3.5 32v6q2 11 3.5 22t4.5 20q6 31 19 63.5t32 61.5t44 54t56 43q81 40 155 52.5t143 12.5h239l6 88q1 7 1.5 13.5t0.5 13.5q0 37 -7.5 72t-28.5 63q-35 40 -82 53t-96 14h-19q-34 0 -67.5 -4.5t-68.5 -19.5q-24 -12 -40.5 -28t-27.5 -34.5 t-17.5 -37.5t-9.5 -37q-26 2 -45 5t-44 7q-14 3 -29.5 5t-30.5 4q-2 0 -3 0.5t-3 0.5q4 30 15.5 61t29.5 59t42.5 50.5t56.5 36.5q65 29 128 37t120 8h17q66 0 127.5 -11.5t114.5 -39.5q66 -41 94 -104t28 -135q0 -26 -3 -51q-9 -95 -16 -189.5t-13 -188.5l1 -18 q2 -26 5 -52.5t11 -50.5q9 -23 31 -35.5t48 -12.5h12q9 0 18 0.5t18 1.5v-31q0 -36 1.5 -69t3.5 -70q-38 -6 -77 -6q-11 0 -20.5 0.5t-19.5 1.5h-12q-41 0 -73 16t-54 43t-34 62.5t-12 74.5v11t1 12h-22q-26 -53 -66.5 -94t-88.5 -69t-101 -43t-104 -15q-5 0 -10.5 0.5 t-11.5 0.5q-30 0 -60.5 2.5t-58.5 9.5t-53.5 20t-44.5 33q-33 35 -45.5 78.5t-12.5 88.5zM274 366q5 -28 14 -53.5t30 -38.5q30 -12 60 -14.5t59 -2.5q42 1 84 9t84 29q32 16 62.5 35.5t56.5 45.5q18 19 30 43.5t17 47.5q2 9 3 17.5t2 16.5l7 88h-184q-5 0 -9.5 -0.5 t-9.5 -0.5q-38 -2 -77.5 -7t-81.5 -19q-29 -8 -52.5 -24.5t-42 -38.5t-30.5 -48t-18 -52q-2 -9 -2.5 -17t-1.5 -16zM274 1212q8 17 16.5 36.5t15.5 38.5q3 8 7 18.5t9 21.5q5 12 11 25q6 21 18.5 40t30 33.5t37.5 22.5t41 8q9 0 14 -1q47 -1 85.5 -19.5t74.5 -39.5 q29 -18 60.5 -34t65.5 -22h9q25 0 46 10.5t38 27.5t30.5 38t22.5 41h38h15.5t15.5 1q-12 -22 -20.5 -43.5t-16.5 -41.5l-6 -16q-10 -24 -20.5 -47.5t-23.5 -43.5q-17 -26 -46 -38.5t-57 -12.5h-10q-45 1 -84.5 19.5t-74.5 38.5q-29 17 -61.5 33t-70.5 24q-3 0 -5.5 0.5 t-5.5 0.5q-24 0 -44.5 -11t-37 -28t-29 -38t-21.5 -41q-9 -1 -18.5 -1h-18.5h-30z" />
<glyph unicode="&#xe4;" horiz-adv-x="1252" d="M114 241q0 16 1.5 32t3.5 32v6q2 11 3.5 22t4.5 20q6 31 19 63.5t32 61.5t44 54t56 43q81 40 155 52.5t143 12.5h239l6 88q1 7 1.5 13.5t0.5 13.5q0 37 -7.5 72t-28.5 63q-35 40 -82 53t-96 14h-19q-34 0 -67.5 -4.5t-68.5 -19.5q-24 -12 -40.5 -28t-27.5 -34.5 t-17.5 -37.5t-9.5 -37q-26 2 -45 5t-44 7q-14 3 -29.5 5t-30.5 4q-2 0 -3 0.5t-3 0.5q4 30 15.5 61t29.5 59t42.5 50.5t56.5 36.5q65 29 128 37t120 8h17q66 0 127.5 -11.5t114.5 -39.5q66 -41 94 -104t28 -135q0 -26 -3 -51q-9 -95 -16 -189.5t-13 -188.5l1 -18 q2 -26 5 -52.5t11 -50.5q9 -23 31 -35.5t48 -12.5h12q9 0 18 0.5t18 1.5v-31q0 -36 1.5 -69t3.5 -70q-38 -6 -77 -6q-11 0 -20.5 0.5t-19.5 1.5h-12q-41 0 -73 16t-54 43t-34 62.5t-12 74.5v11t1 12h-22q-26 -53 -66.5 -94t-88.5 -69t-101 -43t-104 -15q-5 0 -10.5 0.5 t-11.5 0.5q-30 0 -60.5 2.5t-58.5 9.5t-53.5 20t-44.5 33q-33 35 -45.5 78.5t-12.5 88.5zM274 366q5 -28 14 -53.5t30 -38.5q30 -12 60 -14.5t59 -2.5q42 1 84 9t84 29q32 16 62.5 35.5t56.5 45.5q18 19 30 43.5t17 47.5q2 9 3 17.5t2 16.5l7 88h-184q-5 0 -9.5 -0.5 t-9.5 -0.5q-38 -2 -77.5 -7t-81.5 -19q-29 -8 -52.5 -24.5t-42 -38.5t-30.5 -48t-18 -52q-2 -9 -2.5 -17t-1.5 -16zM369 1230q12 5 17.5 18t9.5 29q6 27 6 56q0 16 -2 31t-5 29q11 0 20.5 -0.5t16.5 -0.5q26 -1 50.5 -1.5t50.5 -0.5q1 -9 1 -18v-19q0 -30 -3 -60.5t-8 -60.5 q-42 -1 -77 -1.5t-77 -0.5zM767 1274q0 28 3.5 57t9.5 58q14 0 22 0.5t22 0.5h48t48 1q-5 -12 -8.5 -23.5t-6.5 -24.5q-6 -27 -6 -55q0 -29 8 -58q-27 1 -45.5 1h-45.5h-12q-11 0 -19.5 -1t-14.5 -5q-3 24 -3 49z" />
<glyph unicode="&#xe5;" horiz-adv-x="1252" d="M114 241q0 16 1.5 32t3.5 32v6q2 11 3.5 22t4.5 20q6 31 19 63.5t32 61.5t44 54t56 43q81 40 155 52.5t143 12.5h239l6 88q1 7 1.5 13.5t0.5 13.5q0 37 -7.5 72t-28.5 63q-35 40 -82 53t-96 14h-19q-34 0 -67.5 -4.5t-68.5 -19.5q-24 -12 -40.5 -28t-27.5 -34.5 t-17.5 -37.5t-9.5 -37q-26 2 -45 5t-44 7q-14 3 -29.5 5t-30.5 4q-2 0 -3 0.5t-3 0.5q4 30 15.5 61t29.5 59t42.5 50.5t56.5 36.5q65 29 128 37t120 8h17q66 0 127.5 -11.5t114.5 -39.5q66 -41 94 -104t28 -135q0 -26 -3 -51q-9 -95 -16 -189.5t-13 -188.5l1 -18 q2 -26 5 -52.5t11 -50.5q9 -23 31 -35.5t48 -12.5h12q9 0 18 0.5t18 1.5v-31q0 -36 1.5 -69t3.5 -70q-38 -6 -77 -6q-11 0 -20.5 0.5t-19.5 1.5h-12q-41 0 -73 16t-54 43t-34 62.5t-12 74.5v11t1 12h-22q-26 -53 -66.5 -94t-88.5 -69t-101 -43t-104 -15q-5 0 -10.5 0.5 t-11.5 0.5q-30 0 -60.5 2.5t-58.5 9.5t-53.5 20t-44.5 33q-33 35 -45.5 78.5t-12.5 88.5zM274 366q5 -28 14 -53.5t30 -38.5q30 -12 60 -14.5t59 -2.5q42 1 84 9t84 29q32 16 62.5 35.5t56.5 45.5q18 19 30 43.5t17 47.5q2 9 3 17.5t2 16.5l7 88h-184q-5 0 -9.5 -0.5 t-9.5 -0.5q-38 -2 -77.5 -7t-81.5 -19q-29 -8 -52.5 -24.5t-42 -38.5t-30.5 -48t-18 -52q-2 -9 -2.5 -17t-1.5 -16zM374 1384v13.5t1 13.5q1 19 6 39q7 33 22.5 65t41.5 58q31 31 72 45t79 14h8q46 -1 87.5 -17t68.5 -48q25 -26 37 -60.5t12 -72.5v-12t-1 -13q-1 -19 -6 -37 q-7 -33 -23 -65.5t-42 -58.5q-31 -32 -71.5 -46.5t-78.5 -14.5h-8q-47 0 -88 15.5t-70 46.5q-24 27 -35.5 62t-11.5 73zM454 1393q0 -48 30 -83q16 -20 40 -31t53 -11h9q26 0 51.5 11t45.5 31q20 22 31.5 49t13.5 53v10q0 25 -7 47t-23 39q-17 18 -39.5 29.5t-51.5 11.5h-6 q-25 0 -52.5 -11t-47.5 -31q-23 -20 -33.5 -46.5t-12.5 -52.5q-1 -5 -1 -15z" />
<glyph unicode="&#xe6;" horiz-adv-x="1863" d="M143 226q0 19 2 38.5t5 38.5q2 19 6 37q7 36 21.5 72t36 68.5t50 59t65.5 43.5q75 35 149 46t142 11h238l4 71q1 10 1 19v19q0 43 -9 83t-37 69q-32 33 -78.5 46t-96.5 13h-24q-32 -1 -64.5 -4t-64.5 -18q-27 -13 -45 -29t-29 -34t-17.5 -38t-9.5 -39q-27 2 -48.5 5 t-47.5 7l-59 8l5 27q5 27 16 54.5t27 52.5t38 45t50 32q37 17 72 26t69 13.5t66 5t63 0.5q49 0 98 -7.5t93.5 -25t83 -45.5t66.5 -69q37 41 80.5 68.5t90 44.5t93.5 24t91 7h22q44 0 87.5 -6t82.5 -20.5t71 -37.5t55 -56q38 -64 51 -139.5t13 -153.5q0 -34 -0.5 -66.5 t-4.5 -65.5q0 -3 -3.5 -5t-23.5 -3.5t-62.5 -2.5t-121.5 -1.5t-201 -0.5h-300l-4 -27q-2 -14 -3 -29t-1 -29q0 -59 16 -115t48.5 -99t81 -69t113.5 -26h13q5 -1 10.5 -1h10.5q36 0 75.5 9.5t75.5 29t64.5 48.5t42.5 68l129 -44q-16 -47 -46.5 -90.5t-73.5 -72.5 q-36 -21 -71.5 -33t-71 -18t-69.5 -7.5t-67 -1.5h-6q-67 0 -131 16.5t-117.5 50.5t-93 84t-57.5 118q-34 -64 -84 -114t-108.5 -84.5t-121.5 -52.5t-123 -18h-34q-56 0 -109.5 12.5t-88.5 49.5q-32 33 -44 73.5t-12 84.5zM300 270q0 -32 12 -60t33 -48.5t49.5 -32.5 t61.5 -12h8t9 1q44 2 91 12.5t92 33.5q35 18 65 45t53 59t39 67.5t24 71.5q4 22 6 43l7 93h-193q-48 -3 -97 -9.5t-100 -23.5q-30 -10 -55.5 -28.5t-45 -42.5t-33 -51t-19.5 -55q-2 -8 -2.5 -15.5t-1.5 -14.5q-3 -17 -3 -33zM1009 626q135 0 273 0.5t273 1.5l13 12v17 q0 55 -8 108.5t-34 98.5q-16 28 -38 46.5t-48 30t-54.5 16.5t-57.5 5h-9q-51 0 -105.5 -18.5t-96.5 -60.5q-45 -45 -66.5 -94t-32.5 -97q-6 -30 -9 -66z" />
<glyph unicode="&#xe7;" horiz-adv-x="1083" d="M132 450q0 23 1 46t3 46q4 41 9.5 83.5t13.5 83.5q12 55 32 108t52 103q32 43 72 71.5t84 45.5t89.5 24.5t88.5 7.5h19q67 -1 131 -14t112 -50q75 -58 111 -149l-37 -22q-21 -12 -44 -24t-43 -24q-34 66 -82 114q-29 29 -71 40.5t-87 11.5h-9q-27 0 -55.5 -5t-56 -16 t-51.5 -29t-42 -45q-23 -35 -37.5 -72.5t-22.5 -75.5q-8 -35 -11 -69t-7 -68l-1 -30q0 -9 -0.5 -17.5t-0.5 -17.5q0 -51 12 -98.5t48 -79.5q38 -28 89.5 -43.5t102.5 -15.5q5 0 9 0.5t9 0.5q29 2 57.5 3.5t54.5 5.5q24 4 43.5 20t36.5 33q44 -41 82 -79.5t80 -80.5 q-32 -36 -70 -72t-79 -59q-45 -22 -91.5 -26t-93.5 -5h-6h-23t-24 -1q-46 1 -91.5 8.5t-87 22.5t-77.5 38t-62 55q-44 67 -61.5 149.5t-17.5 166.5zM330 -379q5 20 7.5 38.5t5.5 38.5q8 0 11 -0.5t5 -0.5q10 -1 21.5 -1.5t23.5 -0.5h11q21 1 47 4t49.5 12.5t40.5 27t19 46.5 v8q0 24 -12.5 39t-31 23t-41 11t-42.5 3q-7 -1 -13.5 -1h-12.5h-15q4 11 6.5 16t7.5 16q11 30 23 62t23 62q20 -2 35.5 -1.5t35.5 -0.5h13q-12 -24 -22 -48.5t-21 -48.5h8q31 0 60.5 -7t52.5 -21.5t37 -36t14 -51.5v-5v-12q0 -11 -2 -22.5t-3 -13.5q-10 -29 -26.5 -56.5 t-46.5 -41.5q-48 -22 -92.5 -27.5t-88.5 -7.5h-7q-21 -2 -40.5 -2h-39.5z" />
<glyph unicode="&#xe8;" horiz-adv-x="1161" d="M147 439q0 26 1.5 50.5t3.5 49.5q5 41 10.5 83t13.5 83q13 58 35 114.5t60 108.5q35 42 77.5 69.5t88 43.5t92 22t90.5 6h12q42 -1 83.5 -7t79 -18.5t70.5 -33t58 -49.5q28 -32 45.5 -70t27.5 -78.5t13.5 -83.5t3.5 -85v-10q-134 -4 -267 -5t-267 -1h-170 q0 -9 -0.5 -17.5t-0.5 -17.5q0 -34 3 -68t11.5 -65t24 -58t39.5 -46q54 -43 124 -58.5t144 -18.5q29 4 57.5 8.5t54.5 12.5q32 11 70.5 27.5t76.5 31.5l35 14q-4 -60 -5.5 -113.5t-1.5 -110.5v-45q-42 -28 -88.5 -45t-94 -27t-95.5 -14.5t-93 -7.5q-48 1 -96 8t-91.5 21.5 t-81 38t-65.5 57.5q-51 63 -69.5 142t-18.5 162zM296 1483q55 -3 103 -4.5t104 -1.5q26 -35 47.5 -68.5t44.5 -69.5l11 -18q20 -32 40.5 -62.5t43.5 -59.5q1 -5 1.5 -11t2.5 -11l1 -8q-29 2 -51 2.5t-51 1.5l5 -2q-54 44 -104 91t-101 94l-94 87zM328 709q69 -2 142 -2h142 h138t138 2l13 13q-11 103 -75 180q-34 42 -86.5 59.5t-109.5 17.5h-13q-53 0 -108 -19.5t-96 -66.5q-33 -39 -55.5 -85.5t-29.5 -98.5z" />
<glyph unicode="&#xe9;" horiz-adv-x="1161" d="M147 439q0 26 1.5 50.5t3.5 49.5q5 41 10.5 83t13.5 83q13 58 35 114.5t60 108.5q35 42 77.5 69.5t88 43.5t92 22t90.5 6h12q42 -1 83.5 -7t79 -18.5t70.5 -33t58 -49.5q28 -32 45.5 -70t27.5 -78.5t13.5 -83.5t3.5 -85v-10q-134 -4 -267 -5t-267 -1h-170 q0 -9 -0.5 -17.5t-0.5 -17.5q0 -34 3 -68t11.5 -65t24 -58t39.5 -46q54 -43 124 -58.5t144 -18.5q29 4 57.5 8.5t54.5 12.5q32 11 70.5 27.5t76.5 31.5l35 14q-4 -60 -5.5 -113.5t-1.5 -110.5v-45q-42 -28 -88.5 -45t-94 -27t-95.5 -14.5t-93 -7.5q-48 1 -96 8t-91.5 21.5 t-81 38t-65.5 57.5q-51 63 -69.5 142t-18.5 162zM328 709q69 -2 142 -2h142h138t138 2l13 13q-11 103 -75 180q-34 42 -86.5 59.5t-109.5 17.5h-13q-53 0 -108 -19.5t-96 -66.5q-33 -39 -55.5 -85.5t-29.5 -98.5zM492 1213q0 2 8 5q43 46 79.5 91.5t72.5 90.5 q19 23 36.5 46.5t37.5 46.5q47 0 96.5 1.5t97.5 3.5q-1 -25 -18 -47t-41.5 -41t-51.5 -36.5t-47 -33.5q-43 -35 -90 -63t-92 -61q-9 -1 -18 -1.5t-18 -0.5q-8 -1 -21 -2t-22 -1t-9 2z" />
<glyph unicode="&#xea;" horiz-adv-x="1161" d="M147 439q0 26 1.5 50.5t3.5 49.5q5 41 10.5 83t13.5 83q13 58 35 114.5t60 108.5q35 42 77.5 69.5t88 43.5t92 22t90.5 6h12q42 -1 83.5 -7t79 -18.5t70.5 -33t58 -49.5q28 -32 45.5 -70t27.5 -78.5t13.5 -83.5t3.5 -85v-10q-134 -4 -267 -5t-267 -1h-170 q0 -9 -0.5 -17.5t-0.5 -17.5q0 -34 3 -68t11.5 -65t24 -58t39.5 -46q54 -43 124 -58.5t144 -18.5q29 4 57.5 8.5t54.5 12.5q32 11 70.5 27.5t76.5 31.5l35 14q-4 -60 -5.5 -113.5t-1.5 -110.5v-45q-42 -28 -88.5 -45t-94 -27t-95.5 -14.5t-93 -7.5q-48 1 -96 8t-91.5 21.5 t-81 38t-65.5 57.5q-51 63 -69.5 142t-18.5 162zM310 1214q2 0 17 16.5t37.5 42t49 56.5t51 60t44.5 52.5t30 34.5q19 -1 35 -1h36h124q13 -17 25 -35t24 -35q32 -48 70.5 -99.5t77.5 -92.5l-3 5l1 -6h-82q-41 29 -80.5 60.5t-74.5 61.5l-57 48q-63 -45 -125 -87.5 t-124 -80.5q-8 0 -16 -0.5t-16 -0.5q-11 0 -18 0.5t-16 0.5h-10zM328 709q69 -2 142 -2h142h138t138 2l13 13q-11 103 -75 180q-34 42 -86.5 59.5t-109.5 17.5h-13q-53 0 -108 -19.5t-96 -66.5q-33 -39 -55.5 -85.5t-29.5 -98.5z" />
<glyph unicode="&#xeb;" horiz-adv-x="1161" d="M147 439q0 26 1.5 50.5t3.5 49.5q5 41 10.5 83t13.5 83q13 58 35 114.5t60 108.5q35 42 77.5 69.5t88 43.5t92 22t90.5 6h12q42 -1 83.5 -7t79 -18.5t70.5 -33t58 -49.5q28 -32 45.5 -70t27.5 -78.5t13.5 -83.5t3.5 -85v-10q-134 -4 -267 -5t-267 -1h-170 q0 -9 -0.5 -17.5t-0.5 -17.5q0 -34 3 -68t11.5 -65t24 -58t39.5 -46q54 -43 124 -58.5t144 -18.5q29 4 57.5 8.5t54.5 12.5q32 11 70.5 27.5t76.5 31.5l35 14q-4 -60 -5.5 -113.5t-1.5 -110.5v-45q-42 -28 -88.5 -45t-94 -27t-95.5 -14.5t-93 -7.5q-48 1 -96 8t-91.5 21.5 t-81 38t-65.5 57.5q-51 63 -69.5 142t-18.5 162zM328 709q69 -2 142 -2h142h138t138 2l13 13q-11 103 -75 180q-34 42 -86.5 59.5t-109.5 17.5h-13q-53 0 -108 -19.5t-96 -66.5q-33 -39 -55.5 -85.5t-29.5 -98.5zM422 1230q12 5 17.5 18t9.5 29q6 27 6 56q0 16 -2 31t-5 29 q11 0 20.5 -0.5t16.5 -0.5q26 -1 50.5 -1.5t50.5 -0.5q1 -9 1 -18v-19q0 -30 -3 -60.5t-8 -60.5q-42 -1 -77 -1.5t-77 -0.5zM820 1274q0 28 3.5 57t9.5 58q14 0 22 0.5t22 0.5h48t48 1q-5 -12 -8.5 -23.5t-6.5 -24.5q-6 -27 -6 -55q0 -29 8 -58q-27 1 -45.5 1h-45.5h-12 q-11 0 -19.5 -1t-14.5 -5q-3 24 -3 49z" />
<glyph unicode="&#xec;" horiz-adv-x="624" d="M39 1483q55 -3 103 -4.5t104 -1.5q26 -35 47.5 -68.5t44.5 -69.5l11 -18q20 -32 40.5 -62.5t43.5 -59.5q1 -5 1.5 -11t2.5 -11l1 -8q-29 2 -51 2.5t-51 1.5l5 -2q-54 44 -104 91t-101 94l-94 87zM216 26q42 258 75 518t53 523q38 -10 76.5 -13t80.5 -4q-2 -92 -6 -182.5 t-8 -183.5q-6 -161 -11.5 -320.5t-5.5 -319.5v-31q-39 9 -80.5 13t-85.5 4q-23 0 -44.5 -1t-43.5 -3z" />
<glyph unicode="&#xed;" horiz-adv-x="624" d="M107 26q42 258 75 518t53 523q38 -10 76.5 -13t80.5 -4q-2 -92 -6 -182.5t-8 -183.5q-6 -161 -11.5 -320.5t-5.5 -319.5v-31q-39 9 -80.5 13t-85.5 4q-23 0 -44.5 -1t-43.5 -3zM138 1213q0 2 8 5q43 46 79.5 91.5t72.5 90.5q19 23 36.5 46.5t37.5 46.5q47 0 96.5 1.5 t97.5 3.5q-1 -25 -18 -47t-41.5 -41t-51.5 -36.5t-47 -33.5q-43 -35 -90 -63t-92 -61q-9 -1 -18 -1.5t-18 -0.5q-8 -1 -21 -2t-22 -1t-9 2z" />
<glyph unicode="&#xee;" horiz-adv-x="862" d="M127 1214q2 0 17 16.5t37.5 42t49 56.5t51 60t44.5 52.5t30 34.5q19 -1 35 -1h36h124q13 -17 25 -35t24 -35q32 -48 70.5 -99.5t77.5 -92.5l-3 5l1 -6h-82q-41 29 -80.5 60.5t-74.5 61.5l-57 48q-63 -45 -125 -87.5t-124 -80.5q-8 0 -16 -0.5t-16 -0.5q-11 0 -18 0.5 t-16 0.5h-10zM263 26q42 258 75 518t53 523q38 -10 76.5 -13t80.5 -4q-2 -92 -6 -182.5t-8 -183.5q-6 -161 -11.5 -320.5t-5.5 -319.5v-31q-39 9 -80.5 13t-85.5 4q-23 0 -44.5 -1t-43.5 -3z" />
<glyph unicode="&#xef;" horiz-adv-x="757" d="M109 1230q12 5 17.5 18t9.5 29q6 27 6 56q0 16 -2 31t-5 29q11 0 20.5 -0.5t16.5 -0.5q26 -1 50.5 -1.5t50.5 -0.5q1 -9 1 -18v-19q0 -30 -3 -60.5t-8 -60.5q-42 -1 -77 -1.5t-77 -0.5zM127 26q42 258 75 518t53 523q38 -10 76.5 -13t80.5 -4q-2 -92 -6 -182.5t-8 -183.5 q-6 -161 -11.5 -320.5t-5.5 -319.5v-31q-39 9 -80.5 13t-85.5 4q-23 0 -44.5 -1t-43.5 -3zM507 1274q0 28 3.5 57t9.5 58q14 0 22 0.5t22 0.5h48t48 1q-5 -12 -8.5 -23.5t-6.5 -24.5q-6 -27 -6 -55q0 -29 8 -58q-27 1 -45.5 1h-45.5h-12q-11 0 -19.5 -1t-14.5 -5 q-3 24 -3 49z" />
<glyph unicode="&#xf0;" horiz-adv-x="1143" d="M93 395q0 22 1.5 44t3.5 44q6 51 17 102q13 63 40.5 126.5t71.5 116.5q40 37 84 62t89.5 40t90.5 21t86 6h12q56 0 109 -13t97 -42l14 12q-38 92 -87.5 176t-117.5 151l-109 -46q-45 -19 -89 -37t-89 -35q0 14 -5 27t-5 27q72 28 110.5 45t59.5 29t33 22.5t31 27.5 q-52 45 -104 85t-103 76q25 -3 43.5 -4.5t36 -3t35.5 -2.5t44 -2q43 -23 83.5 -49t78.5 -58l118 49q48 20 95 39t95 41q-1 -14 -2.5 -20t-3.5 -20q-5 -25 -6 -47q-54 -25 -112.5 -50t-112.5 -48q70 -63 122.5 -142t87 -168t51.5 -185.5t17 -195.5q0 -40 -3 -80v-6 q-3 -38 -7.5 -77.5t-12.5 -77.5q-12 -55 -34 -108t-60 -101q-39 -42 -83.5 -67t-92 -38.5t-95 -17.5t-91.5 -4h-11q-47 0 -93.5 5.5t-89.5 18t-81 33t-68 52.5q-51 53 -70 122.5t-19 144.5zM252 410q0 -43 6 -84.5t22 -76.5q17 -33 42 -56t54.5 -37.5t62.5 -21t68 -6.5h22 q30 0 62 4t62.5 14t58.5 27.5t51 45.5q28 41 42.5 78t22.5 74q6 26 9 53t5 51l1 14v36q1 8 1.5 15t0.5 14q0 42 -5 82.5t-20 78.5q-15 37 -38.5 62.5t-53.5 42t-64.5 24t-70.5 7.5h-11q-30 0 -62 -4t-63.5 -14.5t-60.5 -29t-52 -47.5q-31 -44 -48 -87t-26 -85 q-11 -51 -14 -98q-2 -19 -3 -37.5t-1 -38.5z" />
<glyph unicode="&#xf1;" horiz-adv-x="1144" d="M46 -3l15 73q47 217 79 432t32 429v22q0 14 -1 28.5t-3 34.5l3 67q20 -2 44 -4.5t48.5 -4t48.5 -3t45 -2.5q-1 -23 -2 -41t-2.5 -35.5t-3 -35.5t-3.5 -41q26 38 57 68.5t71 51.5q53 28 106 35.5t104 7.5q36 0 72 -3.5t70 -12.5t63 -25.5t52 -42.5q34 -45 43.5 -92.5 t9.5 -107.5q0 -11 -0.5 -32.5t-0.5 -32.5v-22q0 -72 -3 -142.5t-3 -143.5q0 -109 5 -214.5t18 -204.5l-13 -13q-71 6 -146 10.5t-147 6.5q16 174 43 342t57 339q1 5 1.5 10t0.5 11q0 3 0.5 8.5t1.5 8.5q1 11 1.5 21.5t0.5 21.5q0 45 -13 85t-51 57q-29 13 -64 17t-71 5h-10 q-47 0 -95 -19.5t-79 -62.5q-23 -31 -37 -65t-22 -69q-3 -14 -5 -29t-2 -29q-3 -117 -8.5 -232.5t-11.5 -233.5q-2 -43 -4 -92t-4 -92q-66 -1 -143 -4t-144 -8zM222 1212q8 17 16.5 36.5t15.5 38.5q3 8 7 18.5t9 21.5q5 12 11 25q6 21 18.5 40t30 33.5t37.5 22.5t41 8 q9 0 14 -1q47 -1 85.5 -19.5t74.5 -39.5q29 -18 60.5 -34t65.5 -22h9q25 0 46 10.5t38 27.5t30.5 38t22.5 41h38h15.5t15.5 1q-12 -22 -20.5 -43.5t-16.5 -41.5l-6 -16q-10 -24 -20.5 -47.5t-23.5 -43.5q-17 -26 -46 -38.5t-57 -12.5h-10q-45 1 -84.5 19.5t-74.5 38.5 q-29 17 -61.5 33t-70.5 24q-3 0 -5.5 0.5t-5.5 0.5q-24 0 -44.5 -11t-37 -28t-29 -38t-21.5 -41q-9 -1 -18.5 -1h-18.5h-30z" />
<glyph unicode="&#xf2;" horiz-adv-x="1167" d="M135 465q0 39 3 77q3 41 8.5 83.5t13.5 84.5q12 56 34 110t61 102q35 43 78 70t89.5 42t94 20.5t92.5 5.5h8q49 0 97.5 -5.5t93.5 -19t83 -37t66 -59.5q43 -55 57 -125.5t14 -146.5q0 -32 -1.5 -63.5t-3.5 -62.5q-4 -42 -9.5 -84t-14.5 -84q-13 -58 -35.5 -116 t-59.5 -109q-34 -41 -76 -67t-87 -42t-91 -22t-88 -6h-17q-47 0 -94.5 7t-90.5 22t-80.5 38.5t-64.5 57.5q-24 34 -39.5 73t-24.5 81.5t-12.5 86.5t-3.5 88zM293 509q0 -46 10.5 -88.5t43.5 -71.5q40 -29 90.5 -38t103.5 -9h14q57 0 115 5.5t113 37.5q32 26 48 59t24 68 q5 20 7 38t4 35q0 6 3 15q2 26 3 51.5t1 51.5q0 53 -8 102.5t-33 93.5q-15 26 -38.5 44t-52 28.5t-60.5 15t-64 4.5h-6q-30 0 -61.5 -4.5t-62 -15t-58.5 -29t-50 -46.5q-26 -38 -41 -77t-24 -79q-8 -37 -11.5 -72.5t-6.5 -70.5q-3 -24 -3 -48zM386 1483q55 -3 103 -4.5 t104 -1.5q26 -35 47.5 -68.5t44.5 -69.5l11 -18q20 -32 40.5 -62.5t43.5 -59.5q1 -5 1.5 -11t2.5 -11l1 -8q-29 2 -51 2.5t-51 1.5l5 -2q-54 44 -104 91t-101 94l-94 87z" />
<glyph unicode="&#xf3;" horiz-adv-x="1167" d="M135 465q0 39 3 77q3 41 8.5 83.5t13.5 84.5q12 56 34 110t61 102q35 43 78 70t89.5 42t94 20.5t92.5 5.5h8q49 0 97.5 -5.5t93.5 -19t83 -37t66 -59.5q43 -55 57 -125.5t14 -146.5q0 -32 -1.5 -63.5t-3.5 -62.5q-4 -42 -9.5 -84t-14.5 -84q-13 -58 -35.5 -116 t-59.5 -109q-34 -41 -76 -67t-87 -42t-91 -22t-88 -6h-17q-47 0 -94.5 7t-90.5 22t-80.5 38.5t-64.5 57.5q-24 34 -39.5 73t-24.5 81.5t-12.5 86.5t-3.5 88zM293 509q0 -46 10.5 -88.5t43.5 -71.5q40 -29 90.5 -38t103.5 -9h14q57 0 115 5.5t113 37.5q32 26 48 59t24 68 q5 20 7 38t4 35q0 6 3 15q2 26 3 51.5t1 51.5q0 53 -8 102.5t-33 93.5q-15 26 -38.5 44t-52 28.5t-60.5 15t-64 4.5h-6q-30 0 -61.5 -4.5t-62 -15t-58.5 -29t-50 -46.5q-26 -38 -41 -77t-24 -79q-8 -37 -11.5 -72.5t-6.5 -70.5q-3 -24 -3 -48zM571 1213q0 2 8 5 q43 46 79.5 91.5t72.5 90.5q19 23 36.5 46.5t37.5 46.5q47 0 96.5 1.5t97.5 3.5q-1 -25 -18 -47t-41.5 -41t-51.5 -36.5t-47 -33.5q-43 -35 -90 -63t-92 -61q-9 -1 -18 -1.5t-18 -0.5q-8 -1 -21 -2t-22 -1t-9 2z" />
<glyph unicode="&#xf4;" horiz-adv-x="1167" d="M135 465q0 39 3 77q3 41 8.5 83.5t13.5 84.5q12 56 34 110t61 102q35 43 78 70t89.5 42t94 20.5t92.5 5.5h8q49 0 97.5 -5.5t93.5 -19t83 -37t66 -59.5q43 -55 57 -125.5t14 -146.5q0 -32 -1.5 -63.5t-3.5 -62.5q-4 -42 -9.5 -84t-14.5 -84q-13 -58 -35.5 -116 t-59.5 -109q-34 -41 -76 -67t-87 -42t-91 -22t-88 -6h-17q-47 0 -94.5 7t-90.5 22t-80.5 38.5t-64.5 57.5q-24 34 -39.5 73t-24.5 81.5t-12.5 86.5t-3.5 88zM293 509q0 -46 10.5 -88.5t43.5 -71.5q40 -29 90.5 -38t103.5 -9h14q57 0 115 5.5t113 37.5q32 26 48 59t24 68 q5 20 7 38t4 35q0 6 3 15q2 26 3 51.5t1 51.5q0 53 -8 102.5t-33 93.5q-15 26 -38.5 44t-52 28.5t-60.5 15t-64 4.5h-6q-30 0 -61.5 -4.5t-62 -15t-58.5 -29t-50 -46.5q-26 -38 -41 -77t-24 -79q-8 -37 -11.5 -72.5t-6.5 -70.5q-3 -24 -3 -48zM393 1214q2 0 17 16.5t37.5 42 t49 56.5t51 60t44.5 52.5t30 34.5q19 -1 35 -1h36h124q13 -17 25 -35t24 -35q32 -48 70.5 -99.5t77.5 -92.5l-3 5l1 -6h-82q-41 29 -80.5 60.5t-74.5 61.5l-57 48q-63 -45 -125 -87.5t-124 -80.5q-8 0 -16 -0.5t-16 -0.5q-11 0 -18 0.5t-16 0.5h-10z" />
<glyph unicode="&#xf5;" horiz-adv-x="1167" d="M100 465q0 39 3 77q3 41 8.5 83.5t13.5 84.5q12 56 34 110t61 102q35 43 78 70t89.5 42t94 20.5t92.5 5.5h8q49 0 97.5 -5.5t93.5 -19t83 -37t66 -59.5q43 -55 57 -125.5t14 -146.5q0 -32 -1.5 -63.5t-3.5 -62.5q-4 -42 -9.5 -84t-14.5 -84q-13 -58 -35.5 -116 t-59.5 -109q-34 -41 -76 -67t-87 -42t-91 -22t-88 -6h-17q-47 0 -94.5 7t-90.5 22t-80.5 38.5t-64.5 57.5q-24 34 -39.5 73t-24.5 81.5t-12.5 86.5t-3.5 88zM252 1177q8 17 16.5 36.5t15.5 38.5q3 8 7 18.5t9 21.5q5 12 11 25q6 21 18.5 40t30 33.5t37.5 22.5t41 8 q9 0 14 -1q47 -1 85.5 -19.5t74.5 -39.5q29 -18 60.5 -34t65.5 -22h9q25 0 46 10.5t38 27.5t30.5 38t22.5 41h38h15.5t15.5 1q-12 -22 -20.5 -43.5t-16.5 -41.5l-6 -16q-10 -24 -20.5 -47.5t-23.5 -43.5q-17 -26 -46 -38.5t-57 -12.5h-10q-45 1 -84.5 19.5t-74.5 38.5 q-29 17 -61.5 33t-70.5 24q-3 0 -5.5 0.5t-5.5 0.5q-24 0 -44.5 -11t-37 -28t-29 -38t-21.5 -41q-9 -1 -18.5 -1h-18.5h-30zM258 509q0 -46 10.5 -88.5t43.5 -71.5q40 -29 90.5 -38t103.5 -9h14q57 0 115 5.5t113 37.5q32 26 48 59t24 68q5 20 7 38t4 35q0 6 3 15 q2 26 3 51.5t1 51.5q0 53 -8 102.5t-33 93.5q-15 26 -38.5 44t-52 28.5t-60.5 15t-64 4.5h-6q-30 0 -61.5 -4.5t-62 -15t-58.5 -29t-50 -46.5q-26 -38 -41 -77t-24 -79q-8 -37 -11.5 -72.5t-6.5 -70.5q-3 -24 -3 -48z" />
<glyph unicode="&#xf6;" horiz-adv-x="1167" d="M121 465q0 39 3 77q3 41 8.5 83.5t13.5 84.5q12 56 34 110t61 102q35 43 78 70t89.5 42t94 20.5t92.5 5.5h8q49 0 97.5 -5.5t93.5 -19t83 -37t66 -59.5q43 -55 57 -125.5t14 -146.5q0 -32 -1.5 -63.5t-3.5 -62.5q-4 -42 -9.5 -84t-14.5 -84q-13 -58 -35.5 -116 t-59.5 -109q-34 -41 -76 -67t-87 -42t-91 -22t-88 -6h-17q-47 0 -94.5 7t-90.5 22t-80.5 38.5t-64.5 57.5q-24 34 -39.5 73t-24.5 81.5t-12.5 86.5t-3.5 88zM279 509q0 -46 10.5 -88.5t43.5 -71.5q40 -29 90.5 -38t103.5 -9h14q57 0 115 5.5t113 37.5q32 26 48 59t24 68 q5 20 7 38t4 35q0 6 3 15q2 26 3 51.5t1 51.5q0 53 -8 102.5t-33 93.5q-15 26 -38.5 44t-52 28.5t-60.5 15t-64 4.5h-6q-30 0 -61.5 -4.5t-62 -15t-58.5 -29t-50 -46.5q-26 -38 -41 -77t-24 -79q-8 -37 -11.5 -72.5t-6.5 -70.5q-3 -24 -3 -48zM374 1191q12 5 17.5 18t9.5 29 q6 27 6 56q0 16 -2 31t-5 29q11 0 20.5 -0.5t16.5 -0.5q26 -1 50.5 -1.5t50.5 -0.5q1 -9 1 -18v-19q0 -30 -3 -60.5t-8 -60.5q-42 -1 -77 -1.5t-77 -0.5zM772 1235q0 28 3.5 57t9.5 58q14 0 22 0.5t22 0.5h48t48 1q-5 -12 -8.5 -23.5t-6.5 -24.5q-6 -27 -6 -55q0 -29 8 -58 q-27 1 -45.5 1h-45.5h-12q-11 0 -19.5 -1t-14.5 -5q-3 24 -3 49z" />
<glyph unicode="&#xf7;" horiz-adv-x="971" d="M21 618q10 27 13.5 59t5.5 66q117 -3 227 -3.5t227 -0.5q115 0 228 0.5t229 2.5q-4 -32 -6 -62t-4 -62h-79q-83 1 -164 1.5t-166 0.5q-128 0 -255 -0.5t-256 -1.5zM387 242q2 29 4.5 58.5t4.5 58.5l3 48h70.5t69.5 -1q-2 -41 -3.5 -79t-2.5 -78h-41q-28 0 -53.5 -1 t-51.5 -6zM439 955v13q2 36 4 73t3 72q17 0 27 -0.5t27 -0.5h92q-3 -42 -5.5 -78.5t-6.5 -78.5h-141z" />
<glyph unicode="&#xf8;" horiz-adv-x="1224" d="M162 465q0 39 3 77q3 41 8.5 83.5t13.5 84.5q12 56 34 110t61 102q35 43 78 70t89.5 42t94 20.5t92.5 5.5h8q49 0 97.5 -5.5t93.5 -19t83 -37t66 -59.5q43 -55 57 -125.5t14 -146.5q0 -32 -1.5 -63.5t-3.5 -62.5q-4 -42 -9.5 -84t-14.5 -84q-13 -58 -35.5 -116 t-59.5 -109q-34 -41 -76 -67t-87 -42t-91 -22t-88 -6h-17q-47 0 -94.5 7t-90.5 22t-80.5 38.5t-64.5 57.5q-24 34 -39.5 73t-24.5 81.5t-12.5 86.5t-3.5 88zM268 -131q92 246 176 490.5t169 492.5q45 131 88.5 261t89.5 261q49 1 97 6.5t96 19.5q-93 -250 -175.5 -493.5 t-167.5 -492.5l-171 -504h-34q-18 0 -33 -0.5t-30.5 -3t-33.5 -6.5t-40 -10zM320 509q0 -46 10.5 -88.5t43.5 -71.5q40 -29 90.5 -38t103.5 -9h14q57 0 115 5.5t113 37.5q32 26 48 59t24 68q5 20 7 38t4 35q0 6 3 15q2 26 3 51.5t1 51.5q0 53 -8 102.5t-33 93.5 q-15 26 -38.5 44t-52 28.5t-60.5 15t-64 4.5h-6q-30 0 -61.5 -4.5t-62 -15t-58.5 -29t-50 -46.5q-26 -38 -41 -77t-24 -79q-8 -37 -11.5 -72.5t-6.5 -70.5q-3 -24 -3 -48z" />
<glyph unicode="&#xf9;" horiz-adv-x="1074" d="M79 273q0 23 1.5 45.5t3.5 45.5q16 143 25 287t9 286q0 73 -3 144q13 -1 18.5 -1.5t16.5 -2.5q20 -2 39 -3.5t37 -1.5q12 0 23 1t21 3v-27q0 -129 -6 -257t-16 -259l-1 -16q-1 -13 -1.5 -25.5t-0.5 -25.5q0 -34 5.5 -68t19.5 -67q13 -23 33 -37t43.5 -21.5t49 -10.5 t50.5 -3h5q24 0 50 4t50.5 13.5t47 25t40.5 38.5q21 27 36 56.5t25.5 60.5t18 62t14.5 61l3 13q11 57 22 113.5t23 113.5q13 60 26.5 122t28.5 122q43 2 81.5 3.5t80.5 4.5q-55 -266 -89.5 -533t-36.5 -527q-35 4 -63 5t-63 3l-38 2q4 45 9.5 88.5t11.5 89.5l-16 3 q-26 -44 -62 -85t-81 -65q-47 -25 -98.5 -33t-98.5 -8q-35 0 -70 2.5t-67 11t-60 23.5t-48 40q-29 35 -39 83.5t-10 100.5zM351 1475q55 -3 103 -4.5t104 -1.5q26 -35 47.5 -68.5t44.5 -69.5l11 -18q20 -32 40.5 -62.5t43.5 -59.5q1 -5 1.5 -11t2.5 -11l1 -8q-29 2 -51 2.5 t-51 1.5l5 -2q-54 44 -104 91t-101 94l-94 87z" />
<glyph unicode="&#xfa;" horiz-adv-x="1074" d="M79 273q0 23 1.5 45.5t3.5 45.5q16 143 25 287t9 286q0 73 -3 144q13 -1 18.5 -1.5t16.5 -2.5q20 -2 39 -3.5t37 -1.5q12 0 23 1t21 3v-27q0 -129 -6 -257t-16 -259l-1 -16q-1 -13 -1.5 -25.5t-0.5 -25.5q0 -34 5.5 -68t19.5 -67q13 -23 33 -37t43.5 -21.5t49 -10.5 t50.5 -3h5q24 0 50 4t50.5 13.5t47 25t40.5 38.5q21 27 36 56.5t25.5 60.5t18 62t14.5 61l3 13q11 57 22 113.5t23 113.5q13 60 26.5 122t28.5 122q43 2 81.5 3.5t80.5 4.5q-55 -266 -89.5 -533t-36.5 -527q-35 4 -63 5t-63 3l-38 2q4 45 9.5 88.5t11.5 89.5l-16 3 q-26 -44 -62 -85t-81 -65q-47 -25 -98.5 -33t-98.5 -8q-35 0 -70 2.5t-67 11t-60 23.5t-48 40q-29 35 -39 83.5t-10 100.5zM321 1213q0 2 8 5q43 46 79.5 91.5t72.5 90.5q19 23 36.5 46.5t37.5 46.5q47 0 96.5 1.5t97.5 3.5q-1 -25 -18 -47t-41.5 -41t-51.5 -36.5t-47 -33.5 q-43 -35 -90 -63t-92 -61q-9 -1 -18 -1.5t-18 -0.5q-8 -1 -21 -2t-22 -1t-9 2z" />
<glyph unicode="&#xfb;" horiz-adv-x="1074" d="M79 273q0 23 1.5 45.5t3.5 45.5q16 143 25 287t9 286q0 73 -3 144q13 -1 18.5 -1.5t16.5 -2.5q20 -2 39 -3.5t37 -1.5q12 0 23 1t21 3v-27q0 -129 -6 -257t-16 -259l-1 -16q-1 -13 -1.5 -25.5t-0.5 -25.5q0 -34 5.5 -68t19.5 -67q13 -23 33 -37t43.5 -21.5t49 -10.5 t50.5 -3h5q24 0 50 4t50.5 13.5t47 25t40.5 38.5q21 27 36 56.5t25.5 60.5t18 62t14.5 61l3 13q11 57 22 113.5t23 113.5q13 60 26.5 122t28.5 122q43 2 81.5 3.5t80.5 4.5q-55 -266 -89.5 -533t-36.5 -527q-35 4 -63 5t-63 3l-38 2q4 45 9.5 88.5t11.5 89.5l-16 3 q-26 -44 -62 -85t-81 -65q-47 -25 -98.5 -33t-98.5 -8q-35 0 -70 2.5t-67 11t-60 23.5t-48 40q-29 35 -39 83.5t-10 100.5zM291 1206q2 0 17 16.5t37.5 42t49 56.5t51 60t44.5 52.5t30 34.5q19 -1 35 -1h36h124q13 -17 25 -35t24 -35q32 -48 70.5 -99.5t77.5 -92.5l-3 5 l1 -6h-82q-41 29 -80.5 60.5t-74.5 61.5l-57 48q-63 -45 -125 -87.5t-124 -80.5q-8 0 -16 -0.5t-16 -0.5q-11 0 -18 0.5t-16 0.5h-10z" />
<glyph unicode="&#xfc;" horiz-adv-x="1074" d="M79 273q0 23 1.5 45.5t3.5 45.5q16 143 25 287t9 286q0 73 -3 144q13 -1 18.5 -1.5t16.5 -2.5q20 -2 39 -3.5t37 -1.5q12 0 23 1t21 3v-27q0 -129 -6 -257t-16 -259l-1 -16q-1 -13 -1.5 -25.5t-0.5 -25.5q0 -34 5.5 -68t19.5 -67q13 -23 33 -37t43.5 -21.5t49 -10.5 t50.5 -3h5q24 0 50 4t50.5 13.5t47 25t40.5 38.5q21 27 36 56.5t25.5 60.5t18 62t14.5 61l3 13q11 57 22 113.5t23 113.5q13 60 26.5 122t28.5 122q43 2 81.5 3.5t80.5 4.5q-55 -266 -89.5 -533t-36.5 -527q-35 4 -63 5t-63 3l-38 2q4 45 9.5 88.5t11.5 89.5l-16 3 q-26 -44 -62 -85t-81 -65q-47 -25 -98.5 -33t-98.5 -8q-35 0 -70 2.5t-67 11t-60 23.5t-48 40q-29 35 -39 83.5t-10 100.5zM265 1230q12 5 17.5 18t9.5 29q6 27 6 56q0 16 -2 31t-5 29q11 0 20.5 -0.5t16.5 -0.5q26 -1 50.5 -1.5t50.5 -0.5q1 -9 1 -18v-19q0 -30 -3 -60.5 t-8 -60.5q-42 -1 -77 -1.5t-77 -0.5zM663 1274q0 28 3.5 57t9.5 58q14 0 22 0.5t22 0.5h48t48 1q-5 -12 -8.5 -23.5t-6.5 -24.5q-6 -27 -6 -55q0 -29 8 -58q-27 1 -45.5 1h-45.5h-12q-11 0 -19.5 -1t-14.5 -5q-3 24 -3 49z" />
<glyph unicode="&#xfd;" horiz-adv-x="1215" d="M173 -383q8 60 14 116.5t12 115.5q1 3 1 9q8 -2 16.5 -2h17.5h18t17 1q46 1 96.5 14.5t95 40.5t78.5 66.5t49 92.5q7 24 10 40t4.5 27t2 18t1.5 13q-88 230 -179 456.5t-185 453.5q16 -3 30 -5t27 -3.5t27 -2.5t31 -2l30 -2q82 -149 163 -303.5t158 -306.5l13 21 q88 147 180.5 298t186.5 294q34 3 66.5 5.5t66.5 7.5q-139 -260 -260 -528.5t-238 -538.5l-15 -33q-26 -55 -52.5 -108.5t-61.5 -103.5q-24 -35 -55.5 -63.5t-67.5 -48.5t-75 -31.5t-77 -11.5h-11q-8 0 -16.5 -0.5t-16.5 -0.5q-23 0 -51 1.5t-51 3.5zM461 1213q0 2 8 5 q43 46 79.5 91.5t72.5 90.5q19 23 36.5 46.5t37.5 46.5q47 0 96.5 1.5t97.5 3.5q-1 -25 -18 -47t-41.5 -41t-51.5 -36.5t-47 -33.5q-43 -35 -90 -63t-92 -61q-9 -1 -18 -1.5t-18 -0.5q-8 -1 -21 -2t-22 -1t-9 2z" />
<glyph unicode="&#xfe;" horiz-adv-x="1084" d="M129 -388q52 472 91 941.5t43 933.5l-15 -12q41 -8 83 -13l84 -10q-2 -90 -5.5 -176t-8.5 -175q0 -7 -0.5 -13t-0.5 -13l-2 -35q-2 -38 -4 -76.5t-8 -79.5l23 -1q19 46 52.5 80.5t74 57t85 34t86.5 11.5h12t12 -1h8q39 0 77.5 -7t73 -21.5t63 -37t47.5 -52.5 q35 -66 47.5 -145.5t12.5 -159.5q0 -51 -3 -97q-4 -44 -9.5 -89t-14.5 -89q-10 -45 -24.5 -89.5t-36.5 -89.5t-55.5 -79t-72.5 -56.5t-81.5 -33.5t-82.5 -11h-11.5t-10.5 1q-50 0 -97.5 11t-87.5 33.5t-70 56.5t-45 80h-24q0 -37 -1 -65.5t-4 -53.5q-2 -14 -3 -28l-2 -28 l-17 -203q-4 -48 -8.5 -96.5t-7.5 -96.5zM362 432q0 -36 3.5 -71t11.5 -70q10 -43 32.5 -75.5t53.5 -54t68 -32.5t78 -11h17q26 0 53 6t52.5 18t47.5 30.5t38 43.5q23 37 37.5 76t22.5 78q8 36 12.5 75t9.5 96q2 29 3.5 59t1.5 59q0 53 -7.5 102.5t-30.5 94.5 q-24 47 -72 71.5t-105 24.5h-19q-32 0 -67 -9t-67.5 -26.5t-59.5 -44t-43 -60.5q-17 -35 -28 -71t-19 -70q-8 -38 -12.5 -74.5t-7.5 -72.5q-2 -23 -3 -46t-1 -46z" />
<glyph unicode="&#xff;" horiz-adv-x="1215" d="M173 -383q8 60 14 116.5t12 115.5q1 3 1 9q8 -2 16.5 -2h17.5h18t17 1q46 1 96.5 14.5t95 40.5t78.5 66.5t49 92.5q7 24 10 40t4.5 27t2 18t1.5 13q-88 230 -179 456.5t-185 453.5q16 -3 30 -5t27 -3.5t27 -2.5t31 -2l30 -2q82 -149 163 -303.5t158 -306.5l13 21 q88 147 180.5 298t186.5 294q34 3 66.5 5.5t66.5 7.5q-139 -260 -260 -528.5t-238 -538.5l-15 -33q-26 -55 -52.5 -108.5t-61.5 -103.5q-24 -35 -55.5 -63.5t-67.5 -48.5t-75 -31.5t-77 -11.5h-11q-8 0 -16.5 -0.5t-16.5 -0.5q-23 0 -51 1.5t-51 3.5zM415 1230q12 5 17.5 18 t9.5 29q6 27 6 56q0 16 -2 31t-5 29q11 0 20.5 -0.5t16.5 -0.5q26 -1 50.5 -1.5t50.5 -0.5q1 -9 1 -18v-19q0 -30 -3 -60.5t-8 -60.5q-42 -1 -77 -1.5t-77 -0.5zM813 1274q0 28 3.5 57t9.5 58q14 0 22 0.5t22 0.5h48t48 1q-5 -12 -8.5 -23.5t-6.5 -24.5q-6 -27 -6 -55 q0 -29 8 -58q-27 1 -45.5 1h-45.5h-12q-11 0 -19.5 -1t-14.5 -5q-3 24 -3 49z" />
<glyph unicode="&#x152;" horiz-adv-x="2058" d="M147 617q0 48 3 95q4 44 10 89.5t15 90.5q18 85 56 169t100 155q47 46 104.5 78t119.5 52t124.5 29t119.5 9h19q54 -2 105.5 -5.5t104.5 -8.5h105q200 0 400 3.5t401 11.5q-4 -13 -5 -20.5t-4 -20.5l-14 -70q-1 -5 -1.5 -11.5t-2.5 -11.5q-198 -7 -393 -9.5t-392 -2.5 l-33 -453q173 0 347.5 0.5t347.5 1.5q-2 -22 -3 -39.5t-3 -38.5l-4 -53q-175 1 -347.5 1h-347.5q-7 -90 -13.5 -188.5t-12.5 -188.5q201 -1 403.5 -4t401.5 -11q2 -64 7 -126.5t14 -128.5q-236 14 -467.5 19.5t-471.5 6.5q-38 -5 -74.5 -6.5t-74.5 -2.5q-14 0 -31 -0.5 t-31 -1.5q-66 1 -134 10.5t-130.5 30t-116.5 53.5t-92 81q-32 39 -52.5 87.5t-33.5 102.5t-18 111.5t-5 114.5zM306 620q0 -39 4 -76.5t14.5 -72t29.5 -64t48 -51.5q35 -27 76 -43.5t85.5 -26t92 -13t94.5 -3.5q32 0 69.5 1.5t70.5 3.5l21 259q14 179 26 357t20 355 q-32 2 -68.5 3.5t-68.5 2.5h-7q-45 0 -92 -5.5t-93.5 -20t-89.5 -40t-79 -65.5q-55 -61 -84.5 -127.5t-43.5 -134.5q-8 -38 -13 -76t-8 -74q-2 -22 -3 -44t-1 -45z" />
<glyph unicode="&#x153;" horiz-adv-x="1941" d="M156 431q0 28 0.5 56t3.5 56l3 29q5 38 10.5 79t13.5 79q11 53 30 104.5t52 99.5q33 43 74 70t85 42.5t90 21.5t89 6h20q57 -1 113.5 -11t107.5 -32t93.5 -57t70.5 -85q39 50 87 85t100 56.5t105.5 31.5t103.5 10h22q43 0 85.5 -5.5t81.5 -18t72.5 -32.5t59.5 -50 q36 -57 49 -124t13 -137q0 -63 -6 -123q0 -7 -1 -9q0 -1 -24 -1.5t-61 -0.5t-80.5 -0.5t-82.5 -0.5h-67h-35q-92 -1 -181.5 -1h-180.5l-12 -12q-1 -11 -1 -21v-21q0 -61 13.5 -117.5t52.5 -98.5q40 -44 96 -67.5t119 -30.5h22q34 0 69 3t71 19q26 11 48.5 30.5t41.5 40.5 q41 -16 77 -32t76 -32q-14 -45 -45 -90.5t-74 -71.5q-35 -22 -70 -34.5t-70 -19t-69 -8t-67 -1.5q-59 0 -116 11t-108 34t-93 59.5t-71 86.5q-37 -52 -85.5 -88t-101.5 -58t-108.5 -31.5t-106.5 -9.5h-25q-45 0 -89.5 6.5t-84.5 20.5t-73.5 37.5t-57.5 58.5 q-45 66 -59.5 142.5t-14.5 156.5zM317 497q0 -37 3.5 -72.5t14.5 -68.5q13 -39 36 -68.5t52.5 -49t64.5 -29t73 -9.5h11q32 0 66 4.5t66.5 15.5t62.5 30.5t53 48.5q31 46 48 89t26 85q6 29 9.5 56.5t5.5 53.5q3 37 3 74q0 43 -6 84t-22 78q-17 39 -43 66.5t-58 44.5 t-68.5 25t-74.5 8h-18q-29 0 -60.5 -5t-61.5 -16.5t-57.5 -31t-48.5 -48.5q-23 -38 -36.5 -75t-21.5 -73t-11 -68.5t-5 -64.5q-3 -42 -3 -84zM1072 695q139 1 281 2t281 3l13 12v8q0 47 -16 89.5t-42 77.5q-32 42 -84 59t-107 17h-5q-57 0 -116 -22t-104 -69 q-35 -36 -62.5 -81t-38.5 -96z" />
<glyph unicode="&#x2c6;" horiz-adv-x="806" d="M100 1214q2 0 17 16.5t37.5 42t49 56.5t51 60t44.5 52.5t30 34.5q19 -1 35 -1h36h124q13 -17 25 -35t24 -35q32 -48 70.5 -99.5t77.5 -92.5l-3 5l1 -6h-82q-41 29 -80.5 60.5t-74.5 61.5l-57 48q-63 -45 -125 -87.5t-124 -80.5q-8 0 -16 -0.5t-16 -0.5q-11 0 -18 0.5 t-16 0.5h-10z" />
<glyph unicode="&#x2dc;" horiz-adv-x="949" d="M123 1212q8 17 16.5 36.5t15.5 38.5q3 8 7 18.5t9 21.5q5 12 11 25q6 21 18.5 40t30 33.5t37.5 22.5t41 8q9 0 14 -1q47 -1 85.5 -19.5t74.5 -39.5q29 -18 60.5 -34t65.5 -22h9q25 0 46 10.5t38 27.5t30.5 38t22.5 41h38h15.5t15.5 1q-12 -22 -20.5 -43.5t-16.5 -41.5 l-6 -16q-10 -24 -20.5 -47.5t-23.5 -43.5q-17 -26 -46 -38.5t-57 -12.5h-10q-45 1 -84.5 19.5t-74.5 38.5q-29 17 -61.5 33t-70.5 24q-3 0 -5.5 0.5t-5.5 0.5q-24 0 -44.5 -11t-37 -28t-29 -38t-21.5 -41q-9 -1 -18.5 -1h-18.5h-30z" />
<glyph unicode="&#x2000;" horiz-adv-x="937" />
<glyph unicode="&#x2001;" horiz-adv-x="1874" />
<glyph unicode="&#x2002;" horiz-adv-x="937" />
<glyph unicode="&#x2003;" horiz-adv-x="1874" />
<glyph unicode="&#x2004;" horiz-adv-x="624" />
<glyph unicode="&#x2005;" horiz-adv-x="468" />
<glyph unicode="&#x2006;" horiz-adv-x="312" />
<glyph unicode="&#x2007;" horiz-adv-x="312" />
<glyph unicode="&#x2008;" horiz-adv-x="234" />
<glyph unicode="&#x2009;" horiz-adv-x="374" />
<glyph unicode="&#x200a;" horiz-adv-x="104" />
<glyph unicode="&#x2010;" horiz-adv-x="847" d="M156 455l8 -12q6 14 10.5 29.5t8.5 31.5q4 17 5.5 34t1.5 34q0 34 -7 61q72 -2 135.5 -2.5t136.5 -0.5q64 0 124.5 0.5t123.5 2.5q-5 -13 -8.5 -25.5t-6.5 -26.5q-3 -16 -5 -31.5t-2 -31.5q0 -31 8 -63q-72 2 -135.5 2.5t-136.5 0.5q-131 0 -261 -3z" />
<glyph unicode="&#x2011;" horiz-adv-x="847" d="M156 455l8 -12q6 14 10.5 29.5t8.5 31.5q4 17 5.5 34t1.5 34q0 34 -7 61q72 -2 135.5 -2.5t136.5 -0.5q64 0 124.5 0.5t123.5 2.5q-5 -13 -8.5 -25.5t-6.5 -26.5q-3 -16 -5 -31.5t-2 -31.5q0 -31 8 -63q-72 2 -135.5 2.5t-136.5 0.5q-131 0 -261 -3z" />
<glyph unicode="&#x2012;" horiz-adv-x="847" d="M156 455l8 -12q6 14 10.5 29.5t8.5 31.5q4 17 5.5 34t1.5 34q0 34 -7 61q72 -2 135.5 -2.5t136.5 -0.5q64 0 124.5 0.5t123.5 2.5q-5 -13 -8.5 -25.5t-6.5 -26.5q-3 -16 -5 -31.5t-2 -31.5q0 -31 8 -63q-72 2 -135.5 2.5t-136.5 0.5q-131 0 -261 -3z" />
<glyph unicode="&#x2013;" horiz-adv-x="1384" d="M167 461q20 0 30 14.5t14 31.5q2 5 2 10v10q0 28 -15 51q71 -1 138 -1.5t133 -0.5h133h138q272 0 547 3q-10 -11 -16 -23.5t-9 -25.5q-1 -5 -1.5 -9.5t-0.5 -9.5q0 -28 15 -49q-71 1 -137.5 1.5t-132.5 0.5h-132.5h-137.5q-285 0 -568 -3z" />
<glyph unicode="&#x2014;" horiz-adv-x="2294" d="M167 442q23 11 46.5 28.5t29.5 47.5q-2 22 -11 36.5t-20 24.5q128 -1 249.5 -1.5t242 -1t242.5 -0.5h250q250 0 494.5 0.5t495.5 2.5q-16 -10 -27.5 -23t-16.5 -33q0 -23 8.5 -37.5t21.5 -24.5q-128 1 -249.5 1.5t-241.5 1t-241 0.5h-249q-258 0 -512.5 -3t-511.5 -19z " />
<glyph unicode="&#x2018;" horiz-adv-x="383" d="M73 967l11 3l12 130q2 28 7.5 57t11.5 58q10 47 26 91.5t44 86.5q14 -2 27.5 -2h30.5h18.5t18.5 1q-33 -45 -58 -96.5t-36 -103.5q-3 -12 -4.5 -25.5t-2.5 -27.5q11 0 24.5 -0.5t24.5 -0.5h33q-3 -44 -4.5 -88t-2.5 -86q-26 4 -51 5.5t-51 1.5q-20 0 -39.5 -1t-39.5 -3z " />
<glyph unicode="&#x2019;" horiz-adv-x="396" d="M108 970q32 45 57 94t36 101q7 28 8 56h-50q-9 0 -16 0.5t-16 0.5q4 46 6.5 88.5t3.5 87.5q24 -4 48 -5.5t50 -1.5q35 0 73 3l-4 -39q-3 -23 -5.5 -46.5t-4.5 -46.5q-3 -30 -7 -60.5t-11 -59.5q-3 -14 -5.5 -26.5t-7.5 -26.5q-9 -30 -23.5 -61t-32.5 -59q-15 2 -28.5 2 h-30.5h-19.5t-20.5 -1z" />
<glyph unicode="&#x201a;" horiz-adv-x="393" d="M108 -244q33 45 58 96.5t36 102.5q5 23 7 54h-41t-41 1q3 44 5.5 88t3.5 86q24 -4 48.5 -5.5t50.5 -1.5q35 0 73 3q-5 -35 -8.5 -65.5t-6.5 -65.5q0 -2 -0.5 -2.5t-0.5 -2.5q-4 -30 -7.5 -60t-9.5 -59l-13 -49q-8 -30 -23.5 -61.5t-32.5 -59.5q-15 2 -28.5 2h-30.5h-19 t-20 -1z" />
<glyph unicode="&#x201c;" horiz-adv-x="796" d="M122 964q14 29 21.5 64.5t11.5 70.5q1 5 1 8.5t2 8.5q5 28 9 56t10 57q9 44 22.5 85.5t36.5 81.5l97 -4q-32 -46 -53 -96t-32 -102q-2 -12 -4.5 -25.5t-4.5 -30.5h50q9 0 16.5 0.5t16.5 0.5q-3 -23 -3.5 -41t-2.5 -41q-2 -21 -4 -43.5t-4 -43.5h-37q-74 -1 -149 -6z M466 962v19q0 32 1.5 62.5t3.5 59.5q3 52 14 103q10 48 29.5 96t51.5 90q26 0 49.5 0.5t48.5 2.5q-38 -46 -66 -97.5t-39 -105.5q-3 -12 -4.5 -25.5t-2.5 -27.5q10 0 24 -0.5t25 -0.5h33q-3 -42 -3 -84q0 -23 1 -45.5t3 -45.5q-26 2 -49 3t-45 1q-19 0 -37 -1t-38 -4z" />
<glyph unicode="&#x201d;" horiz-adv-x="798" d="M139 967q38 45 64.5 96t37.5 105q3 13 5 26.5t3 28.5h-50q-9 0 -15.5 0.5t-15.5 0.5q3 48 3 96q0 40 -3 79q46 -4 85 -5.5t84 -1.5q0 -23 -1.5 -43t-2.5 -43l-2 -47q-2 -53 -14 -108q-3 -14 -6.5 -29.5t-8.5 -29.5q-11 -32 -26.5 -62.5t-38.5 -59.5q-26 -1 -50 -1t-48 -2 zM468 969q31 46 52.5 95t32.5 99q6 26 9 61q-20 -1 -42 -1h-42l15 168q44 1 88 2.5t87 3.5q-7 -34 -13 -67.5t-9 -66.5q-5 -30 -9 -60t-11 -60q-9 -45 -23.5 -89t-37.5 -89q-26 1 -49.5 1.5t-47.5 2.5z" />
<glyph unicode="&#x201e;" horiz-adv-x="803" d="M142 -247q38 47 65.5 99t39.5 106q5 25 6 51h-40.5t-40.5 1q1 26 1.5 51t0.5 51v37t-2 36q46 -4 85 -5.5t84 -1.5q-1 -35 -2.5 -65.5t-3.5 -65.5q-2 -28 -5 -56t-9 -56q-3 -13 -6.5 -27.5t-8.5 -28.5q-22 -65 -66 -123q-26 -1 -50 -1t-48 -2zM470 -245q66 95 87 197 q6 25 9 58q-20 -1 -42.5 -1h-42.5q4 45 8 84t9 84q45 1 87.5 2t86.5 4q0 -2 -0.5 -3t-0.5 -3q-7 -32 -12.5 -63.5t-9.5 -63.5q-6 -61 -18 -119q-10 -45 -24 -89.5t-38 -89.5q-18 2 -33 1.5t-33 0.5h-16.5t-16.5 1z" />
<glyph unicode="&#x2022;" horiz-adv-x="762" d="M123 655q0 6 0.5 11.5t0.5 11.5q1 11 3 23.5t4 23.5q8 39 26 76.5t49 67.5q37 36 84 53t93 17h12q56 0 104 -20.5t83 -56.5q29 -31 44 -71.5t15 -86.5v-13.5t-1 -13.5q-2 -25 -6 -45q-9 -41 -28 -79.5t-50 -70.5q-38 -38 -86.5 -56t-96.5 -18h-11q-56 0 -103.5 20 t-79.5 58q-30 32 -43 76.5t-13 92.5z" />
<glyph unicode="&#x202f;" horiz-adv-x="374" />
<glyph unicode="&#x2039;" horiz-adv-x="631" d="M35 510q0 8 0.5 14t1.5 14l3 29q83 90 165 175t168 173l151 -12q-89 -91 -177.5 -183t-176.5 -184l131 -159q44 -53 87 -105t86 -106q0 -5 0.5 -8t0.5 -8q-31 5 -71.5 8.5t-82.5 5.5l7 -3l-83 95q-54 63 -106.5 125.5t-103.5 128.5z" />
<glyph unicode="&#x203a;" horiz-adv-x="629" d="M98 162q0 1 0.5 1.5t0.5 1.5t-0.5 1.5t-0.5 1.5q0 5 1 7l43 44q78 78 157 158.5t156 160.5l-117 145q-47 57 -92.5 114t-90.5 116l-1 16q36 -5 71.5 -8t73.5 -4q75 -88 147.5 -174.5t144.5 -177.5l-3 -28q-3 -17 -3 -28q-85 -90 -167.5 -174.5t-169.5 -172.5l9 4 q-39 0 -79 -1t-80 -3z" />
<glyph unicode="&#x205f;" horiz-adv-x="468" />
<glyph unicode="&#x20ac;" horiz-adv-x="1246" d="M74 513l42 108h57t58 1q1 49 5 92.5t9 87.5h-144q5 18 9 28.5t10 26.5l19 53q29 -2 59 -2t59 -1l11 49q8 37 18 75.5t25 75.5t35 72.5t47 68.5q36 42 79.5 70t90.5 44t95 22.5t93 6.5h6q8 1 15 1h15q67 0 128.5 -19t108.5 -55.5t76 -89.5t31 -121q-29 -4 -53.5 -6.5 t-53.5 -5.5l-52 -6q-2 41 -19.5 74.5t-46.5 57t-66.5 36.5t-79.5 13h-19q-29 0 -60.5 -5t-62 -17t-58.5 -31t-49 -47q-41 -53 -60.5 -106t-30.5 -105q-2 -12 -5 -28.5t-6 -27.5q53 -1 110.5 -1h110.5h99t100 1q-11 -29 -20.5 -52t-19.5 -51h-390q-3 -30 -4.5 -48t-3 -35 t-2.5 -38t-1 -56h209.5t209.5 -1l-18 -47q-5 -13 -11 -28t-10 -29h-386q0 -71 27 -130.5t78 -94.5q18 -17 41 -26.5t48 -14.5t51.5 -7t52.5 -2h7q30 0 63 7t62 25q24 10 42 32.5t18 46.5q10 -5 21.5 -12t26.5 -11q38 -11 75 -21.5t75 -22.5q-7 -28 -17.5 -57t-26.5 -56 t-36.5 -51t-46.5 -43q-59 -42 -127 -54t-133 -12h-13q-93 2 -176.5 30t-142.5 90q-35 37 -58 81.5t-36.5 93.5t-19.5 101t-7 105q-37 0 -77.5 -0.5t-78.5 -1.5z" />
<glyph unicode="&#x2122;" horiz-adv-x="872" d="M100 1391q63 -3 118 -3.5t118 -1.5l-1 -18l-106 6q3 -45 3 -90q0 -97 -12 -187h-29q-5 0 -8 -0.5t-8 -0.5q5 14 6.5 23.5t4.5 23.5q23 109 23 218v13q-25 -1 -52.5 -1.5t-52.5 -0.5zM370 1098l3 27q8 67 14.5 130t12.5 131h54q6 -16 11.5 -30.5t10.5 -30.5 q6 -18 12.5 -39.5t14 -43t15 -42.5t14.5 -38q29 60 61 119t66 107q7 0 10.5 0.5t10.5 0.5h29q-3 -9 -5.5 -19t-4.5 -20q-7 -35 -10.5 -69t-3.5 -68q0 -31 3 -61t10 -59l-51 2q-3 28 -3 59q0 38 5 77.5t13 79.5q2 10 5 21.5t5 21.5l-17 3q-33 -60 -59 -120.5t-43 -120.5h-39 q-16 39 -28.5 85.5t-24.5 91.5l-16 63l-19 -5l-4 -53q-2 -29 -3 -60t-1 -63v-39.5t1 -37.5h-49z" />
<glyph unicode="&#xe000;" horiz-adv-x="1095" d="M0 0v1095h1095v-1095h-1095z" />
</font>
</defs>
</svg>
